<?xml version="1.0" encoding="UTF-8"?>
<svg xmlns="http://www.w3.org/2000/svg" xmlns:xlink="http://www.w3.org/1999/xlink" width="2000px" height="px" viewBox="0 0 2000 2000" version="1.1">
<g id="surface1">
<path style=" stroke:none;fill-rule:nonzero;fill:rgb(0%,0%,0%);fill-opacity:1;" d="M 1112 2001 C 741.332031 2001 371.167969 2001 1 2001 C 1 1334.332031 1 667.667969 1 1 C 667.667969 1 1334.332031 1 2001 1 C 2001 667.667969 2001 1334.332031 2001 2001 C 1704.832031 2001 1408.667969 2001 1112 2001 M 538.289062 1280.847656 C 540.640625 1282.578125 543.136719 1284.148438 545.308594 1286.082031 C 550.527344 1290.734375 556.144531 1295.101562 560.539062 1300.457031 C 563.855469 1304.5 565.800781 1309.785156 567.792969 1314.742188 C 568.578125 1316.695312 568.535156 1319.578125 567.664062 1321.484375 C 565.101562 1327.070312 561.800781 1332.308594 559.023438 1337.804688 C 551.699219 1352.296875 544.328125 1366.777344 537.371094 1381.445312 C 535.773438 1384.820312 535.128906 1388.949219 535.15625 1392.722656 C 535.199219 1397.734375 536.335938 1402.738281 536.992188 1407.746094 C 540.035156 1431.09375 547.511719 1453.101562 557.707031 1474.179688 C 569.378906 1498.308594 584.109375 1520.421875 601.917969 1540.546875 C 616.746094 1557.300781 632.757812 1572.8125 650.300781 1586.582031 C 669.707031 1601.8125 690.398438 1615.289062 712.15625 1626.976562 C 738.988281 1641.382812 766.644531 1654.101562 795.496094 1663.871094 C 817.96875 1671.476562 840.835938 1677.917969 863.554688 1684.789062 C 866.078125 1685.550781 868.777344 1685.71875 872.714844 1686.386719 C 871.097656 1684.683594 870.496094 1683.90625 869.757812 1683.296875 C 864.339844 1678.835938 858.613281 1674.703125 853.539062 1669.886719 C 847.429688 1664.085938 841.570312 1657.960938 836.125 1651.53125 C 824.929688 1638.3125 813.625 1625.136719 803.222656 1611.300781 C 793.597656 1598.5 784.550781 1585.183594 776.210938 1571.511719 C 762.394531 1548.859375 748.703125 1526.082031 736.179688 1502.707031 C 726.261719 1484.195312 717.691406 1464.914062 709.402344 1445.59375 C 701.902344 1428.117188 695.222656 1410.261719 688.878906 1392.328125 C 683.777344 1377.90625 679.34375 1363.214844 675.300781 1348.457031 C 671.414062 1334.265625 667.875 1319.933594 665.160156 1305.480469 C 662.1875 1289.652344 660.074219 1273.648438 658.070312 1257.660156 C 656.355469 1244.003906 654.316406 1230.273438 654.226562 1216.5625 C 654.070312 1193.21875 654.769531 1169.828125 656.199219 1146.523438 C 657.117188 1131.59375 659.199219 1116.621094 662.171875 1101.953125 C 666.34375 1081.367188 671.125 1060.847656 676.921875 1040.667969 C 685.160156 1011.976562 697.570312 984.882812 711.25 958.390625 C 711.585938 957.746094 712.152344 957.226562 712.554688 956.722656 C 711.683594 965.113281 710.730469 973.363281 709.992188 981.632812 C 708.597656 997.324219 706.382812 1013.015625 706.226562 1028.726562 C 706.003906 1051.070312 707.117188 1073.441406 708.089844 1095.78125 C 708.582031 1107.070312 709.449219 1118.40625 711.160156 1129.566406 C 713.613281 1145.597656 716.789062 1161.527344 720.027344 1177.421875 C 726.226562 1207.894531 735.484375 1237.472656 746.8125 1266.40625 C 756.433594 1290.972656 767.074219 1315.089844 780.0625 1338.085938 C 788.507812 1353.042969 796.785156 1368.152344 806.230469 1382.480469 C 819.089844 1401.984375 832.6875 1421.03125 846.554688 1439.84375 C 855.085938 1451.417969 864.53125 1462.339844 873.882812 1473.28125 C 882.332031 1483.167969 890.855469 1493.042969 899.988281 1502.289062 C 916.679688 1519.199219 933.59375 1535.914062 950.90625 1552.1875 C 962.375 1562.972656 974.636719 1572.921875 986.65625 1583.109375 C 994.25 1589.539062 1001.910156 1595.90625 1009.800781 1601.953125 C 1022.445312 1611.648438 1035.261719 1621.117188 1048.101562 1630.558594 C 1056.609375 1636.8125 1064.859375 1643.574219 1073.960938 1648.832031 C 1093.945312 1660.378906 1116.414062 1662.867188 1138.875 1663.78125 C 1152.007812 1664.316406 1165.289062 1663.199219 1178.402344 1661.855469 C 1192.152344 1660.449219 1205.980469 1658.742188 1219.421875 1655.632812 C 1245.398438 1649.625 1271.105469 1642.378906 1295.414062 1631.15625 C 1319.503906 1620.03125 1343.375 1608.433594 1367.292969 1596.9375 C 1369.808594 1595.726562 1371.984375 1593.8125 1374.71875 1591.949219 C 1371.992188 1589.988281 1369.875 1588.503906 1367.792969 1586.96875 C 1350.792969 1574.417969 1333.828125 1561.816406 1316.789062 1549.316406 C 1300.945312 1537.6875 1285.007812 1526.191406 1269.144531 1514.589844 C 1252.738281 1502.585938 1236.292969 1490.640625 1220.015625 1478.464844 C 1201.753906 1464.796875 1183.632812 1450.941406 1165.511719 1437.089844 C 1151.019531 1426.015625 1136.449219 1415.03125 1122.230469 1403.613281 C 1109.332031 1393.257812 1096.707031 1382.539062 1084.238281 1371.667969 C 1068.605469 1358.039062 1052.847656 1344.511719 1037.867188 1330.183594 C 1012.644531 1306.058594 988.410156 1280.9375 966.90625 1253.355469 C 955.402344 1238.605469 943.898438 1223.832031 933.03125 1208.613281 C 911.53125 1178.5 892.75 1146.722656 878.394531 1112.570312 C 872.09375 1097.578125 866.757812 1082.101562 862.199219 1066.488281 C 858.53125 1053.925781 856.367188 1040.882812 854.179688 1027.945312 C 853.0625 1021.324219 852.976562 1014.457031 853.121094 1007.714844 C 853.25 1001.691406 853.910156 995.597656 855.105469 989.691406 C 856.722656 981.695312 859.078125 973.847656 861.117188 965.9375 C 871.773438 977.246094 880.878906 988.523438 889.972656 999.808594 C 900.503906 1012.886719 910.488281 1026.457031 921.710938 1038.917969 C 931.714844 1050.027344 942.71875 1060.324219 953.9375 1070.234375 C 966.667969 1081.480469 981.347656 1089.863281 997.34375 1095.660156 C 1012.328125 1101.09375 1027.683594 1105.019531 1043.691406 1106.183594 C 1045.21875 1106.296875 1047.164062 1108.714844 1047.898438 1110.480469 C 1055.714844 1129.246094 1063.289062 1148.113281 1071 1166.921875 C 1076.628906 1180.660156 1082.554688 1194.28125 1087.980469 1208.097656 C 1092.832031 1220.449219 1100.253906 1230.398438 1111.230469 1238.148438 C 1126.011719 1248.585938 1142.636719 1252.75 1160.160156 1253.882812 C 1173.945312 1254.773438 1187.492188 1252.371094 1201.742188 1248.46875 C 1183.378906 1194.328125 1165.109375 1140.46875 1146.84375 1086.609375 C 1147.121094 1086.15625 1147.398438 1085.703125 1147.675781 1085.25 C 1151.589844 1086.8125 1156.390625 1087.433594 1159.246094 1090.121094 C 1166.953125 1097.378906 1174.636719 1104.921875 1180.878906 1113.421875 C 1194.742188 1132.289062 1205.304688 1153.167969 1214.828125 1174.507812 C 1223.382812 1193.675781 1231.65625 1212.976562 1239.550781 1232.421875 C 1241.074219 1236.171875 1243.050781 1238.488281 1246.457031 1239.785156 C 1255.355469 1243.167969 1264.28125 1246.488281 1273.265625 1249.628906 C 1280.714844 1252.234375 1288.109375 1255.46875 1295.804688 1256.78125 C 1306.761719 1258.644531 1318.039062 1258.546875 1329.0625 1260.128906 C 1341.488281 1261.910156 1353.5625 1260.5625 1365.621094 1257.921875 C 1366.625 1257.703125 1367.828125 1256.476562 1368.171875 1255.457031 C 1380.054688 1220.28125 1391.886719 1185.09375 1403.53125 1149.839844 C 1404.15625 1147.953125 1403.886719 1144.902344 1402.722656 1143.4375 C 1394.574219 1133.199219 1386.011719 1123.292969 1377.710938 1113.175781 C 1364.527344 1097.105469 1351.304688 1081.066406 1338.355469 1064.808594 C 1315.007812 1035.488281 1297.867188 1002.671875 1285.097656 967.589844 C 1277.039062 945.445312 1270.03125 922.921875 1262.242188 900.675781 C 1256.800781 885.148438 1251.070312 869.710938 1245.050781 854.402344 C 1236.8125 833.460938 1225.34375 814.699219 1207.214844 800.636719 C 1206.074219 799.753906 1205.160156 797.886719 1205.089844 796.429688 C 1204.589844 785.84375 1204.246094 775.246094 1204.019531 764.644531 C 1203.617188 746.054688 1203.332031 727.460938 1203 708.871094 C 1202.992188 708.371094 1203.121094 707.832031 1202.976562 707.375 C 1202.492188 705.859375 1202.285156 704.050781 1201.3125 702.929688 C 1191.179688 691.289062 1180.933594 679.746094 1170.691406 668.203125 C 1165.011719 661.800781 1159.21875 655.503906 1153.589844 649.058594 C 1142.792969 636.683594 1132.066406 624.246094 1121.324219 611.820312 C 1115.414062 604.980469 1109.710938 597.953125 1103.597656 591.300781 C 1096.664062 583.761719 1090.609375 575.359375 1080.242188 571.492188 C 1071.023438 568.050781 1062.339844 563.179688 1053.363281 559.070312 C 1041.457031 553.625 1029.457031 548.386719 1017.617188 542.800781 C 1016.332031 542.195312 1015.324219 539.960938 1015.089844 538.351562 C 1013.839844 529.785156 1012.949219 521.167969 1011.800781 512.585938 C 1010.265625 501.125 1008.652344 489.671875 1006.980469 478.226562 C 1006.089844 472.132812 1006 465.671875 1003.785156 460.074219 C 1000.089844 450.75 995.078125 441.929688 990.367188 433.035156 C 989.636719 431.65625 987.675781 430.460938 986.074219 430.085938 C 978.1875 428.25 970.179688 426.929688 962.3125 425.023438 C 955.597656 423.394531 949.773438 423.457031 945.417969 429.941406 C 944.199219 431.753906 941.757812 432.691406 940.226562 434.351562 C 936.6875 438.179688 931.945312 441.664062 930.195312 446.242188 C 921.148438 469.882812 912.890625 493.824219 904.339844 517.703125 C 902.59375 518 900.683594 518.417969 898.746094 518.632812 C 889.277344 519.675781 879.875 522.703125 870.273438 519.035156 C 865.910156 517.371094 861.261719 516.472656 856.835938 514.953125 C 855.410156 514.464844 853.742188 513.371094 853.101562 512.09375 C 845.640625 497.160156 838.488281 482.074219 830.972656 467.171875 C 825.941406 457.1875 821.308594 446.832031 814.917969 437.753906 C 809.253906 429.710938 801.464844 423.152344 794.457031 416.09375 C 793.601562 415.234375 791.71875 414.914062 790.398438 415.070312 C 781.167969 416.152344 771.992188 417.886719 762.738281 418.46875 C 757.214844 418.8125 754.199219 420.886719 752.472656 425.933594 C 751.328125 429.289062 749.574219 432.441406 748.054688 435.664062 C 744.054688 444.144531 741.648438 452.816406 741.863281 462.441406 C 742.3125 482.433594 741.832031 502.441406 742.136719 522.433594 C 742.199219 526.6875 740.898438 529.449219 737.710938 531.828125 C 735.488281 533.492188 733.535156 535.515625 731.285156 537.136719 C 729.179688 538.65625 726.972656 540.652344 724.589844 541.023438 C 720.707031 541.621094 716.621094 540.738281 712.671875 541.078125 C 706.972656 541.574219 702.863281 540.242188 698.722656 535.566406 C 688.28125 523.773438 676.941406 512.773438 665.96875 501.445312 C 665.285156 500.738281 664.726562 499.910156 664.039062 499.207031 C 657.4375 492.464844 651.5625 484.707031 644.015625 479.28125 C 635.816406 473.386719 626.121094 469.527344 616.914062 465.121094 C 615.199219 464.300781 612.363281 464.386719 610.644531 465.25 C 601.957031 469.613281 593.394531 474.238281 584.984375 479.113281 C 583.511719 479.96875 582.308594 482.375 582.132812 484.175781 C 581.71875 488.46875 582.632812 492.945312 581.871094 497.140625 C 579.707031 509.074219 581.234375 520.472656 584.964844 531.875 C 590.785156 549.675781 596.289062 567.582031 601.722656 585.507812 C 602.824219 589.148438 604.464844 593.570312 603.359375 596.761719 C 600.34375 605.441406 595.242188 612.722656 584.351562 612.300781 C 584.210938 612.296875 584.054688 612.546875 583.921875 612.53125 C 581.738281 612.285156 579.125 612.707031 577.441406 611.648438 C 561.269531 601.476562 545.289062 590.996094 529.167969 580.738281 C 522.773438 576.664062 516.527344 572.003906 509.566406 569.261719 C 501.820312 566.210938 493.269531 565.273438 485.195312 562.976562 C 479.308594 561.304688 475.078125 562.53125 470.988281 567.292969 C 465.6875 573.472656 459.632812 579.019531 453.757812 584.6875 C 451.386719 586.96875 450.457031 588.992188 451.625 592.460938 C 453.527344 598.113281 454.414062 604.09375 456.082031 609.832031 C 458.058594 616.628906 459.285156 623.988281 462.808594 629.9375 C 474.351562 649.425781 486.886719 668.320312 498.800781 687.597656 C 501.625 692.171875 503.9375 696.757812 504.402344 702.800781 C 505.042969 711.140625 501.230469 714.996094 494.890625 717.96875 C 491.601562 719.511719 487.769531 722.285156 484.769531 721.660156 C 468.472656 718.28125 452.367188 713.960938 436.171875 710.074219 C 423.761719 707.09375 411.402344 703.753906 398.394531 704.964844 C 392.488281 705.511719 386.519531 706.136719 380.621094 705.855469 C 375.691406 705.621094 373.550781 708.039062 372.011719 711.960938 C 370.011719 717.0625 368.542969 722.476562 365.839844 727.175781 C 360.996094 735.601562 359.210938 743.292969 367.757812 750.40625 C 367.964844 750.578125 367.871094 751.078125 368.058594 751.316406 C 375.117188 760.476562 381.550781 770.222656 389.441406 778.601562 C 397.757812 787.429688 407.476562 794.9375 416.566406 803.035156 C 422.710938 808.511719 428.632812 814.253906 435.023438 819.425781 C 440.039062 823.484375 445.609375 826.820312 445.710938 834.332031 C 445.765625 838.636719 447.273438 843.40625 445.882812 847.128906 C 444.128906 851.820312 440.128906 855.6875 436.988281 859.828125 C 436.519531 860.449219 435.480469 860.882812 434.664062 860.957031 C 426.652344 861.691406 418.636719 862.417969 410.613281 862.976562 C 399.765625 863.730469 388.910156 864.308594 378.058594 865.011719 C 373.300781 865.320312 368.371094 865.054688 363.832031 866.242188 C 352.136719 869.304688 340.667969 873.226562 328.992188 876.371094 C 325.335938 877.359375 324.980469 879.21875 324.914062 882.378906 C 324.785156 888.453125 324.539062 894.578125 323.617188 900.570312 C 322.546875 907.515625 321.542969 913.917969 329.324219 917.988281 C 332.015625 919.394531 334.035156 922.039062 336.488281 923.953125 C 343.421875 929.367188 349.839844 935.796875 357.503906 939.84375 C 379.449219 951.429688 401.929688 961.996094 424.136719 973.085938 C 425.878906 973.957031 427.777344 975.511719 428.515625 977.214844 C 430.941406 982.839844 433.199219 988.589844 434.851562 994.476562 C 435.671875 997.410156 435.417969 1000.8125 434.96875 1003.90625 C 434.113281 1009.835938 432.773438 1015.699219 431.578125 1021.871094 C 431.09375 1021.921875 430.417969 1021.851562 429.859375 1022.070312 C 413.644531 1028.464844 397.410156 1034.824219 381.238281 1041.332031 C 374.660156 1043.980469 367.691406 1046.15625 361.839844 1049.980469 C 353.410156 1055.492188 345.679688 1062.128906 338.019531 1068.714844 C 336.257812 1070.230469 334.84375 1073.6875 335.234375 1075.90625 C 336.882812 1085.300781 339.347656 1094.546875 341.339844 1103.886719 C 342.089844 1107.386719 343.488281 1109.390625 347.386719 1110.285156 C 352.050781 1111.359375 356.355469 1113.910156 360.949219 1115.417969 C 369.207031 1118.117188 377.441406 1121.066406 385.90625 1122.890625 C 395.121094 1124.878906 404.585938 1125.691406 413.941406 1127.046875 C 425.222656 1128.683594 436.558594 1130.039062 447.75 1132.167969 C 451.789062 1132.9375 456.882812 1131.441406 459.75 1136.269531 C 461.234375 1138.773438 463.335938 1140.90625 464.832031 1143.398438 C 468.660156 1149.773438 475.6875 1154.34375 475.582031 1162.980469 C 475.550781 1165.691406 476.550781 1168.410156 476.949219 1171.140625 C 477.949219 1178.039062 478.664062 1183.910156 471.550781 1189.484375 C 460.644531 1198.035156 451.285156 1208.558594 441.246094 1218.226562 C 440.550781 1218.898438 439.605469 1219.3125 438.933594 1220 C 433.765625 1225.308594 427.691406 1230.046875 423.71875 1236.144531 C 418.347656 1244.398438 414.375 1253.605469 410.308594 1262.632812 C 409.382812 1264.679688 409.738281 1268.097656 410.859375 1270.136719 C 415.839844 1279.183594 421.3125 1287.960938 426.707031 1297 C 436.5625 1297 446.558594 1296.941406 456.550781 1297.042969 C 459.132812 1297.066406 461.882812 1298.351562 464.253906 1297.785156 C 482.335938 1293.46875 500.324219 1288.765625 518.378906 1284.332031 C 524.785156 1282.761719 531.296875 1281.609375 538.289062 1280.847656 M 1426.496094 1559.003906 C 1443.886719 1545.28125 1461.71875 1532.074219 1478.511719 1517.65625 C 1490.394531 1507.460938 1500.839844 1495.597656 1511.988281 1484.535156 C 1514.011719 1482.527344 1514.667969 1480.960938 1512.8125 1478.179688 C 1501.308594 1460.925781 1490.011719 1443.53125 1478.675781 1426.164062 C 1470.472656 1413.597656 1462.308594 1401.003906 1454.988281 1389.746094 C 1464.835938 1374.640625 1474.464844 1360.425781 1483.46875 1345.828125 C 1487.90625 1338.636719 1487.386719 1338.308594 1495.179688 1340.058594 C 1526.296875 1347.039062 1557.414062 1354.019531 1588.523438 1361.015625 C 1595.730469 1362.636719 1595.964844 1362.773438 1598.886719 1356.222656 C 1607.503906 1336.90625 1616.726562 1317.808594 1624.191406 1298.050781 C 1633.195312 1274.203125 1640.703125 1249.785156 1648.601562 1225.53125 C 1649.09375 1224.023438 1647.917969 1221.054688 1646.558594 1220.011719 C 1639.34375 1214.472656 1631.914062 1209.199219 1624.394531 1204.070312 C 1604.1875 1190.296875 1583.863281 1176.695312 1563.710938 1162.839844 C 1562.296875 1161.867188 1560.945312 1159.15625 1561.25 1157.582031 C 1565.078125 1137.863281 1569.214844 1118.207031 1573.347656 1098.179688 C 1584.25 1096.222656 1596.085938 1094.238281 1607.859375 1091.953125 C 1629.664062 1087.726562 1651.441406 1083.363281 1673.195312 1078.882812 C 1674.300781 1078.65625 1675.800781 1076.863281 1675.886719 1075.707031 C 1677.054688 1060.273438 1678.761719 1044.828125 1678.84375 1029.375 C 1679.019531 995.949219 1678.320312 962.519531 1678.027344 929.089844 C 1678.003906 926.578125 1677.453125 925.335938 1674.511719 924.890625 C 1666.175781 923.632812 1657.914062 921.871094 1649.628906 920.277344 C 1638.796875 918.199219 1627.988281 916.027344 1617.144531 914.019531 C 1603.460938 911.488281 1589.757812 909.085938 1576.46875 906.703125 C 1575.601562 900.894531 1574.792969 895.566406 1574.007812 890.234375 C 1571.679688 874.457031 1569.265625 858.6875 1567.167969 842.878906 C 1566.9375 841.140625 1567.976562 838.363281 1569.355469 837.40625 C 1597.058594 818.175781 1624.839844 799.050781 1652.800781 780.195312 C 1656.003906 778.035156 1656.644531 775.546875 1655.875 772.765625 C 1649.734375 750.523438 1643.671875 728.246094 1636.941406 706.175781 C 1632.28125 690.898438 1626.667969 675.910156 1621.359375 660.835938 C 1618.640625 653.121094 1615.652344 645.503906 1612.730469 637.691406 C 1604.75 639.539062 1597.375 641.367188 1589.949219 642.9375 C 1561.425781 648.976562 1532.886719 654.949219 1504.339844 660.894531 C 1501.757812 661.433594 1499.992188 660.785156 1498.394531 658.042969 C 1487.714844 639.710938 1476.804688 621.515625 1465.78125 603.394531 C 1464.179688 600.761719 1464.21875 599.027344 1465.902344 596.511719 C 1487.792969 563.765625 1509.585938 530.949219 1531.363281 498.128906 C 1532.9375 495.753906 1533.824219 493.601562 1531.386719 490.675781 C 1519.871094 476.871094 1509.363281 462.15625 1497.15625 449.011719 C 1482.363281 433.078125 1466.269531 418.347656 1450.628906 403.207031 C 1447.714844 400.390625 1444.15625 398.25 1441.152344 395.511719 C 1439.09375 393.632812 1437.914062 393.953125 1435.746094 395.589844 C 1426.4375 402.636719 1416.863281 409.332031 1407.421875 416.207031 C 1392.4375 427.109375 1377.496094 438.070312 1362.511719 448.96875 C 1354.96875 454.453125 1347.367188 459.859375 1340.082031 465.089844 C 1337.472656 463.054688 1335.429688 461.421875 1333.34375 459.84375 C 1316.886719 447.390625 1300.511719 434.828125 1283.867188 422.632812 C 1281.175781 420.65625 1280.71875 419.066406 1281.34375 416.183594 C 1283.332031 406.992188 1285.136719 397.765625 1287 388.546875 C 1290.214844 372.652344 1293.46875 356.765625 1296.605469 340.855469 C 1297.941406 334.082031 1299.015625 327.257812 1300.289062 320 C 1297.761719 320 1295.953125 320 1294.148438 320 C 1110.988281 320 927.828125 320.003906 744.667969 319.996094 C 731.960938 319.996094 720.984375 324.625 712.160156 333.453125 C 679.226562 366.417969 646.535156 399.628906 613.769531 432.761719 C 613.023438 433.515625 612.484375 434.472656 611.609375 435.65625 C 626.050781 443.25 640.140625 450.554688 654.113281 458.082031 C 657.226562 459.761719 660.304688 461.847656 662.75 464.375 C 674.722656 476.734375 686.511719 489.273438 698.289062 501.820312 C 703.558594 507.4375 708.648438 513.226562 713.757812 518.867188 C 718.984375 517.964844 720.410156 514.867188 720.105469 509.773438 C 719.433594 498.53125 719.210938 487.257812 719.035156 475.992188 C 718.871094 465.332031 718.988281 454.660156 719.019531 443.996094 C 719.019531 443.03125 719.050781 441.957031 719.449219 441.113281 C 725.894531 427.5 732.375 413.898438 738.953125 400.347656 C 739.433594 399.363281 740.664062 398.238281 741.675781 398.09375 C 752.011719 396.621094 762.386719 395.4375 772.722656 393.964844 C 780.765625 392.816406 788.738281 391.09375 796.804688 390.238281 C 799.167969 389.988281 802.398438 391.144531 804.132812 392.808594 C 814.242188 402.488281 824.089844 412.441406 833.859375 422.464844 C 836.214844 424.882812 838.363281 427.703125 839.882812 430.707031 C 849.707031 450.121094 859.644531 469.492188 868.835938 489.203125 C 871.824219 495.609375 875.40625 497.96875 882.269531 497.179688 C 885.460938 496.808594 886.980469 495.777344 887.957031 493 C 894.585938 474.132812 901.207031 455.261719 907.992188 436.449219 C 908.894531 433.945312 910.261719 431.316406 912.140625 429.5 C 922.605469 419.402344 933.234375 409.480469 943.980469 399.683594 C 945.214844 398.554688 947.636719 397.863281 949.28125 398.175781 C 965.671875 401.308594 981.996094 404.800781 998.386719 407.945312 C 1003.488281 408.921875 1006.878906 410.808594 1009.199219 416.054688 C 1014.449219 427.921875 1020.707031 439.335938 1026.445312 450.992188 C 1027.28125 452.6875 1027.714844 454.660156 1027.960938 456.554688 C 1029.078125 465.132812 1029.960938 473.746094 1031.121094 482.320312 C 1032.652344 493.617188 1034.574219 504.867188 1035.917969 516.1875 C 1036.671875 522.535156 1037.949219 527.277344 1044.984375 530.226562 C 1063.3125 537.921875 1081.273438 546.523438 1099.1875 555.167969 C 1103.203125 557.105469 1106.710938 560.410156 1109.933594 563.605469 C 1113.398438 567.042969 1116.179688 571.160156 1119.390625 574.871094 C 1130.578125 587.78125 1141.820312 600.640625 1153.039062 613.527344 C 1166.523438 629.011719 1179.960938 644.539062 1193.496094 659.976562 C 1203.792969 671.726562 1214.238281 683.34375 1224.523438 695.101562 C 1225.386719 696.085938 1225.882812 697.691406 1225.941406 699.03125 C 1226.382812 709.121094 1226.753906 719.214844 1226.980469 729.308594 C 1227.382812 747.402344 1227.566406 765.5 1228.125 783.585938 C 1228.195312 785.894531 1229.523438 788.519531 1231.039062 790.359375 C 1235.847656 796.1875 1241.484375 801.371094 1245.964844 807.425781 C 1260.085938 826.496094 1268.863281 848.363281 1276.847656 870.417969 C 1287.183594 898.964844 1296.402344 927.917969 1306.296875 956.632812 C 1314.082031 979.226562 1324.527344 1000.601562 1337.898438 1020.398438 C 1350.796875 1039.496094 1363.929688 1058.457031 1377.671875 1076.949219 C 1387.691406 1090.421875 1398.792969 1103.101562 1409.570312 1116.003906 C 1416.097656 1123.824219 1423 1131.332031 1429.527344 1139.152344 C 1430.453125 1140.257812 1430.832031 1142.507812 1430.414062 1143.925781 C 1428.828125 1149.335938 1426.757812 1154.601562 1424.972656 1159.957031 C 1412.617188 1197.027344 1400.304688 1234.109375 1387.886719 1271.160156 C 1387.332031 1272.808594 1386.175781 1274.855469 1384.746094 1275.523438 C 1371.144531 1281.851562 1356.59375 1284.769531 1341.757812 1284.792969 C 1329.820312 1284.8125 1317.808594 1283.523438 1305.960938 1281.871094 C 1291.828125 1279.898438 1277.816406 1277.027344 1263.792969 1274.34375 C 1251.445312 1271.980469 1239.09375 1270.324219 1226.613281 1273.035156 C 1214.164062 1275.742188 1204.675781 1287.304688 1204.84375 1300.054688 C 1205.296875 1335.214844 1205.207031 1370.386719 1204.882812 1405.546875 C 1204.773438 1417.023438 1208.980469 1426.683594 1215.816406 1435.0625 C 1223.769531 1444.808594 1232.269531 1454.257812 1241.53125 1462.742188 C 1252.480469 1472.773438 1264.234375 1481.992188 1276.117188 1490.925781 C 1294.671875 1504.875 1313.613281 1518.304688 1332.417969 1531.917969 C 1352.28125 1546.296875 1372.234375 1560.558594 1392.003906 1575.070312 C 1394.886719 1577.1875 1397.132812 1577.324219 1399.953125 1575.574219 C 1408.605469 1570.195312 1417.296875 1564.867188 1426.496094 1559.003906 Z M 1426.496094 1559.003906 "/>
<path style=" stroke:none;fill-rule:nonzero;fill:rgb(100%,82.352941%,0%);fill-opacity:1;" d="M 538.027344 1280.554688 C 531.296875 1281.609375 524.785156 1282.761719 518.378906 1284.332031 C 500.324219 1288.765625 482.335938 1293.46875 464.253906 1297.785156 C 461.882812 1298.351562 459.132812 1297.066406 456.550781 1297.042969 C 446.558594 1296.941406 436.5625 1297 426.707031 1297 C 421.3125 1287.960938 415.839844 1279.183594 410.859375 1270.136719 C 409.738281 1268.097656 409.382812 1264.679688 410.308594 1262.632812 C 414.375 1253.605469 418.347656 1244.398438 423.71875 1236.144531 C 427.691406 1230.046875 433.765625 1225.308594 438.933594 1220 C 439.605469 1219.3125 440.550781 1218.898438 441.246094 1218.226562 C 451.285156 1208.558594 460.644531 1198.035156 471.550781 1189.484375 C 478.664062 1183.910156 477.949219 1178.039062 476.949219 1171.140625 C 476.550781 1168.410156 475.550781 1165.691406 475.582031 1162.980469 C 475.6875 1154.34375 468.660156 1149.773438 464.832031 1143.398438 C 463.335938 1140.90625 461.234375 1138.773438 459.75 1136.269531 C 456.882812 1131.441406 451.789062 1132.9375 447.75 1132.167969 C 436.558594 1130.039062 425.222656 1128.683594 413.941406 1127.046875 C 404.585938 1125.691406 395.121094 1124.878906 385.90625 1122.890625 C 377.441406 1121.066406 369.207031 1118.117188 360.949219 1115.417969 C 356.355469 1113.910156 352.050781 1111.359375 347.386719 1110.285156 C 343.488281 1109.390625 342.089844 1107.386719 341.339844 1103.886719 C 339.347656 1094.546875 336.882812 1085.300781 335.234375 1075.90625 C 334.84375 1073.6875 336.257812 1070.230469 338.019531 1068.714844 C 345.679688 1062.128906 353.410156 1055.492188 361.839844 1049.980469 C 367.691406 1046.15625 374.660156 1043.980469 381.238281 1041.332031 C 397.410156 1034.824219 413.644531 1028.464844 429.859375 1022.070312 C 430.417969 1021.851562 431.09375 1021.921875 431.578125 1021.871094 C 432.773438 1015.699219 434.113281 1009.835938 434.96875 1003.90625 C 435.417969 1000.8125 435.671875 997.410156 434.851562 994.476562 C 433.199219 988.589844 430.941406 982.839844 428.515625 977.214844 C 427.777344 975.511719 425.878906 973.957031 424.136719 973.085938 C 401.929688 961.996094 379.449219 951.429688 357.503906 939.84375 C 349.839844 935.796875 343.421875 929.367188 336.488281 923.953125 C 334.035156 922.039062 332.015625 919.394531 329.324219 917.988281 C 321.542969 913.917969 322.546875 907.515625 323.617188 900.570312 C 324.539062 894.578125 324.785156 888.453125 324.914062 882.378906 C 324.980469 879.21875 325.335938 877.359375 328.992188 876.371094 C 340.667969 873.226562 352.136719 869.304688 363.832031 866.242188 C 368.371094 865.054688 373.300781 865.320312 378.058594 865.011719 C 388.910156 864.308594 399.765625 863.730469 410.613281 862.976562 C 418.636719 862.417969 426.652344 861.691406 434.664062 860.957031 C 435.480469 860.882812 436.519531 860.449219 436.988281 859.828125 C 440.128906 855.6875 444.128906 851.820312 445.882812 847.128906 C 447.273438 843.40625 445.765625 838.636719 445.710938 834.332031 C 445.609375 826.820312 440.039062 823.484375 435.023438 819.425781 C 428.632812 814.253906 422.710938 808.511719 416.566406 803.035156 C 407.476562 794.9375 397.757812 787.429688 389.441406 778.601562 C 381.550781 770.222656 375.117188 760.476562 368.058594 751.316406 C 367.871094 751.078125 367.964844 750.578125 367.757812 750.40625 C 359.210938 743.292969 360.996094 735.601562 365.839844 727.175781 C 368.542969 722.476562 370.011719 717.0625 372.011719 711.960938 C 373.550781 708.039062 375.691406 705.621094 380.621094 705.855469 C 386.519531 706.136719 392.488281 705.511719 398.394531 704.964844 C 411.402344 703.753906 423.761719 707.09375 436.171875 710.074219 C 452.367188 713.960938 468.472656 718.28125 484.769531 721.660156 C 487.769531 722.285156 491.601562 719.511719 494.890625 717.96875 C 501.230469 714.996094 505.042969 711.140625 504.402344 702.800781 C 503.9375 696.757812 501.625 692.171875 498.800781 687.597656 C 486.886719 668.320312 474.351562 649.425781 462.808594 629.9375 C 459.285156 623.988281 458.058594 616.628906 456.082031 609.832031 C 454.414062 604.09375 453.527344 598.113281 451.625 592.460938 C 450.457031 588.992188 451.386719 586.96875 453.757812 584.6875 C 459.632812 579.019531 465.6875 573.472656 470.988281 567.292969 C 475.078125 562.53125 479.308594 561.304688 485.195312 562.976562 C 493.269531 565.273438 501.820312 566.210938 509.566406 569.261719 C 516.527344 572.003906 522.773438 576.664062 529.167969 580.738281 C 545.289062 590.996094 561.269531 601.476562 577.441406 611.648438 C 579.125 612.707031 581.738281 612.285156 583.921875 612.53125 C 584.054688 612.546875 584.210938 612.296875 584.351562 612.300781 C 595.242188 612.722656 600.34375 605.441406 603.359375 596.761719 C 604.464844 593.570312 602.824219 589.148438 601.722656 585.507812 C 596.289062 567.582031 590.785156 549.675781 584.964844 531.875 C 581.234375 520.472656 579.707031 509.074219 581.871094 497.140625 C 582.632812 492.945312 581.71875 488.46875 582.132812 484.175781 C 582.308594 482.375 583.511719 479.96875 584.984375 479.113281 C 593.394531 474.238281 601.957031 469.613281 610.644531 465.25 C 612.363281 464.386719 615.199219 464.300781 616.914062 465.121094 C 626.121094 469.527344 635.816406 473.386719 644.015625 479.28125 C 651.5625 484.707031 657.4375 492.464844 664.039062 499.207031 C 664.726562 499.910156 665.285156 500.738281 665.96875 501.445312 C 676.941406 512.773438 688.28125 523.773438 698.722656 535.566406 C 702.863281 540.242188 706.972656 541.574219 712.671875 541.078125 C 716.621094 540.738281 720.707031 541.621094 724.589844 541.023438 C 726.972656 540.652344 729.179688 538.65625 731.285156 537.136719 C 733.535156 535.515625 735.488281 533.492188 737.710938 531.828125 C 740.898438 529.449219 742.199219 526.6875 742.136719 522.433594 C 741.832031 502.441406 742.3125 482.433594 741.863281 462.441406 C 741.648438 452.816406 744.054688 444.144531 748.054688 435.664062 C 749.574219 432.441406 751.328125 429.289062 752.472656 425.933594 C 754.199219 420.886719 757.214844 418.8125 762.738281 418.46875 C 771.992188 417.886719 781.167969 416.152344 790.398438 415.070312 C 791.71875 414.914062 793.601562 415.234375 794.457031 416.09375 C 801.464844 423.152344 809.253906 429.710938 814.917969 437.753906 C 821.308594 446.832031 825.941406 457.1875 830.972656 467.171875 C 838.488281 482.074219 845.640625 497.160156 853.101562 512.09375 C 853.742188 513.371094 855.410156 514.464844 856.835938 514.953125 C 861.261719 516.472656 865.910156 517.371094 870.273438 519.035156 C 879.875 522.703125 889.277344 519.675781 898.746094 518.632812 C 900.683594 518.417969 902.59375 518 904.339844 517.703125 C 912.890625 493.824219 921.148438 469.882812 930.195312 446.242188 C 931.945312 441.664062 936.6875 438.179688 940.226562 434.351562 C 941.757812 432.691406 944.199219 431.753906 945.417969 429.941406 C 949.773438 423.457031 955.597656 423.394531 962.3125 425.023438 C 970.179688 426.929688 978.1875 428.25 986.074219 430.085938 C 987.675781 430.460938 989.636719 431.65625 990.367188 433.035156 C 995.078125 441.929688 1000.089844 450.75 1003.785156 460.074219 C 1006 465.671875 1006.089844 472.132812 1006.980469 478.226562 C 1008.652344 489.671875 1010.265625 501.125 1011.800781 512.585938 C 1012.949219 521.167969 1013.839844 529.785156 1015.089844 538.351562 C 1015.324219 539.960938 1016.332031 542.195312 1017.617188 542.800781 C 1029.457031 548.386719 1041.457031 553.625 1053.363281 559.070312 C 1062.339844 563.179688 1071.023438 568.050781 1080.242188 571.492188 C 1090.609375 575.359375 1096.664062 583.761719 1103.597656 591.300781 C 1109.710938 597.953125 1115.414062 604.980469 1121.324219 611.820312 C 1132.066406 624.246094 1142.792969 636.683594 1153.589844 649.058594 C 1159.21875 655.503906 1165.011719 661.800781 1170.691406 668.203125 C 1180.933594 679.746094 1191.179688 691.289062 1201.3125 702.929688 C 1202.285156 704.050781 1202.492188 705.859375 1202.976562 707.375 C 1203.121094 707.832031 1202.992188 708.371094 1203 708.871094 C 1203.332031 727.460938 1203.617188 746.054688 1204.019531 764.644531 C 1204.246094 775.246094 1204.589844 785.84375 1205.089844 796.429688 C 1205.160156 797.886719 1206.074219 799.753906 1207.214844 800.636719 C 1225.34375 814.699219 1236.8125 833.460938 1245.050781 854.402344 C 1251.070312 869.710938 1256.800781 885.148438 1262.242188 900.675781 C 1270.03125 922.921875 1277.039062 945.445312 1285.097656 967.589844 C 1297.867188 1002.671875 1315.007812 1035.488281 1338.355469 1064.808594 C 1351.304688 1081.066406 1364.527344 1097.105469 1377.710938 1113.175781 C 1386.011719 1123.292969 1394.574219 1133.199219 1402.722656 1143.4375 C 1403.886719 1144.902344 1404.15625 1147.953125 1403.53125 1149.839844 C 1391.886719 1185.09375 1380.054688 1220.28125 1368.171875 1255.457031 C 1367.828125 1256.476562 1366.625 1257.703125 1365.621094 1257.921875 C 1353.5625 1260.5625 1341.488281 1261.910156 1329.0625 1260.128906 C 1318.039062 1258.546875 1306.761719 1258.644531 1295.804688 1256.78125 C 1288.109375 1255.46875 1280.714844 1252.234375 1273.265625 1249.628906 C 1264.28125 1246.488281 1255.355469 1243.167969 1246.457031 1239.785156 C 1243.050781 1238.488281 1241.074219 1236.171875 1239.550781 1232.421875 C 1231.65625 1212.976562 1223.382812 1193.675781 1214.828125 1174.507812 C 1205.304688 1153.167969 1194.742188 1132.289062 1180.878906 1113.421875 C 1174.636719 1104.921875 1166.953125 1097.378906 1159.246094 1090.121094 C 1156.390625 1087.433594 1151.589844 1086.8125 1147.675781 1085.25 C 1147.398438 1085.703125 1147.121094 1086.15625 1146.84375 1086.609375 C 1165.109375 1140.46875 1183.378906 1194.328125 1201.742188 1248.46875 C 1187.492188 1252.371094 1173.945312 1254.773438 1160.160156 1253.882812 C 1142.636719 1252.75 1126.011719 1248.585938 1111.230469 1238.148438 C 1100.253906 1230.398438 1092.832031 1220.449219 1087.980469 1208.097656 C 1082.554688 1194.28125 1076.628906 1180.660156 1071 1166.921875 C 1063.289062 1148.113281 1055.714844 1129.246094 1047.898438 1110.480469 C 1047.164062 1108.714844 1045.21875 1106.296875 1043.691406 1106.183594 C 1027.683594 1105.019531 1012.328125 1101.09375 997.34375 1095.660156 C 981.347656 1089.863281 966.667969 1081.480469 953.9375 1070.234375 C 942.71875 1060.324219 931.714844 1050.027344 921.710938 1038.917969 C 910.488281 1026.457031 900.503906 1012.886719 889.972656 999.808594 C 880.878906 988.523438 871.773438 977.246094 861.117188 965.9375 C 859.078125 973.847656 856.722656 981.695312 855.105469 989.691406 C 853.910156 995.597656 853.25 1001.691406 853.121094 1007.714844 C 852.976562 1014.457031 853.0625 1021.324219 854.179688 1027.945312 C 856.367188 1040.882812 858.53125 1053.925781 862.199219 1066.488281 C 866.757812 1082.101562 872.09375 1097.578125 878.394531 1112.570312 C 892.75 1146.722656 911.53125 1178.5 933.03125 1208.613281 C 943.898438 1223.832031 955.402344 1238.605469 966.90625 1253.355469 C 988.410156 1280.9375 1012.644531 1306.058594 1037.867188 1330.183594 C 1052.847656 1344.511719 1068.605469 1358.039062 1084.238281 1371.667969 C 1096.707031 1382.539062 1109.332031 1393.257812 1122.230469 1403.613281 C 1136.449219 1415.03125 1151.019531 1426.015625 1165.511719 1437.089844 C 1183.632812 1450.941406 1201.753906 1464.796875 1220.015625 1478.464844 C 1236.292969 1490.640625 1252.738281 1502.585938 1269.144531 1514.589844 C 1285.007812 1526.191406 1300.945312 1537.6875 1316.789062 1549.316406 C 1333.828125 1561.816406 1350.792969 1574.417969 1367.792969 1586.96875 C 1369.875 1588.503906 1371.992188 1589.988281 1374.71875 1591.949219 C 1371.984375 1593.8125 1369.808594 1595.726562 1367.292969 1596.9375 C 1343.375 1608.433594 1319.503906 1620.03125 1295.414062 1631.15625 C 1271.105469 1642.378906 1245.398438 1649.625 1219.421875 1655.632812 C 1205.980469 1658.742188 1192.152344 1660.449219 1178.402344 1661.855469 C 1165.289062 1663.199219 1152.007812 1664.316406 1138.875 1663.78125 C 1116.414062 1662.867188 1093.945312 1660.378906 1073.960938 1648.832031 C 1064.859375 1643.574219 1056.609375 1636.8125 1048.101562 1630.558594 C 1035.261719 1621.117188 1022.445312 1611.648438 1009.800781 1601.953125 C 1001.910156 1595.90625 994.25 1589.539062 986.65625 1583.109375 C 974.636719 1572.921875 962.375 1562.972656 950.90625 1552.1875 C 933.59375 1535.914062 916.679688 1519.199219 899.988281 1502.289062 C 890.855469 1493.042969 882.332031 1483.167969 873.882812 1473.28125 C 864.53125 1462.339844 855.085938 1451.417969 846.554688 1439.84375 C 832.6875 1421.03125 819.089844 1401.984375 806.230469 1382.480469 C 796.785156 1368.152344 788.507812 1353.042969 780.0625 1338.085938 C 767.074219 1315.089844 756.433594 1290.972656 746.8125 1266.40625 C 735.484375 1237.472656 726.226562 1207.894531 720.027344 1177.421875 C 716.789062 1161.527344 713.613281 1145.597656 711.160156 1129.566406 C 709.449219 1118.40625 708.582031 1107.070312 708.089844 1095.78125 C 707.117188 1073.441406 706.003906 1051.070312 706.226562 1028.726562 C 706.382812 1013.015625 708.597656 997.324219 709.992188 981.632812 C 710.730469 973.363281 711.683594 965.113281 712.554688 956.722656 C 712.152344 957.226562 711.585938 957.746094 711.25 958.390625 C 697.570312 984.882812 685.160156 1011.976562 676.921875 1040.667969 C 671.125 1060.847656 666.34375 1081.367188 662.171875 1101.953125 C 659.199219 1116.621094 657.117188 1131.59375 656.199219 1146.523438 C 654.769531 1169.828125 654.070312 1193.21875 654.226562 1216.5625 C 654.316406 1230.273438 656.355469 1244.003906 658.070312 1257.660156 C 660.074219 1273.648438 662.1875 1289.652344 665.160156 1305.480469 C 667.875 1319.933594 671.414062 1334.265625 675.300781 1348.457031 C 679.34375 1363.214844 683.777344 1377.90625 688.878906 1392.328125 C 695.222656 1410.261719 701.902344 1428.117188 709.402344 1445.59375 C 717.691406 1464.914062 726.261719 1484.195312 736.179688 1502.707031 C 748.703125 1526.082031 762.394531 1548.859375 776.210938 1571.511719 C 784.550781 1585.183594 793.597656 1598.5 803.222656 1611.300781 C 813.625 1625.136719 824.929688 1638.3125 836.125 1651.53125 C 841.570312 1657.960938 847.429688 1664.085938 853.539062 1669.886719 C 858.613281 1674.703125 864.339844 1678.835938 869.757812 1683.296875 C 870.496094 1683.90625 871.097656 1684.683594 872.714844 1686.386719 C 868.777344 1685.71875 866.078125 1685.550781 863.554688 1684.789062 C 840.835938 1677.917969 817.96875 1671.476562 795.496094 1663.871094 C 766.644531 1654.101562 738.988281 1641.382812 712.15625 1626.976562 C 690.398438 1615.289062 669.707031 1601.8125 650.300781 1586.582031 C 632.757812 1572.8125 616.746094 1557.300781 601.917969 1540.546875 C 584.109375 1520.421875 569.378906 1498.308594 557.707031 1474.179688 C 547.511719 1453.101562 540.035156 1431.09375 536.992188 1407.746094 C 536.335938 1402.738281 535.199219 1397.734375 535.15625 1392.722656 C 535.128906 1388.949219 535.773438 1384.820312 537.371094 1381.445312 C 544.328125 1366.777344 551.699219 1352.296875 559.023438 1337.804688 C 561.800781 1332.308594 565.101562 1327.070312 567.664062 1321.484375 C 568.535156 1319.578125 568.578125 1316.695312 567.792969 1314.742188 C 565.800781 1309.785156 563.855469 1304.5 560.539062 1300.457031 C 556.144531 1295.101562 550.527344 1290.734375 545.308594 1286.082031 C 543.136719 1284.148438 540.640625 1282.578125 538.027344 1280.554688 M 1113.332031 870.066406 C 1119.726562 872.445312 1126.125 874.824219 1133.429688 877.535156 C 1127.394531 863.859375 1121.828125 851.308594 1116.316406 838.734375 C 1109.132812 822.339844 1102.023438 805.910156 1094.804688 789.527344 C 1093.4375 786.417969 1092.078125 783.953125 1087.871094 782.742188 C 1063.132812 775.617188 1041.964844 762.328125 1024.238281 743.675781 C 1017.269531 736.347656 1010.652344 728.683594 1003.554688 720.8125 C 1002.71875 722.117188 1001.75 723.367188 1001.054688 724.753906 C 990.664062 745.492188 992.082031 766.277344 1001.445312 786.796875 C 1008.167969 801.542969 1018.242188 813.753906 1030.636719 824.316406 C 1043.335938 835.136719 1056.867188 844.621094 1071.824219 851.871094 C 1085.183594 858.34375 1098.945312 863.988281 1113.332031 870.066406 M 1317.996094 1151.285156 C 1313.816406 1169.839844 1300.539062 1178.648438 1282.941406 1183.386719 C 1297.875 1190.515625 1312.273438 1197.457031 1326.777344 1204.175781 C 1327.785156 1204.640625 1330.148438 1203.871094 1330.917969 1202.90625 C 1339.199219 1192.53125 1341.90625 1180.078125 1341.753906 1167.371094 C 1341.617188 1156.234375 1339.40625 1145.128906 1333.070312 1135.390625 C 1329.519531 1129.929688 1325.648438 1124.871094 1319.058594 1121.761719 C 1319.058594 1124.585938 1319.140625 1126.875 1319.042969 1129.160156 C 1318.734375 1136.25 1318.359375 1143.335938 1317.996094 1151.285156 Z M 1317.996094 1151.285156 "/>
<path style=" stroke:none;fill-rule:nonzero;fill:rgb(100%,82.352941%,0%);fill-opacity:1;" d="M 1426.234375 1559.261719 C 1417.296875 1564.867188 1408.605469 1570.195312 1399.953125 1575.574219 C 1397.132812 1577.324219 1394.886719 1577.1875 1392.003906 1575.070312 C 1372.234375 1560.558594 1352.28125 1546.296875 1332.417969 1531.917969 C 1313.613281 1518.304688 1294.671875 1504.875 1276.117188 1490.925781 C 1264.234375 1481.992188 1252.480469 1472.773438 1241.53125 1462.742188 C 1232.269531 1454.257812 1223.769531 1444.808594 1215.816406 1435.0625 C 1208.980469 1426.683594 1204.773438 1417.023438 1204.882812 1405.546875 C 1205.207031 1370.386719 1205.296875 1335.214844 1204.84375 1300.054688 C 1204.675781 1287.304688 1214.164062 1275.742188 1226.613281 1273.035156 C 1239.09375 1270.324219 1251.445312 1271.980469 1263.792969 1274.34375 C 1277.816406 1277.027344 1291.828125 1279.898438 1305.960938 1281.871094 C 1317.808594 1283.523438 1329.820312 1284.8125 1341.757812 1284.792969 C 1356.59375 1284.769531 1371.144531 1281.851562 1384.746094 1275.523438 C 1386.175781 1274.855469 1387.332031 1272.808594 1387.886719 1271.160156 C 1400.304688 1234.109375 1412.617188 1197.027344 1424.972656 1159.957031 C 1426.757812 1154.601562 1428.828125 1149.335938 1430.414062 1143.925781 C 1430.832031 1142.507812 1430.453125 1140.257812 1429.527344 1139.152344 C 1423 1131.332031 1416.097656 1123.824219 1409.570312 1116.003906 C 1398.792969 1103.101562 1387.691406 1090.421875 1377.671875 1076.949219 C 1363.929688 1058.457031 1350.796875 1039.496094 1337.898438 1020.398438 C 1324.527344 1000.601562 1314.082031 979.226562 1306.296875 956.632812 C 1296.402344 927.917969 1287.183594 898.964844 1276.847656 870.417969 C 1268.863281 848.363281 1260.085938 826.496094 1245.964844 807.425781 C 1241.484375 801.371094 1235.847656 796.1875 1231.039062 790.359375 C 1229.523438 788.519531 1228.195312 785.894531 1228.125 783.585938 C 1227.566406 765.5 1227.382812 747.402344 1226.980469 729.308594 C 1226.753906 719.214844 1226.382812 709.121094 1225.941406 699.03125 C 1225.882812 697.691406 1225.386719 696.085938 1224.523438 695.101562 C 1214.238281 683.34375 1203.792969 671.726562 1193.496094 659.976562 C 1179.960938 644.539062 1166.523438 629.011719 1153.039062 613.527344 C 1141.820312 600.640625 1130.578125 587.78125 1119.390625 574.871094 C 1116.179688 571.160156 1113.398438 567.042969 1109.933594 563.605469 C 1106.710938 560.410156 1103.203125 557.105469 1099.1875 555.167969 C 1081.273438 546.523438 1063.3125 537.921875 1044.984375 530.226562 C 1037.949219 527.277344 1036.671875 522.535156 1035.917969 516.1875 C 1034.574219 504.867188 1032.652344 493.617188 1031.121094 482.320312 C 1029.960938 473.746094 1029.078125 465.132812 1027.960938 456.554688 C 1027.714844 454.660156 1027.28125 452.6875 1026.445312 450.992188 C 1020.707031 439.335938 1014.449219 427.921875 1009.199219 416.054688 C 1006.878906 410.808594 1003.488281 408.921875 998.386719 407.945312 C 981.996094 404.800781 965.671875 401.308594 949.28125 398.175781 C 947.636719 397.863281 945.214844 398.554688 943.980469 399.683594 C 933.234375 409.480469 922.605469 419.402344 912.140625 429.5 C 910.261719 431.316406 908.894531 433.945312 907.992188 436.449219 C 901.207031 455.261719 894.585938 474.132812 887.957031 493 C 886.980469 495.777344 885.460938 496.808594 882.269531 497.179688 C 875.40625 497.96875 871.824219 495.609375 868.835938 489.203125 C 859.644531 469.492188 849.707031 450.121094 839.882812 430.707031 C 838.363281 427.703125 836.214844 424.882812 833.859375 422.464844 C 824.089844 412.441406 814.242188 402.488281 804.132812 392.808594 C 802.398438 391.144531 799.167969 389.988281 796.804688 390.238281 C 788.738281 391.09375 780.765625 392.816406 772.722656 393.964844 C 762.386719 395.4375 752.011719 396.621094 741.675781 398.09375 C 740.664062 398.238281 739.433594 399.363281 738.953125 400.347656 C 732.375 413.898438 725.894531 427.5 719.449219 441.113281 C 719.050781 441.957031 719.019531 443.03125 719.019531 443.996094 C 718.988281 454.660156 718.871094 465.332031 719.035156 475.992188 C 719.210938 487.257812 719.433594 498.53125 720.105469 509.773438 C 720.410156 514.867188 718.984375 517.964844 713.757812 518.867188 C 708.648438 513.226562 703.558594 507.4375 698.289062 501.820312 C 686.511719 489.273438 674.722656 476.734375 662.75 464.375 C 660.304688 461.847656 657.226562 459.761719 654.113281 458.082031 C 640.140625 450.554688 626.050781 443.25 611.609375 435.65625 C 612.484375 434.472656 613.023438 433.515625 613.769531 432.761719 C 646.535156 399.628906 679.226562 366.417969 712.160156 333.453125 C 720.984375 324.625 731.960938 319.996094 744.667969 319.996094 C 927.828125 320.003906 1110.988281 320 1294.148438 320 C 1295.953125 320 1297.761719 320 1300.289062 320 C 1299.015625 327.257812 1297.941406 334.082031 1296.605469 340.855469 C 1293.46875 356.765625 1290.214844 372.652344 1287 388.546875 C 1285.136719 397.765625 1283.332031 406.992188 1281.34375 416.183594 C 1280.71875 419.066406 1281.175781 420.65625 1283.867188 422.632812 C 1300.511719 434.828125 1316.886719 447.390625 1333.34375 459.84375 C 1335.429688 461.421875 1337.472656 463.054688 1340.082031 465.089844 C 1347.367188 459.859375 1354.96875 454.453125 1362.511719 448.96875 C 1377.496094 438.070312 1392.4375 427.109375 1407.421875 416.207031 C 1416.863281 409.332031 1426.4375 402.636719 1435.746094 395.589844 C 1437.914062 393.953125 1439.09375 393.632812 1441.152344 395.511719 C 1444.15625 398.25 1447.714844 400.390625 1450.628906 403.207031 C 1466.269531 418.347656 1482.363281 433.078125 1497.15625 449.011719 C 1509.363281 462.15625 1519.871094 476.871094 1531.386719 490.675781 C 1533.824219 493.601562 1532.9375 495.753906 1531.363281 498.128906 C 1509.585938 530.949219 1487.792969 563.765625 1465.902344 596.511719 C 1464.21875 599.027344 1464.179688 600.761719 1465.78125 603.394531 C 1476.804688 621.515625 1487.714844 639.710938 1498.394531 658.042969 C 1499.992188 660.785156 1501.757812 661.433594 1504.339844 660.894531 C 1532.886719 654.949219 1561.425781 648.976562 1589.949219 642.9375 C 1597.375 641.367188 1604.75 639.539062 1612.730469 637.691406 C 1615.652344 645.503906 1618.640625 653.121094 1621.359375 660.835938 C 1626.667969 675.910156 1632.28125 690.898438 1636.941406 706.175781 C 1643.671875 728.246094 1649.734375 750.523438 1655.875 772.765625 C 1656.644531 775.546875 1656.003906 778.035156 1652.800781 780.195312 C 1624.839844 799.050781 1597.058594 818.175781 1569.355469 837.40625 C 1567.976562 838.363281 1566.9375 841.140625 1567.167969 842.878906 C 1569.265625 858.6875 1571.679688 874.457031 1574.007812 890.234375 C 1574.792969 895.566406 1575.601562 900.894531 1576.46875 906.703125 C 1589.757812 909.085938 1603.460938 911.488281 1617.144531 914.019531 C 1627.988281 916.027344 1638.796875 918.199219 1649.628906 920.277344 C 1657.914062 921.871094 1666.175781 923.632812 1674.511719 924.890625 C 1677.453125 925.335938 1678.003906 926.578125 1678.027344 929.089844 C 1678.320312 962.519531 1679.019531 995.949219 1678.84375 1029.375 C 1678.761719 1044.828125 1677.054688 1060.273438 1675.886719 1075.707031 C 1675.800781 1076.863281 1674.300781 1078.65625 1673.195312 1078.882812 C 1651.441406 1083.363281 1629.664062 1087.726562 1607.859375 1091.953125 C 1596.085938 1094.238281 1584.25 1096.222656 1573.347656 1098.179688 C 1569.214844 1118.207031 1565.078125 1137.863281 1561.25 1157.582031 C 1560.945312 1159.15625 1562.296875 1161.867188 1563.710938 1162.839844 C 1583.863281 1176.695312 1604.1875 1190.296875 1624.394531 1204.070312 C 1631.914062 1209.199219 1639.34375 1214.472656 1646.558594 1220.011719 C 1647.917969 1221.054688 1649.09375 1224.023438 1648.601562 1225.53125 C 1640.703125 1249.785156 1633.195312 1274.203125 1624.191406 1298.050781 C 1616.726562 1317.808594 1607.503906 1336.90625 1598.886719 1356.222656 C 1595.964844 1362.773438 1595.730469 1362.636719 1588.523438 1361.015625 C 1557.414062 1354.019531 1526.296875 1347.039062 1495.179688 1340.058594 C 1487.386719 1338.308594 1487.90625 1338.636719 1483.46875 1345.828125 C 1474.464844 1360.425781 1464.835938 1374.640625 1454.988281 1389.746094 C 1462.308594 1401.003906 1470.472656 1413.597656 1478.675781 1426.164062 C 1490.011719 1443.53125 1501.308594 1460.925781 1512.8125 1478.179688 C 1514.667969 1480.960938 1514.011719 1482.527344 1511.988281 1484.535156 C 1500.839844 1495.597656 1490.394531 1507.460938 1478.511719 1517.65625 C 1461.71875 1532.074219 1443.886719 1545.28125 1426.234375 1559.261719 M 1484.996094 696.507812 C 1478.226562 683.429688 1471.59375 670.28125 1464.589844 657.332031 C 1462.960938 654.3125 1460.546875 651.128906 1457.660156 649.507812 C 1452.207031 646.457031 1446.21875 644.285156 1440.296875 642.191406 C 1438.679688 641.621094 1436.144531 642.054688 1434.648438 643.003906 C 1425.476562 648.808594 1416.648438 655.167969 1407.351562 660.753906 C 1403.625 662.996094 1401.890625 665.832031 1400.988281 669.707031 C 1400.335938 672.496094 1399.535156 675.25 1398.847656 677.847656 C 1395.023438 677.167969 1391.722656 676.425781 1388.378906 676.050781 C 1386.886719 675.886719 1385.03125 676.011719 1383.816406 676.773438 C 1374.355469 682.699219 1364.972656 688.761719 1355.640625 694.890625 C 1351.441406 697.644531 1348.085938 716.578125 1350.402344 720.992188 C 1358.0625 735.59375 1365.609375 750.265625 1372.886719 765.058594 C 1375.550781 770.472656 1391.59375 779.40625 1397.199219 777.894531 C 1397.507812 777.8125 1397.769531 777.566406 1398.074219 777.457031 C 1404.878906 774.964844 1411.589844 772.15625 1418.523438 770.085938 C 1426.488281 767.703125 1433.082031 764.207031 1435.25 755.386719 C 1435.460938 754.515625 1436.199219 753.769531 1436.90625 752.617188 C 1440.234375 754.085938 1443.386719 755.761719 1446.726562 756.839844 C 1448.734375 757.484375 1451.269531 757.871094 1453.175781 757.21875 C 1462.332031 754.101562 1471.210938 750.070312 1480.480469 747.390625 C 1486.988281 745.507812 1490.878906 742.269531 1491.761719 735.5625 C 1492.730469 728.226562 1496.75 721.082031 1492.816406 713.457031 C 1490.074219 708.140625 1487.609375 702.679688 1484.996094 696.507812 M 1519.089844 885.96875 C 1520.882812 883.320312 1522.929688 880.804688 1524.425781 877.996094 C 1527.988281 871.296875 1532.839844 864.933594 1531.007812 856.550781 C 1530.625 854.808594 1530.324219 853.042969 1530.007812 851.285156 C 1526.660156 832.609375 1523.425781 813.910156 1519.882812 795.269531 C 1519.171875 791.550781 1518.183594 787.191406 1515.742188 784.636719 C 1510.9375 779.605469 1505.109375 775.507812 1499.492188 771.3125 C 1498.355469 770.464844 1496.128906 770.40625 1494.640625 770.824219 C 1486.714844 773.058594 1478.871094 775.570312 1470.992188 777.960938 C 1449.820312 784.386719 1428.609375 790.691406 1407.503906 797.335938 C 1404.4375 798.304688 1401.09375 800.3125 1399.277344 802.847656 C 1396.59375 806.582031 1394.84375 811.105469 1393.328125 815.515625 C 1392.421875 818.136719 1392.125 821.28125 1392.59375 824.011719 C 1394.871094 837.269531 1397.867188 850.410156 1399.871094 863.703125 C 1401.164062 872.285156 1402.761719 879.957031 1410.125 885.988281 C 1415.410156 890.316406 1419.4375 893.277344 1427.269531 892.382812 C 1446.242188 890.214844 1465.433594 889.980469 1484.539062 889.011719 C 1492.289062 888.617188 1500.058594 888.46875 1507.800781 887.933594 C 1511.320312 887.691406 1514.792969 886.773438 1519.089844 885.96875 M 1350.527344 568.984375 C 1352.761719 566.742188 1355.183594 564.652344 1357.1875 562.222656 C 1359.6875 559.1875 1361.511719 559.753906 1363.9375 562.390625 C 1373.441406 572.742188 1383.144531 582.910156 1392.703125 593.21875 C 1395.863281 596.628906 1396.175781 603.628906 1393.160156 606.226562 C 1388.335938 610.382812 1383.371094 614.394531 1378.265625 618.191406 C 1374.171875 621.238281 1370.070312 620.390625 1367.132812 616.65625 C 1363.902344 612.554688 1360.675781 608.410156 1357.0625 604.65625 C 1349.4375 596.734375 1341.414062 589.191406 1333.839844 581.21875 C 1330.253906 577.445312 1325.953125 576.277344 1321.148438 576.027344 C 1318.320312 575.878906 1315.410156 576.40625 1312.664062 575.914062 C 1306.863281 574.882812 1303.171875 577.054688 1300.257812 582.027344 C 1298.460938 585.089844 1295.597656 587.515625 1293.25 590.257812 C 1285.347656 599.480469 1277.367188 608.640625 1269.679688 618.039062 C 1268.695312 619.238281 1268.394531 622.480469 1269.265625 623.457031 C 1272.535156 627.121094 1276.59375 630.066406 1280.039062 633.59375 C 1291.765625 645.605469 1303.527344 657.589844 1314.929688 669.90625 C 1319.953125 675.328125 1324.152344 681.519531 1328.738281 687.378906 C 1333.722656 683.683594 1338.035156 680.1875 1342.664062 677.1875 C 1345.007812 675.667969 1345.796875 674.714844 1343.84375 672.289062 C 1340.996094 668.75 1338.753906 664.691406 1335.722656 661.328125 C 1324.347656 648.699219 1312.757812 636.261719 1301.257812 623.742188 C 1300.726562 623.167969 1300.300781 622.5 1299.84375 621.90625 C 1305.21875 616.117188 1310.328125 610.496094 1315.566406 605.003906 C 1318.066406 602.382812 1324.425781 601.90625 1326.792969 604.332031 C 1334.207031 611.925781 1342.097656 619.183594 1348.558594 627.535156 C 1355.566406 636.589844 1362.949219 644.289062 1374.824219 645.90625 C 1378.84375 646.457031 1382.726562 648.378906 1386.929688 645.132812 C 1397.207031 637.191406 1407.90625 629.796875 1418.363281 622.082031 C 1420.796875 620.289062 1422.460938 618.113281 1422.105469 614.546875 C 1421.664062 610.089844 1422.472656 605.492188 1421.851562 601.078125 C 1421.351562 597.542969 1420.390625 593.417969 1418.136719 590.894531 C 1402.726562 573.648438 1387.023438 556.65625 1371.125 539.855469 C 1368.863281 537.46875 1365.167969 535.953125 1361.867188 535.148438 C 1356.832031 533.925781 1351.570312 533.402344 1346.375 533.144531 C 1344.367188 533.046875 1341.703125 533.921875 1340.339844 535.328125 C 1335.566406 540.257812 1331.230469 545.609375 1326.25 551.351562 C 1333.46875 557.769531 1340.34375 563.9375 1347.339844 569.972656 C 1347.765625 570.34375 1349.105469 569.664062 1350.527344 568.984375 M 1281.046875 512.601562 C 1263.734375 539.265625 1246.421875 565.929688 1228.816406 593.039062 C 1235.605469 597.703125 1242.09375 602.167969 1248.765625 606.75 C 1250.503906 604.28125 1251.734375 602.425781 1253.070312 600.652344 C 1267.539062 581.421875 1282.078125 562.246094 1296.492188 542.976562 C 1305.800781 530.53125 1314.851562 517.894531 1324.226562 505.503906 C 1325.964844 503.207031 1325.585938 501.6875 1323.730469 500.371094 C 1315.945312 494.84375 1308.078125 489.417969 1300.160156 484.082031 C 1298.957031 483.269531 1297.074219 482.390625 1295.910156 482.773438 C 1288.242188 485.292969 1280.6875 488.148438 1271.953125 491.308594 C 1278 495.378906 1282.953125 498.710938 1287.933594 502.058594 C 1285.664062 505.574219 1283.582031 508.792969 1281.046875 512.601562 Z M 1281.046875 512.601562 "/>
<path style=" stroke:none;fill-rule:nonzero;fill:rgb(0%,0%,0%);fill-opacity:1;" d="M 1112.929688 870.035156 C 1098.945312 863.988281 1085.183594 858.34375 1071.824219 851.871094 C 1056.867188 844.621094 1043.335938 835.136719 1030.636719 824.316406 C 1018.242188 813.753906 1008.167969 801.542969 1001.445312 786.796875 C 992.082031 766.277344 990.664062 745.492188 1001.054688 724.753906 C 1001.75 723.367188 1002.71875 722.117188 1003.554688 720.8125 C 1010.652344 728.683594 1017.269531 736.347656 1024.238281 743.675781 C 1041.964844 762.328125 1063.132812 775.617188 1087.871094 782.742188 C 1092.078125 783.953125 1093.4375 786.417969 1094.804688 789.527344 C 1102.023438 805.910156 1109.132812 822.339844 1116.316406 838.734375 C 1121.828125 851.308594 1127.394531 863.859375 1133.429688 877.535156 C 1126.125 874.824219 1119.726562 872.445312 1112.929688 870.035156 Z M 1112.929688 870.035156 "/>
<path style=" stroke:none;fill-rule:nonzero;fill:rgb(0%,0%,0%);fill-opacity:1;" d="M 1318.003906 1150.855469 C 1318.359375 1143.335938 1318.734375 1136.25 1319.042969 1129.160156 C 1319.140625 1126.875 1319.058594 1124.585938 1319.058594 1121.761719 C 1325.648438 1124.871094 1329.519531 1129.929688 1333.070312 1135.390625 C 1339.40625 1145.128906 1341.617188 1156.234375 1341.753906 1167.371094 C 1341.90625 1180.078125 1339.199219 1192.53125 1330.917969 1202.90625 C 1330.148438 1203.871094 1327.785156 1204.640625 1326.777344 1204.175781 C 1312.273438 1197.457031 1297.875 1190.515625 1282.941406 1183.386719 C 1300.539062 1178.648438 1313.816406 1169.839844 1318.003906 1150.855469 Z M 1318.003906 1150.855469 "/>
<path style=" stroke:none;fill-rule:nonzero;fill:rgb(0%,0%,0%);fill-opacity:1;" d="M 1485.007812 696.894531 C 1487.609375 702.679688 1490.074219 708.140625 1492.816406 713.457031 C 1496.75 721.082031 1492.730469 728.226562 1491.761719 735.5625 C 1490.878906 742.269531 1486.988281 745.507812 1480.480469 747.390625 C 1471.210938 750.070312 1462.332031 754.101562 1453.175781 757.21875 C 1451.269531 757.871094 1448.734375 757.484375 1446.726562 756.839844 C 1443.386719 755.761719 1440.234375 754.085938 1436.90625 752.617188 C 1436.199219 753.769531 1435.460938 754.515625 1435.25 755.386719 C 1433.082031 764.207031 1426.488281 767.703125 1418.523438 770.085938 C 1411.589844 772.15625 1404.878906 774.964844 1398.074219 777.457031 C 1397.769531 777.566406 1397.507812 777.8125 1397.199219 777.894531 C 1391.59375 779.40625 1375.550781 770.472656 1372.886719 765.058594 C 1365.609375 750.265625 1358.0625 735.59375 1350.402344 720.992188 C 1348.085938 716.578125 1351.441406 697.644531 1355.640625 694.890625 C 1364.972656 688.761719 1374.355469 682.699219 1383.816406 676.773438 C 1385.03125 676.011719 1386.886719 675.886719 1388.378906 676.050781 C 1391.722656 676.425781 1395.023438 677.167969 1398.847656 677.847656 C 1399.535156 675.25 1400.335938 672.496094 1400.988281 669.707031 C 1401.890625 665.832031 1403.625 662.996094 1407.351562 660.753906 C 1416.648438 655.167969 1425.476562 648.808594 1434.648438 643.003906 C 1436.144531 642.054688 1438.679688 641.621094 1440.296875 642.191406 C 1446.21875 644.285156 1452.207031 646.457031 1457.660156 649.507812 C 1460.546875 651.128906 1462.960938 654.3125 1464.589844 657.332031 C 1471.59375 670.28125 1478.226562 683.429688 1485.007812 696.894531 M 1467.007812 717.421875 C 1467.042969 714.769531 1467.953125 711.714844 1466.957031 709.53125 C 1462.261719 699.25 1457.109375 689.175781 1451.980469 679.097656 C 1450.113281 675.421875 1444.007812 672.8125 1441.171875 674.40625 C 1435.671875 677.503906 1430.339844 680.894531 1424.84375 683.988281 C 1421.515625 685.863281 1421.097656 688.941406 1422.378906 691.65625 C 1427.769531 703.050781 1433.378906 714.351562 1439.300781 725.476562 C 1440.851562 728.390625 1443.730469 730.074219 1447.65625 728.132812 C 1453.585938 725.203125 1459.746094 722.742188 1465.765625 719.996094 C 1466.324219 719.742188 1466.59375 718.847656 1467.007812 717.421875 M 1386.996094 705.503906 C 1384.167969 707.039062 1381.363281 708.625 1378.507812 710.101562 C 1374.03125 712.414062 1372.820312 715.59375 1375.027344 720.078125 C 1379.460938 729.066406 1384.046875 737.980469 1388.453125 746.980469 C 1390.296875 750.75 1393.257812 751.929688 1396.894531 750.515625 C 1402.4375 748.363281 1407.839844 745.828125 1413.234375 743.308594 C 1417.578125 741.273438 1419.195312 737.082031 1417.210938 732.71875 C 1413.9375 725.523438 1410.605469 718.34375 1406.980469 711.320312 C 1405.34375 708.144531 1403.503906 704.632812 1400.777344 702.558594 C 1395.996094 698.917969 1391.722656 702.589844 1386.996094 705.503906 Z M 1386.996094 705.503906 "/>
<path style=" stroke:none;fill-rule:nonzero;fill:rgb(0%,0%,0%);fill-opacity:1;" d="M 1518.6875 886.066406 C 1514.792969 886.773438 1511.320312 887.691406 1507.800781 887.933594 C 1500.058594 888.46875 1492.289062 888.617188 1484.539062 889.011719 C 1465.433594 889.980469 1446.242188 890.214844 1427.269531 892.382812 C 1419.4375 893.277344 1415.410156 890.316406 1410.125 885.988281 C 1402.761719 879.957031 1401.164062 872.285156 1399.871094 863.703125 C 1397.867188 850.410156 1394.871094 837.269531 1392.59375 824.011719 C 1392.125 821.28125 1392.421875 818.136719 1393.328125 815.515625 C 1394.84375 811.105469 1396.59375 806.582031 1399.277344 802.847656 C 1401.09375 800.3125 1404.4375 798.304688 1407.503906 797.335938 C 1428.609375 790.691406 1449.820312 784.386719 1470.992188 777.960938 C 1478.871094 775.570312 1486.714844 773.058594 1494.640625 770.824219 C 1496.128906 770.40625 1498.355469 770.464844 1499.492188 771.3125 C 1505.109375 775.507812 1510.9375 779.605469 1515.742188 784.636719 C 1518.183594 787.191406 1519.171875 791.550781 1519.882812 795.269531 C 1523.425781 813.910156 1526.660156 832.609375 1530.007812 851.285156 C 1530.324219 853.042969 1530.625 854.808594 1531.007812 856.550781 C 1532.839844 864.933594 1527.988281 871.296875 1524.425781 877.996094 C 1522.929688 880.804688 1520.882812 883.320312 1518.6875 886.066406 M 1479.996094 859.507812 C 1486.628906 858.671875 1493.246094 857.648438 1499.902344 857.0625 C 1504.726562 856.640625 1508.785156 852.472656 1507.941406 847.621094 C 1505.757812 835.011719 1503.382812 822.429688 1500.964844 809.859375 C 1500.242188 806.097656 1495.441406 802.421875 1492.507812 803.113281 C 1468.761719 808.738281 1445.011719 814.367188 1421.273438 820.035156 C 1416.597656 821.152344 1415.0625 824.027344 1415.976562 828.96875 C 1417.722656 838.363281 1419.316406 847.785156 1421.011719 857.191406 C 1422.414062 864.960938 1424.75 866.511719 1429.117188 866.003906 C 1435.121094 865.304688 1441.132812 864.667969 1447.132812 863.933594 C 1457.820312 862.632812 1468.503906 861.273438 1479.996094 859.507812 Z M 1479.996094 859.507812 "/>
<path style=" stroke:none;fill-rule:nonzero;fill:rgb(0%,0%,0%);fill-opacity:1;" d="M 1350.273438 569.226562 C 1349.105469 569.664062 1347.765625 570.34375 1347.339844 569.972656 C 1340.34375 563.9375 1333.46875 557.769531 1326.25 551.351562 C 1331.230469 545.609375 1335.566406 540.257812 1340.339844 535.328125 C 1341.703125 533.921875 1344.367188 533.046875 1346.375 533.144531 C 1351.570312 533.402344 1356.832031 533.925781 1361.867188 535.148438 C 1365.167969 535.953125 1368.863281 537.46875 1371.125 539.855469 C 1387.023438 556.65625 1402.726562 573.648438 1418.136719 590.894531 C 1420.390625 593.417969 1421.351562 597.542969 1421.851562 601.078125 C 1422.472656 605.492188 1421.664062 610.089844 1422.105469 614.546875 C 1422.460938 618.113281 1420.796875 620.289062 1418.363281 622.082031 C 1407.90625 629.796875 1397.207031 637.191406 1386.929688 645.132812 C 1382.726562 648.378906 1378.84375 646.457031 1374.824219 645.90625 C 1362.949219 644.289062 1355.566406 636.589844 1348.558594 627.535156 C 1342.097656 619.183594 1334.207031 611.925781 1326.792969 604.332031 C 1324.425781 601.90625 1318.066406 602.382812 1315.566406 605.003906 C 1310.328125 610.496094 1305.21875 616.117188 1299.84375 621.90625 C 1300.300781 622.5 1300.726562 623.167969 1301.257812 623.742188 C 1312.757812 636.261719 1324.347656 648.699219 1335.722656 661.328125 C 1338.753906 664.691406 1340.996094 668.75 1343.84375 672.289062 C 1345.796875 674.714844 1345.007812 675.667969 1342.664062 677.1875 C 1338.035156 680.1875 1333.722656 683.683594 1328.738281 687.378906 C 1324.152344 681.519531 1319.953125 675.328125 1314.929688 669.90625 C 1303.527344 657.589844 1291.765625 645.605469 1280.039062 633.59375 C 1276.59375 630.066406 1272.535156 627.121094 1269.265625 623.457031 C 1268.394531 622.480469 1268.695312 619.238281 1269.679688 618.039062 C 1277.367188 608.640625 1285.347656 599.480469 1293.25 590.257812 C 1295.597656 587.515625 1298.460938 585.089844 1300.257812 582.027344 C 1303.171875 577.054688 1306.863281 574.882812 1312.664062 575.914062 C 1315.410156 576.40625 1318.320312 575.878906 1321.148438 576.027344 C 1325.953125 576.277344 1330.253906 577.445312 1333.839844 581.21875 C 1341.414062 589.191406 1349.4375 596.734375 1357.0625 604.65625 C 1360.675781 608.410156 1363.902344 612.554688 1367.132812 616.65625 C 1370.070312 620.390625 1374.171875 621.238281 1378.265625 618.191406 C 1383.371094 614.394531 1388.335938 610.382812 1393.160156 606.226562 C 1396.175781 603.628906 1395.863281 596.628906 1392.703125 593.21875 C 1383.144531 582.910156 1373.441406 572.742188 1363.9375 562.390625 C 1361.511719 559.753906 1359.6875 559.1875 1357.1875 562.222656 C 1355.183594 564.652344 1352.761719 566.742188 1350.273438 569.226562 Z M 1350.273438 569.226562 "/>
<path style=" stroke:none;fill-rule:nonzero;fill:rgb(0%,0%,0%);fill-opacity:1;" d="M 1281.277344 512.304688 C 1283.582031 508.792969 1285.664062 505.574219 1287.933594 502.058594 C 1282.953125 498.710938 1278 495.378906 1271.953125 491.308594 C 1280.6875 488.148438 1288.242188 485.292969 1295.910156 482.773438 C 1297.074219 482.390625 1298.957031 483.269531 1300.160156 484.082031 C 1308.078125 489.417969 1315.945312 494.84375 1323.730469 500.371094 C 1325.585938 501.6875 1325.964844 503.207031 1324.226562 505.503906 C 1314.851562 517.894531 1305.800781 530.53125 1296.492188 542.976562 C 1282.078125 562.246094 1267.539062 581.421875 1253.070312 600.652344 C 1251.734375 602.425781 1250.503906 604.28125 1248.765625 606.75 C 1242.09375 602.167969 1235.605469 597.703125 1228.816406 593.039062 C 1246.421875 565.929688 1263.734375 539.265625 1281.277344 512.304688 Z M 1281.277344 512.304688 "/>
<path style=" stroke:none;fill-rule:nonzero;fill:rgb(100%,82.352941%,0%);fill-opacity:1;" d="M 1467.003906 717.835938 C 1466.59375 718.847656 1466.324219 719.742188 1465.765625 719.996094 C 1459.746094 722.742188 1453.585938 725.203125 1447.65625 728.132812 C 1443.730469 730.074219 1440.851562 728.390625 1439.300781 725.476562 C 1433.378906 714.351562 1427.769531 703.050781 1422.378906 691.65625 C 1421.097656 688.941406 1421.515625 685.863281 1424.84375 683.988281 C 1430.339844 680.894531 1435.671875 677.503906 1441.171875 674.40625 C 1444.007812 672.8125 1450.113281 675.421875 1451.980469 679.097656 C 1457.109375 689.175781 1462.261719 699.25 1466.957031 709.53125 C 1467.953125 711.714844 1467.042969 714.769531 1467.003906 717.835938 Z M 1467.003906 717.835938 "/>
<path style=" stroke:none;fill-rule:nonzero;fill:rgb(100%,82.352941%,0%);fill-opacity:1;" d="M 1387.304688 705.277344 C 1391.722656 702.589844 1395.996094 698.917969 1400.777344 702.558594 C 1403.503906 704.632812 1405.34375 708.144531 1406.980469 711.320312 C 1410.605469 718.34375 1413.9375 725.523438 1417.210938 732.71875 C 1419.195312 737.082031 1417.578125 741.273438 1413.234375 743.308594 C 1407.839844 745.828125 1402.4375 748.363281 1396.894531 750.515625 C 1393.257812 751.929688 1390.296875 750.75 1388.453125 746.980469 C 1384.046875 737.980469 1379.460938 729.066406 1375.027344 720.078125 C 1372.820312 715.59375 1374.03125 712.414062 1378.507812 710.101562 C 1381.363281 708.625 1384.167969 707.039062 1387.304688 705.277344 Z M 1387.304688 705.277344 "/>
<path style=" stroke:none;fill-rule:nonzero;fill:rgb(100%,82.352941%,0%);fill-opacity:1;" d="M 1479.589844 859.722656 C 1468.503906 861.273438 1457.820312 862.632812 1447.132812 863.933594 C 1441.132812 864.667969 1435.121094 865.304688 1429.117188 866.003906 C 1424.75 866.511719 1422.414062 864.960938 1421.011719 857.191406 C 1419.316406 847.785156 1417.722656 838.363281 1415.976562 828.96875 C 1415.0625 824.027344 1416.597656 821.152344 1421.273438 820.035156 C 1445.011719 814.367188 1468.761719 808.738281 1492.507812 803.113281 C 1495.441406 802.421875 1500.242188 806.097656 1500.964844 809.859375 C 1503.382812 822.429688 1505.757812 835.011719 1507.941406 847.621094 C 1508.785156 852.472656 1504.726562 856.640625 1499.902344 857.0625 C 1493.246094 857.648438 1486.628906 858.671875 1479.589844 859.722656 Z M 1479.589844 859.722656 "/>
</g>
</svg>
