<svg width="2000.0000000000002" height="2000.0000000000002" xmlns="http://www.w3.org/2000/svg" version="1.1" enable-background="new 0 0 2000 2000" xml:space="preserve">
 <g>
  <title>Layer 1</title>
  <path fill="#000000" d="m1112,2001c-370.66669,0 -740.83334,0 -1111,0c0,-666.66663 0,-1333.33331 0,-2000c666.66669,0 1333.33337,0 2000,0c0,666.66669 0,1333.33337 0,2000c-296.16663,0 -592.33337,0 -889,0m-573.70953,-720.15417c2.34869,1.73388 4.84625,3.30078 7.01648,5.23498c5.21911,4.65173 10.83795,9.02148 15.23181,14.37781c3.31671,4.04309 5.26074,9.32666 7.2547,14.28381c0.78515,1.95227 0.74365,4.83765 -0.1308,6.74317c-2.5625,5.58447 -5.86322,10.82409 -8.63959,16.31762c-7.32519,14.49439 -14.69348,28.97241 -21.65106,43.64343c-1.6001,3.37415 -2.24432,7.50245 -2.21442,11.27466c0.03986,5.01282 1.18018,10.01587 1.83332,15.02503c3.0448,23.34851 10.52246,45.35339 20.71807,66.43335c11.67005,24.12829 26.40076,46.24414 44.20917,66.36657c14.82703,16.75342 30.8382,32.26697 48.383,46.03516c19.4071,15.22974 40.09717,28.70728 61.85699,40.39356c26.83093,14.40954 54.48523,27.12841 83.33655,36.89428c22.47314,7.60681 45.34137,14.04968 68.06146,20.91931c2.52045,0.76209 5.22028,0.9314 9.15753,1.59961c-1.61761,-1.703 -2.21808,-2.4812 -2.95776,-3.09069c-5.41449,-4.46338 -11.14166,-8.5929 -16.21722,-13.41028c-6.11091,-5.8003 -11.97016,-11.92676 -17.41449,-18.35547c-11.19605,-13.22071 -22.4989,-26.39417 -32.90162,-40.23072c-9.625,-12.80212 -18.67065,-26.11621 -27.0119,-39.79016c-13.81744,-22.65087 -27.50616,-45.4281 -40.0321,-68.80407c-9.9184,-18.50989 -18.48694,-37.79407 -26.77588,-57.11145c-7.49896,-17.47657 -14.18036,-35.33191 -20.52466,-53.26697c-5.1018,-14.42285 -9.5329,-29.11255 -13.57532,-43.87183c-3.88696,-14.19128 -7.42626,-28.52392 -10.14166,-42.97778c-2.97339,-15.82715 -5.08703,-31.83203 -7.09173,-47.82007c-1.71198,-13.65307 -3.75208,-27.38538 -3.84302,-41.09448c-0.15491,-23.34583 0.54462,-46.73523 1.97406,-70.03955c0.91583,-14.93213 2.99695,-29.9043 5.96973,-44.5719c4.17205,-20.58447 8.95574,-41.10437 14.75115,-61.28626c8.23841,-28.6892 20.64753,-55.78277 34.33033,-82.27484c0.33288,-0.64453 0.9024,-1.16681 1.30169,-1.67047c-0.86956,8.39173 -1.82379,16.64227 -2.56005,24.91223c-1.39704,15.69062 -3.61158,31.38312 -3.76758,47.0918c-0.22174,22.34534 0.89166,44.71533 1.86389,67.05615c0.49133,11.29004 1.35931,22.62586 3.06933,33.78589c2.45624,16.0293 5.63068,31.95899 8.86689,47.85608c6.2027,30.46948 15.45691,60.04773 26.78723,88.9823c9.62048,24.56824 20.26153,48.68335 33.24756,71.67883c8.44745,14.95838 16.72607,30.06946 26.16955,44.39405c12.86029,19.50781 26.45899,38.55224 40.32385,57.36572c8.53022,11.57483 17.97541,22.49585 27.32807,33.43835c8.45062,9.88709 16.97412,19.75952 26.10449,29.00769c16.69476,16.91016 33.60913,33.62293 50.92029,49.89844c11.46948,10.78333 23.72815,20.73438 35.7514,30.91882c7.5907,6.42994 15.25019,12.79712 23.14344,18.84717c12.64501,9.69251 25.46179,19.16345 38.2987,28.60193c8.50818,6.25574 16.75842,13.0177 25.86145,18.27698c19.98511,11.54663 42.45398,14.03344 64.91126,14.94739c13.13549,0.53479 26.41418,-0.58106 39.52905,-1.92469c13.74927,-1.40869 27.57886,-3.11596 41.01941,-6.22338c25.97754,-6.00599 51.68347,-13.25318 75.99084,-24.47693c24.09143,-11.12403 47.96375,-22.72425 71.88172,-34.2201c2.51416,-1.20825 4.68872,-3.12304 7.42505,-4.98523c-2.72852,-1.96118 -4.84473,-3.44763 -6.92469,-4.98303c-17.00293,-12.54968 -33.96814,-25.15063 -51.00598,-37.65283c-15.84411,-11.62598 -31.78222,-23.12354 -47.64355,-34.7262c-16.40601,-12.00097 -32.85388,-23.94714 -49.12818,-36.12475c-18.26281,-13.66565 -36.38366,-27.52198 -54.5061,-41.37403c-14.49072,-11.07605 -29.06238,-22.057 -43.28125,-33.47473c-12.8988,-10.35803 -25.52039,-21.07629 -37.99121,-31.94873c-15.63232,-13.6289 -31.39087,-27.15429 -46.36975,-41.48242c-25.22272,-24.1272 -49.45722,-49.24841 -70.96247,-76.82715c-11.5025,-14.75097 -23.00781,-29.52356 -33.87377,-44.74194c-21.50196,-30.11475 -40.28064,-61.89282 -54.63697,-96.04541c-6.30102,-14.98987 -11.63745,-30.469 -16.19537,-46.08118c-3.66766,-12.56274 -5.83112,-25.60474 -8.01862,-38.54297c-1.11938,-6.6206 -1.20562,-13.48779 -1.06121,-20.22863c0.12915,-6.02607 0.78894,-12.11817 1.98504,-18.02509c1.61926,-7.99609 3.97443,-15.84314 6.01386,-23.75409c10.65442,11.31006 19.76104,22.58435 28.85186,33.87134c10.53351,13.07812 20.51856,26.6488 31.73835,39.10827c10.00573,11.11121 21.0097,21.40687 32.22992,31.31897c12.72747,11.2439 27.40826,19.62757 43.40551,25.42566c14.98352,5.43079 30.34015,9.35865 46.34613,10.52307c1.52918,0.11133 3.47278,2.5282 4.20948,4.29712c7.81396,18.76575 15.39062,37.63013 23.09838,56.44043c5.6294,13.73853 11.55518,27.35877 16.98182,41.17603c4.85071,12.35083 12.2738,22.29992 23.24829,30.04834c14.7832,10.43762 31.40674,14.60376 48.93066,15.73608c13.78516,0.89063 27.33325,-1.51001 41.58216,-5.41601c-18.36304,-54.13843 -36.63135,-107.99744 -54.89966,-161.85633c0.2782,-0.45385 0.55627,-0.90759 0.83435,-1.36132c3.91308,1.56372 8.71313,2.18518 11.56823,4.8728c7.70826,7.25598 15.39161,14.80151 21.63355,23.29822c13.86292,18.8706 24.42566,39.74804 33.9491,61.08752c8.55456,19.16785 16.82971,38.469 24.72546,57.91541c1.5227,3.75024 3.4989,6.06445 6.90637,7.36108c8.89637,3.38513 17.82166,6.70325 26.80603,9.84595c7.44886,2.60571 14.84278,5.8396 22.54102,7.15002c10.9563,1.86499 22.23486,1.76502 33.25464,3.34754c12.42614,1.7843 24.50305,0.43579 36.56152,-2.20398c1.00232,-0.21949 2.20532,-1.44886 2.54944,-2.46753c11.88232,-35.17334 23.71411,-70.36426 35.36108,-105.61597c0.62305,-1.88538 0.35572,-4.93713 -0.80969,-6.40112c-8.14929,-10.23804 -16.71277,-20.14466 -25.01343,-30.26428c-13.18176,-16.07032 -26.40588,-32.10914 -39.35327,-48.36756c-23.34741,-29.31848 -40.49035,-62.13403 -53.25976,-97.21887c-8.05909,-22.14343 -15.06543,-44.66785 -22.85572,-66.91217c-5.43823,-15.52832 -11.16943,-30.96405 -17.19116,-46.27539c-8.23511,-20.93866 -19.70447,-39.70258 -37.83398,-53.76227c-1.13965,-0.88391 -2.05689,-2.75238 -2.12574,-4.20782c-0.50024,-10.5882 -0.84204,-21.18616 -1.07068,-31.78449c-0.40112,-18.59094 -0.68554,-37.18433 -1.01757,-55.77673c-0.00891,-0.49988 0.11987,-1.03894 -0.02503,-1.4928c-0.48425,-1.51569 -0.68945,-3.32684 -1.66467,-4.44757c-10.13062,-11.64185 -20.37842,-23.18201 -30.62048,-34.7265c-5.67847,-6.4007 -11.47376,-12.6988 -17.09998,-19.14478c-10.80029,-12.37384 -21.52563,-24.81299 -32.26587,-37.23901c-5.91089,-6.83875 -11.6134,-13.86725 -17.72803,-20.5177c-6.93383,-7.54132 -12.98645,-15.94092 -23.35534,-19.81067c-9.21997,-3.4411 -17.90088,-8.31036 -26.87915,-12.41925c-11.9043,-5.44794 -23.90698,-10.68347 -35.74549,-16.26868c-1.28479,-0.60608 -2.29419,-2.84155 -2.52905,-4.4527c-1.24853,-8.56512 -2.13788,-17.18176 -3.28711,-25.76239c-1.5354,-11.46362 -3.14838,-22.91739 -4.82043,-34.36191c-0.89032,-6.09442 -0.98084,-12.55416 -3.1966,-18.15051c-3.69262,-9.32684 -8.70581,-18.14383 -13.4176,-27.04059c-0.73059,-1.37948 -2.68921,-2.57486 -4.2912,-2.94763c-7.88727,-1.83523 -15.89557,-3.15857 -23.76379,-5.06463c-6.7157,-1.62686 -12.53992,-1.564 -16.89459,4.91836c-1.21692,1.81146 -3.65845,2.75009 -5.19105,4.4097c-3.53668,3.82965 -8.27941,7.3128 -10.0324,11.89343c-9.04639,23.6388 -17.30451,47.57923 -25.85395,71.45999c-1.74438,0.29486 -3.65741,0.71582 -5.59332,0.92896c-9.47034,1.04272 -18.87128,4.07111 -28.47461,0.40302c-4.36127,-1.66584 -9.0116,-2.56153 -13.43658,-4.08094c-1.42664,-0.4898 -3.09436,-1.5852 -3.73291,-2.86285c-7.46192,-14.93012 -14.61365,-30.01587 -22.1283,-44.91879c-5.0343,-9.98374 -9.66437,-20.34199 -16.05615,-29.41944c-5.66242,-8.04162 -13.45258,-14.60092 -20.46088,-21.65826c-0.85553,-0.86154 -2.73718,-1.18161 -4.0581,-1.02649c-9.22974,1.08362 -18.40815,2.81872 -27.66236,3.39889c-5.51983,0.34604 -8.53863,2.41919 -10.26318,7.46573c-1.14655,3.3552 -2.89801,6.50663 -4.41821,9.73065c-3.9986,8.48001 -6.40802,17.15198 -6.19123,26.77906c0.4502,19.98874 -0.03283,39.99725 0.27136,59.99148c0.0647,4.25397 -1.23809,7.01349 -4.42449,9.39514c-2.22223,1.66102 -4.17682,3.6847 -6.42408,5.30652c-2.10522,1.51935 -4.3153,3.51721 -6.69867,3.88593c-3.88018,0.60034 -7.96777,-0.28571 -11.91577,0.05646c-5.69793,0.49389 -9.81054,-0.83594 -13.95056,-5.51209c-10.44159,-11.79413 -21.78125,-22.79303 -32.75122,-34.12003c-0.685,-0.70721 -1.24432,-1.53649 -1.93268,-2.23992c-6.59906,-6.74295 -12.47381,-14.49994 -20.02276,-19.9256c-8.19971,-5.89334 -17.89454,-9.75272 -27.1001,-14.15909c-1.7154,-0.82108 -4.552,-0.73553 -6.27045,0.12762c-8.68609,4.36289 -17.24951,8.99015 -25.65936,13.86396c-1.47504,0.85489 -2.67841,3.26162 -2.85205,5.06305c-0.41382,4.29339 0.50067,8.76916 -0.26074,12.96444c-2.1662,11.93494 -0.63617,23.32987 3.09277,34.73502c5.82013,17.8009 11.32306,35.70764 16.75561,53.63153c1.10395,3.64233 2.74488,8.06104 1.63697,11.25385c-3.01282,8.68188 -8.11444,15.96234 -19.00781,15.53887c-0.13959,-0.00537 -0.2956,0.24665 -0.42743,0.23175c-2.18409,-0.24548 -4.79786,0.17316 -6.48041,-0.88488c-16.17444,-10.17047 -32.15448,-20.64936 -48.27252,-30.91059c-6.39692,-4.07245 -12.64155,-8.73108 -19.60508,-11.47375c-7.74469,-3.0503 -16.29501,-3.99127 -24.37075,-6.2862c-5.88321,-1.67193 -10.11582,-0.44482 -14.20359,4.31763c-5.30301,6.17835 -11.3562,11.72559 -17.23385,17.3916c-2.36826,2.28302 -3.29776,4.30616 -2.12995,7.77674c1.90067,5.64874 2.78723,11.62988 4.45593,17.36779c1.97742,6.79963 3.20435,14.15686 6.72687,20.10559c11.54065,19.48963 24.07877,38.38593 35.99021,57.66065c2.82641,4.57367 5.13784,9.16028 5.6019,15.20264c0.64056,8.34021 -3.16889,12.19616 -9.51255,15.17114c-3.28848,1.54224 -7.12002,4.31293 -10.11776,3.69116c-16.29981,-3.38061 -32.40326,-7.69946 -48.60001,-11.58838c-12.4097,-2.97967 -24.76953,-6.31982 -37.77609,-5.10998c-5.90787,0.54944 -11.87485,1.17267 -17.77359,0.89172c-4.93158,-0.2348 -7.0712,2.18439 -8.61026,6.10742c-2.00113,5.10095 -3.46918,10.51355 -6.17173,15.21417c-4.84341,8.42438 -6.62878,16.11707 1.91715,23.22907c0.20798,0.17316 0.11584,0.67145 0.30133,0.91199c7.05966,9.15735 13.49399,18.90649 21.38498,27.28308c8.31634,8.82818 18.03339,16.33551 27.12436,24.43579c6.14364,5.47406 12.06726,11.21728 18.45541,16.38782c5.01666,4.06054 10.58548,7.39764 10.68674,14.90643c0.05807,4.30621 1.56384,9.07483 0.17358,12.79712c-1.75226,4.69177 -5.75375,8.55939 -8.89346,12.70013c-0.47025,0.62018 -1.50867,1.05457 -2.32501,1.1294c-8.01187,0.73394 -16.02634,1.46081 -24.05197,2.01855c-10.84555,0.75373 -21.70304,1.33417 -32.55243,2.03516c-4.7587,0.30743 -9.68915,0.04431 -14.22968,1.23236c-11.69461,3.06 -23.16223,6.9812 -34.83627,10.12927c-3.65805,0.98645 -4.01257,2.84711 -4.08036,6.00635c-0.13027,6.07495 -0.37597,12.19922 -1.29763,18.19177c-1.06809,6.94495 -2.07492,13.34577 5.70837,17.4159c2.69101,1.40716 4.71094,4.0512 7.16495,5.96691c6.93307,5.4123 13.34933,11.8443 21.01608,15.8913c21.94425,11.58362 44.42383,22.15119 66.63123,33.24176c1.74225,0.87012 3.64053,2.42304 4.37716,4.12891c2.42865,5.62433 4.68689,11.37225 6.33744,17.26141c0.82248,2.93463 0.56479,6.33527 0.11825,9.42725c-0.85678,5.93243 -2.19671,11.79504 -3.39056,17.96765c-0.48636,0.05041 -1.15979,-0.02124 -1.71823,0.19885c-16.21799,6.39258 -32.44934,12.75269 -48.62085,19.26135c-6.57791,2.64746 -13.54856,4.82215 -19.40125,8.64856c-8.42883,5.51075 -16.15924,12.14771 -23.819,18.73291c-1.76324,1.51575 -3.17416,4.974 -2.78503,7.19434c1.64633,9.39355 4.11435,18.64001 6.10718,27.97742c0.74719,3.50085 2.14584,5.50695 6.04303,6.40149c4.66687,1.07153 8.97116,3.62524 13.56597,5.12915c8.25467,2.70178 16.49024,5.64941 24.95356,7.4757c9.2149,1.98841 18.68231,2.80103 28.03527,4.15662c11.28244,1.63513 22.61945,2.99085 33.80878,5.11963c4.04047,0.7688 9.13632,-0.72766 12.00168,4.10254c1.48361,2.5011 3.58579,4.63391 5.08334,7.12817c3.82657,6.3739 10.85465,10.94531 10.74912,19.57984c-0.03317,2.7146 0.96725,5.42993 1.3649,8.16381c1.00311,6.89686 1.71551,12.76831 -5.39481,18.34143c-10.90893,8.55066 -20.26883,19.07654 -30.30514,28.74451c-0.69504,0.66956 -1.64194,1.08374 -2.31217,1.77197c-5.17041,5.30994 -11.2424,10.04529 -15.21478,16.14417c-5.37454,8.2522 -9.34433,17.46252 -13.41306,26.48901c-0.92297,2.04749 -0.56912,5.46399 0.55344,7.50354c4.9798,9.04761 10.45337,17.82361 15.84689,26.86304c9.85462,0 19.85007,-0.0603 29.84391,0.04138c2.57925,0.02625 5.33206,1.31006 7.70135,0.74414c18.08115,-4.3186 36.07031,-9.02026 54.12522,-13.45154c6.40814,-1.57263 12.91943,-2.72522 19.91223,-3.48815m888.20538,278.15661c17.38928,-13.72314 35.22302,-26.92859 52.01709,-41.34534c11.87976,-10.19799 22.32861,-22.0592 33.47363,-33.11999c2.02429,-2.00928 2.67993,-3.57788 0.8274,-6.3562c-11.50574,-17.25562 -22.8014,-34.65149 -34.13941,-52.01868c-8.20325,-12.56555 -16.3645,-25.15869 -23.68457,-36.41699c9.84753,-15.10547 19.4729,-29.32043 28.47827,-43.91785c4.43604,-7.19067 3.91919,-7.51892 11.71045,-5.77075c31.11658,6.98218 62.23352,13.96277 93.34656,20.96069c7.20703,1.6211 7.4386,1.75733 10.36108,-4.79443c8.61573,-19.31482 17.84155,-38.41333 25.30408,-58.17224c9.00647,-23.84717 16.51331,-48.26428 24.41284,-72.51807c0.49158,-1.50891 -0.68628,-4.47668 -2.04455,-5.52002c-7.21326,-5.54126 -14.64332,-10.81518 -22.16285,-15.94043c-20.20825,-13.77404 -40.53442,-27.37561 -60.68408,-41.23413c-1.41406,-0.97241 -2.76794,-3.68078 -2.46252,-5.25439c3.8269,-19.71875 7.96545,-39.37696 12.09692,-59.40357c10.9043,-1.95788 22.73804,-3.94348 34.51416,-6.22692c21.80371,-4.22779 43.58179,-8.59168 65.33496,-13.07081c1.10474,-0.22754 2.60437,-2.02026 2.6919,-3.177c1.16565,-15.43298 2.875,-30.87866 2.9563,-46.32898c0.1759,-33.4259 -0.52344,-66.85626 -0.81763,-100.28521c-0.02222,-2.51465 -0.57092,-3.75702 -3.51319,-4.20118c-8.33728,-1.2583 -16.59899,-3.02081 -24.88525,-4.61132c-10.82934,-2.07868 -21.64099,-4.25312 -32.48376,-6.25855c-13.68189,-2.53064 -27.3877,-4.93231 -40.67481,-7.31634c-0.86865,-5.80854 -1.67456,-11.13721 -2.46106,-16.46869c-2.32763,-15.77887 -4.74035,-31.54645 -6.83838,-47.35578c-0.23083,-1.73919 0.80713,-4.51458 2.18543,-5.47125c27.70483,-19.23077 55.4834,-38.35803 83.44543,-57.21167c3.20337,-2.15985 3.84351,-4.65027 3.0763,-7.42944c-6.14148,-22.24524 -12.20569,-44.52094 -18.93543,-66.59149c-4.65832,-15.27747 -10.27307,-30.26624 -15.58337,-45.34064c-2.71741,-7.71381 -5.70471,-15.33264 -8.62586,-23.14362c-7.98266,1.84632 -15.35522,3.67499 -22.78198,5.24726c-28.52502,6.03845 -57.06433,12.00909 -85.6084,17.95727c-2.58215,0.53815 -4.34851,-0.10876 -5.94763,-2.85413c-10.67749,-18.32922 -21.58813,-36.52435 -32.61426,-54.64666c-1.6018,-2.63263 -1.55908,-4.36646 0.12244,-6.88166c21.89172,-32.74749 43.68286,-65.56231 65.46069,-98.38574c1.57544,-2.37442 2.46192,-4.52493 0.02246,-7.45022c-11.51428,-13.80667 -22.02136,-28.51987 -34.22741,-41.66584c-14.79444,-15.93362 -30.88965,-30.66415 -46.53003,-45.80359c-2.91199,-2.81863 -6.47266,-4.95843 -9.47437,-7.69613c-2.05945,-1.87845 -3.24072,-1.56009 -5.40588,0.07855c-9.31006,7.04575 -18.88269,13.74371 -28.3252,20.61569c-14.98303,10.904 -29.92517,21.86441 -44.9115,32.76386c-7.54211,5.48523 -15.14355,10.88873 -22.427,16.12018c-2.61157,-2.03531 -4.65564,-3.66913 -6.74158,-5.24735c-16.45666,-12.45086 -32.83154,-25.01352 -49.47399,-37.21121c-2.69397,-1.97443 -3.14893,-3.56601 -2.52491,-6.44907c1.98877,-9.18896 3.79139,-18.41827 5.65503,-27.63415c3.21448,-15.89511 6.47095,-31.78199 9.60657,-47.69266c1.33484,-6.77304 2.40979,-13.59732 3.68311,-20.85556c-2.52808,0 -4.33435,0 -6.14063,0c-183.15942,0 -366.31879,0.00235 -549.47821,-0.00519c-12.70923,-0.00052 -23.68664,4.62967 -32.50922,13.46018c-32.93511,32.96481 -65.62664,66.17303 -98.39221,99.3071c-0.74518,0.75357 -1.28467,1.71054 -2.15777,2.8952c14.44232,7.59335 28.53155,14.89871 42.50171,22.42508c3.11608,1.67874 6.19256,3.76712 8.63995,6.29385c11.97174,12.35959 23.76172,24.89642 35.53754,37.44415c5.27063,5.61609 10.35754,11.40455 15.46734,17.04798c5.22815,-0.90332 6.65253,-4.00128 6.34839,-9.09671c-0.6709,-11.24103 -0.8941,-22.51422 -1.06903,-33.77783c-0.16553,-10.6637 -0.04669,-21.33198 -0.01831,-31.99814c0.00256,-0.96582 0.03137,-2.03833 0.43011,-2.88044c6.44599,-13.61557 12.92591,-27.21545 19.50617,-40.76641c0.47845,-0.98542 1.70978,-2.10953 2.72168,-2.25391c10.33563,-1.4747 20.71289,-2.6572 31.0487,-4.13055c8.04273,-1.14649 16.01343,-2.86899 24.08082,-3.72654c2.36431,-0.25131 5.59436,0.90851 7.32824,2.56934c10.10693,9.68063 19.95697,19.63437 29.72614,29.65918c2.35632,2.41803 4.50531,5.23773 6.02423,8.23971c9.8233,19.4148 19.75909,38.78504 28.9541,58.49817c2.98688,6.40351 6.57025,8.76618 13.42993,7.97437c3.19214,-0.36847 4.71405,-1.40067 5.68951,-4.17716c6.62897,-18.8677 13.25086,-37.7384 20.03302,-56.55114c0.90345,-2.50595 2.27021,-5.1344 4.15192,-6.95017c10.46228,-10.09601 21.09369,-20.02008 31.83637,-29.81756c1.23675,-1.12799 3.65912,-1.8198 5.30102,-1.50611c16.39331,3.1322 32.71765,6.62485 49.10883,9.76853c5.10144,0.97842 8.49072,2.86197 10.81134,8.10897c5.24817,11.86652 11.50867,23.2833 17.24505,34.9383c0.83496,1.69638 1.271,3.66827 1.51758,5.56137c1.11756,8.57996 1.99695,17.19153 3.15833,25.76511c1.53064,11.29971 3.45483,22.54959 4.79761,33.86981c0.7528,6.34625 2.03259,11.08807 9.06433,14.03967c18.33093,7.69446 36.29211,16.29584 54.20556,24.93982c4.01673,1.93817 7.52124,5.24182 10.74402,8.43866c3.46619,3.43805 6.24817,7.55518 9.4596,11.26251c11.18554,12.91217 22.42968,25.77332 33.64746,38.65741c13.48315,15.48596 26.92138,31.01123 40.4563,46.45178c10.29785,11.74774 20.74414,23.3653 31.02941,35.12391c0.86182,0.98522 1.35926,2.58764 1.41761,3.9298c0.43835,10.08832 0.81286,20.18134 1.0376,30.27662c0.40246,18.09185 0.58581,36.18939 1.14501,54.27581c0.07141,2.30811 1.39698,4.9339 2.91468,6.77491c4.80615,5.82959 10.44348,11.01294 14.92419,17.06451c14.12219,19.07343 22.89795,40.94019 30.88342,62.99378c10.33753,28.54895 19.55408,57.50195 29.44837,86.21374c7.78686,22.59662 18.2312,43.96966 31.60425,63.76752c12.89819,19.09515 26.02795,38.05975 39.77295,56.54852c10.01831,13.47571 21.12121,26.15247 31.8955,39.05615c6.52906,7.81958 13.42969,15.32898 19.95972,23.14759c0.92444,1.10681 1.30237,3.35827 0.88757,4.77331c-1.5863,5.41089 -3.65918,10.67664 -5.44433,16.03198c-12.35571,37.06934 -24.66529,74.1543 -37.08582,111.20191c-0.55359,1.651 -1.70825,3.69812 -3.13965,4.36426c-13.60241,6.32812 -28.15197,9.24792 -42.98681,9.27136c-11.93726,0.01892 -23.9502,-1.27002 -35.79773,-2.92371c-14.13196,-1.97241 -28.1438,-4.84436 -42.16919,-7.52844c-12.34607,-2.36292 -24.6991,-4.01673 -37.17713,-1.30603c-12.45092,2.70459 -21.93847,14.26855 -21.77307,27.0188c0.45642,35.1593 0.36511,70.33044 0.03943,105.49267c-0.10644,11.47583 4.09851,21.13758 10.93665,29.51599c7.95263,9.74402 16.45141,19.19349 25.71338,27.67884c10.94958,10.03137 22.7019,19.25024 34.58557,28.18383c18.55334,13.94764 37.49438,27.38001 56.29931,40.99207c19.86585,14.38013 39.81922,28.64038 59.58777,43.15283c2.88147,2.11524 5.12769,2.25489 7.94861,0.50183c8.6543,-5.37902 17.34216,-10.70422 26.54297,-16.57031z" id="svg_1"/>
  <path stroke-opacity="0" fill="#212121" d="m538.02612,1280.55518c-6.72845,1.05358 -13.23974,2.20617 -19.64788,3.7788c-18.05491,4.43128 -36.04407,9.13294 -54.12522,13.45154c-2.36929,0.56592 -5.1221,-0.71789 -7.70135,-0.74414c-9.99384,-0.10168 -19.98929,-0.04138 -29.84391,-0.04138c-5.39352,-9.03943 -10.86709,-17.81543 -15.84689,-26.86304c-1.12256,-2.03955 -1.47641,-5.45605 -0.55344,-7.50354c4.06873,-9.02649 8.03852,-18.23681 13.41306,-26.48901c3.97238,-6.09888 10.04437,-10.83423 15.21478,-16.14417c0.67023,-0.68823 1.61713,-1.10241 2.31217,-1.77197c10.03631,-9.66797 19.39621,-20.19385 30.30514,-28.74451c7.11032,-5.57312 6.39792,-11.44457 5.39481,-18.34143c-0.39765,-2.73388 -1.39807,-5.44921 -1.3649,-8.16381c0.10553,-8.63453 -6.92255,-13.20594 -10.74912,-19.57984c-1.49755,-2.49426 -3.59973,-4.62707 -5.08334,-7.12817c-2.86536,-4.8302 -7.96121,-3.33374 -12.00168,-4.10254c-11.18933,-2.12878 -22.52634,-3.4845 -33.80878,-5.11963c-9.35296,-1.35559 -18.82037,-2.16821 -28.03527,-4.15662c-8.46332,-1.82629 -16.69889,-4.77392 -24.95356,-7.4757c-4.59481,-1.50391 -8.8991,-4.05762 -13.56597,-5.12915c-3.89719,-0.89454 -5.29584,-2.90064 -6.04303,-6.40149c-1.99283,-9.33741 -4.46085,-18.58387 -6.10718,-27.97742c-0.38913,-2.22034 1.02179,-5.67859 2.78503,-7.19434c7.65976,-6.5852 15.39017,-13.22216 23.819,-18.73291c5.85269,-3.82641 12.82334,-6.0011 19.40125,-8.64856c16.17151,-6.50866 32.40286,-12.86877 48.62085,-19.26135c0.55844,-0.22009 1.23187,-0.14844 1.71823,-0.19885c1.19385,-6.17261 2.53378,-12.03522 3.39056,-17.96765c0.44654,-3.09198 0.70423,-6.49262 -0.11825,-9.42725c-1.65055,-5.88916 -3.90879,-11.63708 -6.33744,-17.26141c-0.73663,-1.70587 -2.63491,-3.25879 -4.37716,-4.12891c-22.2074,-11.09057 -44.68698,-21.65814 -66.63123,-33.24176c-7.66675,-4.047 -14.08301,-10.479 -21.01608,-15.8913c-2.45401,-1.91571 -4.47394,-4.55975 -7.16495,-5.96691c-7.78329,-4.07013 -6.77646,-10.47095 -5.70837,-17.4159c0.92166,-5.99255 1.16736,-12.11682 1.29763,-18.19177c0.06779,-3.15924 0.42231,-5.0199 4.08036,-6.00635c11.67404,-3.14807 23.14166,-7.06927 34.83627,-10.12927c4.54053,-1.18805 9.47098,-0.92493 14.22968,-1.23236c10.84939,-0.70099 21.70688,-1.28143 32.55243,-2.03516c8.02563,-0.55774 16.0401,-1.28461 24.05197,-2.01855c0.81634,-0.07483 1.85476,-0.50922 2.32501,-1.1294c3.13971,-4.14074 7.1412,-8.00836 8.89346,-12.70013c1.39026,-3.72229 -0.11551,-8.49091 -0.17358,-12.79712c-0.10126,-7.50879 -5.67008,-10.84589 -10.68674,-14.90643c-6.38815,-5.17054 -12.31177,-10.91376 -18.45541,-16.38782c-9.09097,-8.10028 -18.80802,-15.60761 -27.12436,-24.43579c-7.89099,-8.37659 -14.32532,-18.12573 -21.38498,-27.28308c-0.18549,-0.24054 -0.09335,-0.73883 -0.30133,-0.91199c-8.54593,-7.112 -6.76056,-14.80469 -1.91715,-23.22907c2.70255,-4.70062 4.1706,-10.11322 6.17173,-15.21417c1.53906,-3.92303 3.67868,-6.34222 8.61026,-6.10742c5.89874,0.28095 11.86572,-0.34228 17.77359,-0.89172c13.00656,-1.20984 25.36639,2.13031 37.77609,5.10998c16.19675,3.88892 32.3002,8.20777 48.60001,11.58838c2.99774,0.62177 6.82928,-2.14892 10.11776,-3.69116c6.34366,-2.97498 10.15311,-6.83093 9.51255,-15.17114c-0.46406,-6.04236 -2.77549,-10.62897 -5.6019,-15.20264c-11.91144,-19.27472 -24.44956,-38.17102 -35.99021,-57.66065c-3.52252,-5.94873 -4.74945,-13.30596 -6.72687,-20.10559c-1.6687,-5.73791 -2.55526,-11.71905 -4.45593,-17.36779c-1.16781,-3.47058 -0.23831,-5.49372 2.12995,-7.77674c5.87765,-5.66601 11.93084,-11.21325 17.23385,-17.3916c4.08777,-4.76245 8.32038,-5.98956 14.20359,-4.31763c8.07574,2.29493 16.62606,3.2359 24.37075,6.2862c6.96353,2.74267 13.20816,7.4013 19.60508,11.47375c16.11804,10.26123 32.09808,20.74012 48.27252,30.91059c1.68255,1.05804 4.29632,0.6394 6.48041,0.88488c0.13183,0.0149 0.28784,-0.23712 0.42743,-0.23175c10.89337,0.42347 15.99499,-6.85699 19.00781,-15.53887c1.10791,-3.19281 -0.53302,-7.61152 -1.63697,-11.25385c-5.43255,-17.92389 -10.93548,-35.83063 -16.75561,-53.63153c-3.72894,-11.40515 -5.25897,-22.80008 -3.09277,-34.73502c0.76141,-4.19528 -0.15308,-8.67105 0.26074,-12.96444c0.17364,-1.80143 1.37701,-4.20816 2.85205,-5.06305c8.40985,-4.87381 16.97327,-9.50107 25.65936,-13.86396c1.71845,-0.86315 4.55505,-0.9487 6.27045,-0.12762c9.20556,4.40637 18.90039,8.26575 27.1001,14.15909c7.54895,5.42566 13.4237,13.18265 20.02276,19.9256c0.68836,0.70343 1.24768,1.53271 1.93268,2.23992c10.96997,11.327 22.30963,22.3259 32.75122,34.12003c4.14002,4.67615 8.25263,6.00598 13.95056,5.51209c3.948,-0.34217 8.03559,0.54388 11.91577,-0.05646c2.38337,-0.36872 4.59345,-2.36658 6.69867,-3.88593c2.24726,-1.62182 4.20185,-3.6455 6.42408,-5.30652c3.1864,-2.38165 4.48919,-5.14117 4.42449,-9.39514c-0.30419,-19.99423 0.17884,-40.00274 -0.27136,-59.99148c-0.21679,-9.62708 2.19263,-18.29905 6.19123,-26.77906c1.5202,-3.22402 3.27166,-6.37545 4.41821,-9.73065c1.72455,-5.04654 4.74335,-7.11969 10.26318,-7.46573c9.25421,-0.58017 18.43262,-2.31527 27.66236,-3.39889c1.32092,-0.15512 3.20257,0.16495 4.0581,1.02649c7.0083,7.05734 14.79846,13.61664 20.46088,21.65826c6.39178,9.07745 11.02185,19.4357 16.05615,29.41944c7.51465,14.90292 14.66638,29.98867 22.1283,44.91879c0.63855,1.27765 2.30627,2.37305 3.73291,2.86285c4.42498,1.51941 9.07531,2.4151 13.43658,4.08094c9.60333,3.66809 19.00427,0.6397 28.47461,-0.40302c1.93591,-0.21314 3.84894,-0.6341 5.59332,-0.92896c8.54944,-23.88076 16.80756,-47.82119 25.85395,-71.45999c1.75299,-4.58063 6.49572,-8.06378 10.0324,-11.89343c1.5326,-1.65961 3.97413,-2.59824 5.19105,-4.4097c4.35467,-6.48236 10.17889,-6.54522 16.89459,-4.91836c7.86822,1.90606 15.87652,3.2294 23.76379,5.06463c1.60199,0.37277 3.56061,1.56815 4.2912,2.94763c4.71179,8.89676 9.72498,17.71375 13.4176,27.04059c2.21576,5.59635 2.30628,12.05609 3.1966,18.15051c1.67205,11.44452 3.28503,22.89829 4.82043,34.36191c1.14923,8.58063 2.03858,17.19727 3.28711,25.76239c0.23486,1.61115 1.24426,3.84662 2.52905,4.4527c11.83851,5.58521 23.84119,10.82074 35.74549,16.26868c8.97827,4.10889 17.65918,8.97815 26.87915,12.41925c10.36889,3.86975 16.42151,12.26935 23.35534,19.81067c6.11463,6.65045 11.81714,13.67895 17.72803,20.5177c10.74024,12.42602 21.46558,24.86517 32.26587,37.23901c5.62622,6.44598 11.42151,12.74408 17.09998,19.14478c10.24206,11.54449 20.48986,23.08465 30.62048,34.7265c0.97522,1.12073 1.18042,2.93188 1.66467,4.44757c0.1449,0.45386 0.01612,0.99292 0.02503,1.4928c0.33203,18.5924 0.61645,37.18579 1.01757,55.77673c0.22864,10.59833 0.57044,21.19629 1.07068,31.78449c0.06885,1.45544 0.98609,3.32391 2.12574,4.20782c18.12951,14.05969 29.59887,32.82361 37.83398,53.76227c6.02173,15.31134 11.75293,30.74707 17.19116,46.27539c7.79029,22.24432 14.79663,44.76874 22.85572,66.91217c12.76941,35.08484 29.91235,67.90039 53.25976,97.21887c12.94739,16.25842 26.17151,32.29724 39.35327,48.36756c8.30066,10.11962 16.86414,20.02624 25.01343,30.26428c1.16541,1.46399 1.43274,4.51574 0.80969,6.40112c-11.64697,35.25171 -23.47876,70.44263 -35.36108,105.61597c-0.34412,1.01867 -1.54712,2.24804 -2.54944,2.46753c-12.05847,2.63977 -24.13538,3.98828 -36.56152,2.20398c-11.01978,-1.58252 -22.29834,-1.48255 -33.25464,-3.34754c-7.69824,-1.31042 -15.09216,-4.54431 -22.54102,-7.15002c-8.98437,-3.1427 -17.90966,-6.46082 -26.80603,-9.84595c-3.40747,-1.29663 -5.38367,-3.61084 -6.90637,-7.36108c-7.89575,-19.44641 -16.1709,-38.74756 -24.72546,-57.91541c-9.52344,-21.33948 -20.08618,-42.21692 -33.9491,-61.08752c-6.24194,-8.49671 -13.92529,-16.04224 -21.63355,-23.29822c-2.8551,-2.68762 -7.65515,-3.30908 -11.56823,-4.8728c-0.27808,0.45373 -0.55615,0.90747 -0.83435,1.36132c18.26831,53.85889 36.53662,107.7179 54.89966,161.85633c-14.24891,3.906 -27.797,6.30664 -41.58216,5.41601c-17.52392,-1.13232 -34.14746,-5.29846 -48.93066,-15.73608c-10.97449,-7.74842 -18.39758,-17.69751 -23.24829,-30.04834c-5.42664,-13.81726 -11.35242,-27.4375 -16.98182,-41.17603c-7.70776,-18.8103 -15.28442,-37.67468 -23.09838,-56.44043c-0.7367,-1.76892 -2.6803,-4.18579 -4.20948,-4.29712c-16.00598,-1.16442 -31.36261,-5.09228 -46.34613,-10.52307c-15.99725,-5.79809 -30.67804,-14.18176 -43.40551,-25.42566c-11.22022,-9.9121 -22.22419,-20.20776 -32.22992,-31.31897c-11.21979,-12.45947 -21.20484,-26.03015 -31.73835,-39.10827c-9.09082,-11.28699 -18.19744,-22.56128 -28.85186,-33.87134c-2.03943,7.91095 -4.3946,15.758 -6.01386,23.75409c-1.1961,5.90692 -1.85589,11.99902 -1.98504,18.02509c-0.14441,6.74084 -0.05817,13.60803 1.06121,20.22863c2.1875,12.93823 4.35096,25.98023 8.01862,38.54297c4.55792,15.61218 9.89435,31.09131 16.19537,46.08118c14.35633,34.15259 33.13501,65.93066 54.63697,96.04541c10.86596,15.21838 22.37127,29.99097 33.87377,44.74194c21.50525,27.57874 45.73975,52.69995 70.96247,76.82715c14.97888,14.32813 30.73743,27.85352 46.36975,41.48242c12.47082,10.87244 25.09241,21.5907 37.99121,31.94873c14.21887,11.41773 28.79053,22.39868 43.28125,33.47473c18.12244,13.85205 36.24329,27.70838 54.5061,41.37403c16.2743,12.17761 32.72217,24.12378 49.12818,36.12475c15.86133,11.60266 31.79944,23.10022 47.64355,34.7262c17.03784,12.5022 34.00305,25.10315 51.00598,37.65283c2.07996,1.5354 4.19617,3.02185 6.92469,4.98303c-2.73633,1.86219 -4.91089,3.77698 -7.42505,4.98523c-23.91797,11.49585 -47.79029,23.09607 -71.88172,34.2201c-24.30737,11.22375 -50.0133,18.47094 -75.99084,24.47693c-13.44055,3.10742 -27.27014,4.81469 -41.01941,6.22338c-13.11487,1.34363 -26.39356,2.45948 -39.52905,1.92469c-22.45728,-0.91395 -44.92615,-3.40076 -64.91126,-14.94739c-9.10303,-5.25928 -17.35327,-12.02124 -25.86145,-18.27698c-12.83691,-9.43848 -25.65369,-18.90942 -38.2987,-28.60193c-7.89325,-6.05005 -15.55274,-12.41723 -23.14344,-18.84717c-12.02325,-10.18444 -24.28192,-20.13549 -35.7514,-30.91882c-17.31116,-16.27551 -34.22553,-32.98828 -50.92029,-49.89844c-9.13037,-9.24817 -17.65387,-19.1206 -26.10449,-29.00769c-9.35266,-10.9425 -18.79785,-21.86352 -27.32807,-33.43835c-13.86486,-18.81348 -27.46356,-37.85791 -40.32385,-57.36572c-9.44348,-14.32459 -17.7221,-29.43567 -26.16955,-44.39405c-12.98603,-22.99548 -23.62708,-47.11059 -33.24756,-71.67883c-11.33032,-28.93457 -20.58453,-58.51282 -26.78723,-88.9823c-3.23621,-15.89709 -6.41065,-31.82678 -8.86689,-47.85608c-1.71002,-11.16003 -2.578,-22.49585 -3.06933,-33.78589c-0.97223,-22.34082 -2.08563,-44.71081 -1.86389,-67.05615c0.156,-15.70868 2.37054,-31.40118 3.76758,-47.0918c0.73626,-8.26996 1.69049,-16.5205 2.56005,-24.91223c-0.39929,0.50366 -0.96881,1.02594 -1.30169,1.67047c-13.6828,26.49207 -26.09192,53.58564 -34.33033,82.27484c-5.79541,20.18189 -10.5791,40.70179 -14.75115,61.28626c-2.97278,14.6676 -5.0539,29.63977 -5.96973,44.5719c-1.42944,23.30432 -2.12897,46.69372 -1.97406,70.03955c0.09094,13.7091 2.13104,27.44141 3.84302,41.09448c2.0047,15.98804 4.11834,31.99292 7.09173,47.82007c2.7154,14.45386 6.2547,28.7865 10.14166,42.97778c4.04242,14.75928 8.47352,29.44898 13.57532,43.87183c6.3443,17.93506 13.0257,35.7904 20.52466,53.26697c8.28894,19.31738 16.85748,38.60156 26.77588,57.11145c12.52594,23.37597 26.21466,46.1532 40.0321,68.80407c8.34125,13.67395 17.3869,26.98804 27.0119,39.79016c10.40272,13.83655 21.70557,27.01001 32.90162,40.23072c5.44433,6.42871 11.30358,12.55517 17.41449,18.35547c5.07556,4.81738 10.80273,8.9469 16.21722,13.41028c0.73968,0.60949 1.34015,1.38769 2.95776,3.09069c-3.93725,-0.66821 -6.63708,-0.83752 -9.15753,-1.59961c-22.72009,-6.86963 -45.58832,-13.3125 -68.06146,-20.91931c-28.85132,-9.76587 -56.50562,-22.48474 -83.33655,-36.89428c-21.75982,-11.68628 -42.44989,-25.16382 -61.85699,-40.39356c-17.5448,-13.76819 -33.55597,-29.28174 -48.383,-46.03516c-17.80841,-20.12243 -32.53912,-42.23828 -44.20917,-66.36657c-10.19561,-21.07996 -17.67327,-43.08484 -20.71807,-66.43335c-0.65314,-5.00916 -1.79346,-10.01221 -1.83332,-15.02503c-0.0299,-3.77221 0.61432,-7.90051 2.21442,-11.27466c6.95758,-14.67102 14.32587,-29.14904 21.65106,-43.64343c2.77637,-5.49353 6.07709,-10.73315 8.63959,-16.31762c0.87445,-1.90552 0.91595,-4.7909 0.1308,-6.74317c-1.99396,-4.95715 -3.93799,-10.24072 -7.2547,-14.28381c-4.39386,-5.35633 -10.0127,-9.72608 -15.23181,-14.37781c-2.17023,-1.9342 -4.66779,-3.5011 -7.28083,-5.52563m575.30408,-410.48688c6.39746,2.3772 12.79504,4.75439 20.09851,7.46826c-6.03394,-13.67706 -11.6001,-26.22681 -17.11047,-38.80109c-7.1853,-16.3966 -14.29566,-32.82629 -21.51306,-49.20868c-1.36963,-3.10858 -2.72754,-5.57312 -6.93482,-6.78491c-24.73694,-7.12506 -45.90674,-20.41437 -63.63269,-39.06537c-6.96716,-7.33069 -13.58343,-14.99481 -20.68317,-22.86596c-0.83752,1.3078 -1.80603,2.55743 -2.50079,3.94421c-10.38965,20.73853 -8.97076,41.5224 0.38989,62.04395c6.72589,14.7453 16.79865,26.95581 29.19312,37.51666c12.70105,10.82196 26.23059,20.30572 41.18787,27.55432c13.3601,6.47461 27.1217,12.12054 41.50561,18.19861m204.66577,281.21747c-4.1803,18.55395 -17.45691,27.36389 -35.05444,32.09985c14.932,7.13037 29.33118,14.07312 43.83594,20.78845c1.00842,0.4668 3.37072,-0.30298 4.14013,-1.26672c8.28259,-10.37525 10.98999,-22.83008 10.83533,-35.53638c-0.1355,-11.13574 -2.34473,-22.24267 -8.68189,-31.98193c-3.552,-5.45874 -7.42199,-10.51843 -14.01269,-13.62586c0,2.82129 0.08337,5.11365 -0.01562,7.39795c-0.30713,7.08924 -0.6836,14.17517 -1.04676,22.12464z" id="svg_2" stroke="#ff8300"/>
  <path stroke-opacity="0" fill="#212121" d="m1426.23279,1559.26245c-8.93775,5.60608 -17.62561,10.93128 -26.27991,16.3103c-2.82092,1.75306 -5.06714,1.61341 -7.94861,-0.50183c-19.76855,-14.51245 -39.72192,-28.7727 -59.58777,-43.15283c-18.80493,-13.61206 -37.74597,-27.04443 -56.29931,-40.99207c-11.88367,-8.93359 -23.63599,-18.15246 -34.58557,-28.18383c-9.26197,-8.48535 -17.76075,-17.93482 -25.71338,-27.67884c-6.83814,-8.37841 -11.04309,-18.04016 -10.93665,-29.51599c0.32568,-35.16223 0.41699,-70.33337 -0.03943,-105.49267c-0.1654,-12.75025 9.32215,-24.31421 21.77307,-27.0188c12.47803,-2.7107 24.83106,-1.05689 37.17713,1.30603c14.02539,2.68408 28.03723,5.55603 42.16919,7.52844c11.84753,1.65369 23.86047,2.94263 35.79773,2.92371c14.83484,-0.02344 29.3844,-2.94324 42.98681,-9.27136c1.4314,-0.66614 2.58606,-2.71326 3.13965,-4.36426c12.42053,-37.04761 24.73011,-74.13257 37.08582,-111.20191c1.78515,-5.35534 3.85803,-10.62109 5.44433,-16.03198c0.4148,-1.41504 0.03687,-3.6665 -0.88757,-4.77331c-6.53003,-7.81861 -13.43066,-15.32801 -19.95972,-23.14759c-10.77429,-12.90368 -21.87719,-25.58044 -31.8955,-39.05615c-13.745,-18.48877 -26.87476,-37.45337 -39.77295,-56.54852c-13.37305,-19.79786 -23.81739,-41.1709 -31.60425,-63.76752c-9.89429,-28.71179 -19.11084,-57.66479 -29.44837,-86.21374c-7.98547,-22.05359 -16.76123,-43.92035 -30.88342,-62.99378c-4.48071,-6.05157 -10.11804,-11.23492 -14.92419,-17.06451c-1.5177,-1.84101 -2.84327,-4.4668 -2.91468,-6.77491c-0.5592,-18.08642 -0.74255,-36.18396 -1.14501,-54.27581c-0.22474,-10.09528 -0.59925,-20.1883 -1.0376,-30.27662c-0.05835,-1.34216 -0.55579,-2.94458 -1.41761,-3.9298c-10.28527,-11.75861 -20.73156,-23.37617 -31.02941,-35.12391c-13.53492,-15.44055 -26.97315,-30.96582 -40.4563,-46.45178c-11.21778,-12.88409 -22.46192,-25.74524 -33.64746,-38.65741c-3.21143,-3.70733 -5.99341,-7.82446 -9.4596,-11.26251c-3.22278,-3.19684 -6.72729,-6.50049 -10.74402,-8.43866c-17.91345,-8.64398 -35.87463,-17.24536 -54.20556,-24.93982c-7.03174,-2.9516 -8.31153,-7.69342 -9.06433,-14.03967c-1.34278,-11.32022 -3.26697,-22.5701 -4.79761,-33.86981c-1.16138,-8.57358 -2.04077,-17.18515 -3.15833,-25.76511c-0.24658,-1.8931 -0.68262,-3.86499 -1.51758,-5.56137c-5.73638,-11.655 -11.99688,-23.07178 -17.24505,-34.9383c-2.32062,-5.247 -5.7099,-7.13055 -10.81134,-8.10897c-16.39118,-3.14368 -32.71552,-6.63633 -49.10883,-9.76853c-1.6419,-0.31369 -4.06427,0.37812 -5.30102,1.50611c-10.74268,9.79748 -21.37409,19.72155 -31.83637,29.81756c-1.88171,1.81577 -3.24847,4.44422 -4.15192,6.95017c-6.78216,18.81274 -13.40405,37.68344 -20.03302,56.55114c-0.97546,2.77649 -2.49737,3.80869 -5.68951,4.17716c-6.85968,0.79181 -10.44305,-1.57086 -13.42993,-7.97437c-9.19501,-19.71313 -19.1308,-39.08337 -28.9541,-58.49817c-1.51892,-3.00198 -3.66791,-5.82168 -6.02423,-8.23971c-9.76917,-10.02481 -19.61921,-19.97855 -29.72614,-29.65918c-1.73388,-1.66083 -4.96393,-2.82065 -7.32824,-2.56934c-8.06739,0.85755 -16.03809,2.58005 -24.08082,3.72654c-10.33581,1.47335 -20.71307,2.65585 -31.0487,4.13055c-1.0119,0.14438 -2.24323,1.26849 -2.72168,2.25391c-6.58026,13.55096 -13.06018,27.15084 -19.50617,40.76641c-0.39874,0.84211 -0.42755,1.91462 -0.43011,2.88044c-0.02838,10.66616 -0.14722,21.33444 0.01831,31.99814c0.17493,11.26361 0.39813,22.5368 1.06903,33.77783c0.30414,5.09543 -1.12024,8.19339 -6.34839,9.09671c-5.1098,-5.64343 -10.19671,-11.43189 -15.46734,-17.04798c-11.77582,-12.54773 -23.5658,-25.08456 -35.53754,-37.44415c-2.44739,-2.52673 -5.52387,-4.61511 -8.63995,-6.29385c-13.97016,-7.52637 -28.05939,-14.83173 -42.50171,-22.42508c0.8731,-1.18466 1.41259,-2.14163 2.15777,-2.8952c32.76557,-33.13407 65.4571,-66.34229 98.39221,-99.3071c8.82258,-8.83051 19.79999,-13.4607 32.50922,-13.46018c183.15942,0.00754 366.31879,0.00519 549.47821,0.00519c1.80628,0 3.61255,0 6.14063,0c-1.27332,7.25824 -2.34827,14.08252 -3.68311,20.85556c-3.13562,15.91067 -6.39209,31.79755 -9.60657,47.69266c-1.86364,9.21588 -3.66626,18.44519 -5.65503,27.63415c-0.62402,2.88306 -0.16906,4.47464 2.52491,6.44907c16.64245,12.19769 33.01733,24.76035 49.47399,37.21121c2.08594,1.57822 4.13001,3.21204 6.74158,5.24735c7.28345,-5.23145 14.88489,-10.63495 22.427,-16.12018c14.98633,-10.89945 29.92847,-21.85986 44.9115,-32.76386c9.44251,-6.87198 19.01514,-13.56994 28.3252,-20.61569c2.16516,-1.63864 3.34643,-1.957 5.40588,-0.07855c3.00171,2.7377 6.56238,4.8775 9.47437,7.69613c15.64038,15.13944 31.73559,29.86997 46.53003,45.80359c12.20605,13.14597 22.71313,27.85917 34.22741,41.66584c2.43946,2.92529 1.55298,5.0758 -0.02246,7.45022c-21.77783,32.82343 -43.56897,65.63825 -65.46069,98.38574c-1.68152,2.5152 -1.72424,4.24903 -0.12244,6.88166c11.02613,18.12231 21.93677,36.31744 32.61426,54.64666c1.59912,2.74537 3.36548,3.39228 5.94763,2.85413c28.54407,-5.94818 57.08338,-11.91882 85.6084,-17.95727c7.42676,-1.57227 14.79932,-3.40094 22.78198,-5.24726c2.92115,7.81098 5.90845,15.42981 8.62586,23.14362c5.3103,15.0744 10.92505,30.06317 15.58337,45.34064c6.72974,22.07055 12.79395,44.34625 18.93543,66.59149c0.76721,2.77917 0.12707,5.26959 -3.0763,7.42944c-27.96203,18.85364 -55.7406,37.9809 -83.44543,57.21167c-1.3783,0.95667 -2.41626,3.73206 -2.18543,5.47125c2.09803,15.80933 4.51075,31.57691 6.83838,47.35578c0.7865,5.33148 1.59241,10.66015 2.46106,16.46869c13.28711,2.38403 26.99292,4.7857 40.67481,7.31634c10.84277,2.00543 21.65442,4.17987 32.48376,6.25855c8.28626,1.59051 16.54797,3.35302 24.88525,4.61132c2.94227,0.44416 3.49097,1.68653 3.51319,4.20118c0.29419,33.42895 0.99353,66.85931 0.81763,100.28521c-0.0813,15.45032 -1.79065,30.896 -2.9563,46.32898c-0.08753,1.15674 -1.58716,2.94946 -2.6919,3.177c-21.75317,4.47913 -43.53125,8.84302 -65.33496,13.07081c-11.77612,2.28344 -23.60986,4.26904 -34.51416,6.22692c-4.13147,20.02661 -8.27002,39.68482 -12.09692,59.40357c-0.30542,1.57361 1.04846,4.28198 2.46252,5.25439c20.14966,13.85852 40.47583,27.46009 60.68408,41.23413c7.51953,5.12525 14.94959,10.39917 22.16285,15.94043c1.35827,1.04334 2.53613,4.01111 2.04455,5.52002c-7.89953,24.25379 -15.40637,48.6709 -24.41284,72.51807c-7.46253,19.75891 -16.68835,38.85742 -25.30408,58.17224c-2.92248,6.55176 -3.15405,6.41553 -10.36108,4.79443c-31.11304,-6.99792 -62.22998,-13.97851 -93.34656,-20.96069c-7.79126,-1.74817 -7.27441,-1.41992 -11.71045,5.77075c-9.00537,14.59742 -18.63074,28.81238 -28.47827,43.91785c7.32007,11.2583 15.48132,23.85144 23.68457,36.41699c11.33801,17.36719 22.63367,34.76306 34.13941,52.01868c1.85253,2.77832 1.19689,4.34692 -0.8274,6.3562c-11.14502,11.06079 -21.59387,22.922 -33.47363,33.11999c-16.79407,14.41675 -34.62781,27.6222 -52.28015,41.60535m58.7633,-862.75628c-6.76831,-13.07667 -13.40173,-26.22626 -20.40478,-39.17597c-1.63135,-3.01654 -4.04382,-6.20258 -6.93164,-7.82049c-5.45178,-3.05414 -11.43982,-5.22394 -17.3617,-7.31812c-1.61657,-0.57166 -4.15356,-0.13599 -5.65124,0.81213c-9.17017,5.80548 -17.99988,12.16272 -27.29517,17.75012c-3.72827,2.24097 -5.45984,5.07685 -6.36401,8.95191c-0.65076,2.78961 -1.45166,5.54425 -2.1405,8.1438c-3.82349,-0.6825 -7.12464,-1.42566 -10.46717,-1.7984c-1.49304,-0.16638 -3.34985,-0.03754 -4.56262,0.72204c-9.46301,5.92591 -18.84277,11.98719 -28.17663,18.11573c-4.19935,2.75732 -7.55323,21.68737 -5.23768,26.10229c7.65979,14.60388 15.20459,29.27265 22.48548,44.06824c2.6643,5.41418 18.70373,14.34521 24.30945,12.83667c0.30883,-0.08313 0.5708,-0.32794 0.87573,-0.43958c6.80566,-2.4909 13.5166,-5.3006 20.448,-7.37207c7.96643,-2.38049 14.56018,-5.8775 16.7268,-14.69909c0.21399,-0.87159 0.94995,-1.61493 1.65833,-2.76685c3.3291,1.46722 6.47839,3.14252 9.82031,4.22022c2.00671,0.64721 4.54211,1.03106 6.44763,0.38183c9.15857,-3.12036 18.03455,-7.14837 27.30689,-9.8302c6.50805,-1.88238 10.39575,-5.12121 11.28161,-11.82739c0.96912,-7.33563 4.9878,-14.47907 1.05249,-22.10675c-2.74243,-5.31568 -5.20678,-10.77484 -7.81958,-16.95007m34.09327,189.4616c1.79528,-2.64898 3.84155,-5.16455 5.33593,-7.97363c3.56348,-6.69849 8.41541,-13.06012 6.58203,-21.44281c-0.38159,-1.74469 -0.68273,-3.50745 -0.99804,-5.26605c-3.34803,-18.67719 -6.58228,-37.37592 -10.12805,-56.01538c-0.70765,-3.72046 -1.69873,-8.07685 -4.13843,-10.63178c-4.80701,-5.03393 -10.6322,-9.12982 -16.25171,-13.32489c-1.13465,-0.84698 -3.36401,-0.90692 -4.85156,-0.48797c-7.92347,2.23193 -15.76746,4.74487 -23.64637,7.13586c-21.17346,6.42548 -42.38488,12.7301 -63.48852,19.37665c-3.06519,0.96539 -6.41138,2.97662 -8.22888,5.50818c-2.68225,3.73578 -4.43299,8.26135 -5.94922,12.66784c-0.90271,2.62323 -1.20069,5.76624 -0.73169,8.49714c2.27661,13.25714 5.27234,26.39849 7.27588,39.69201c1.29358,8.58301 2.89062,16.25531 10.25427,22.28675c5.28479,4.32867 9.31384,7.28582 17.14563,6.39184c18.97022,-2.16516 38.16223,-2.40063 57.26685,-3.3717c7.7528,-0.39411 15.52087,-0.5401 23.26281,-1.07605c3.51929,-0.24359 6.99219,-1.16016 11.28907,-1.96601m-168.56348,-316.98529c2.23645,-2.24078 4.65869,-4.32867 6.66247,-6.76111c2.49866,-3.03289 4.323,-2.46844 6.74732,0.17078c9.50732,10.34985 19.21057,20.51941 28.76611,30.82556c3.16248,3.41095 3.47217,10.41107 0.45838,13.00788c-4.82312,4.15564 -9.78748,8.16717 -14.89527,11.96643c-4.09472,3.04571 -8.19494,2.19958 -11.13391,-1.53467c-3.22888,-4.10272 -6.45386,-8.24707 -10.06775,-12.00037c-7.62744,-7.92193 -15.64844,-15.46673 -23.22217,-23.43799c-3.58544,-3.7738 -7.88855,-4.94305 -12.69433,-5.19226c-2.82569,-0.14648 -5.73731,0.37824 -8.4834,-0.11077c-5.80005,-1.03278 -9.49084,1.13757 -12.40723,6.11309c-1.79394,3.0603 -4.65747,5.48816 -7.00659,8.22931c-7.90271,9.22162 -15.88208,18.38129 -23.56982,27.7793c-0.98377,1.20257 -1.28369,4.4447 -0.41577,5.41797c3.26953,3.66613 7.3291,6.61273 10.77429,10.13989c11.729,12.00806 23.48755,23.99561 34.89148,36.3089c5.02417,5.42468 9.22229,11.61444 13.80859,17.47363c4.98535,-3.69336 9.29578,-7.19031 13.92761,-10.1911c2.34314,-1.518 3.13221,-2.47052 1.17981,-4.89599c-2.84997,-3.54059 -5.09301,-7.59833 -8.12158,-10.96131c-11.37573,-12.63153 -22.96741,-25.06866 -34.46814,-37.58789c-0.52783,-0.57471 -0.95679,-1.24011 -1.4104,-1.83514c5.37134,-5.7912 10.4823,-11.409 15.72192,-16.90406c2.4983,-2.62018 8.85743,-3.09631 11.22535,-0.67047c7.41247,7.59345 15.30432,14.85242 21.76672,23.20356c7.00586,9.05352 14.38782,16.75439 26.26343,18.37182c4.02197,0.54779 7.90478,2.4707 12.10547,-0.77399c10.2799,-7.94024 20.97741,-15.33777 31.43542,-23.05059c2.43457,-1.79554 4.09607,-3.96875 3.74231,-7.53589c-0.44177,-4.45612 0.3678,-9.05622 -0.25598,-13.4679c-0.49988,-3.53424 -1.45972,-7.65997 -3.7146,-10.18371c-15.40991,-17.24811 -31.11157,-34.24109 -47.01233,-51.03882c-2.26013,-2.38764 -5.95349,-3.90393 -9.25525,-4.70691c-5.03723,-1.22522 -10.29797,-1.74799 -15.4917,-2.00476c-2.00793,-0.09937 -4.67456,0.77698 -6.03589,2.18243c-4.77465,4.92926 -9.11169,10.28229 -14.09082,16.02332c7.21753,6.41803 14.09546,12.58691 21.08826,18.62268c0.4292,0.37042 1.7666,-0.3111 3.18799,-0.99085m-69.4773,-56.38031c-17.31359,26.66321 -34.62707,53.32642 -52.23132,80.43714c6.78784,4.66577 13.27796,9.12701 19.94678,13.71106c1.73852,-2.47022 2.96863,-4.32483 4.30444,-6.0998c14.47107,-19.22741 29.00867,-38.40484 43.42371,-57.67413c9.30871,-12.44342 18.35827,-25.08136 27.73437,-37.47296c1.73792,-2.29672 1.35828,-3.81583 -0.49512,-5.13159c-7.78796,-5.52869 -15.65197,-10.9527 -23.57189,-16.29056c-1.20325,-0.81098 -3.08643,-1.68976 -4.25086,-1.30713c-7.6654,2.51877 -15.22009,5.37467 -23.95703,8.53531c6.047,4.06747 11.00244,7.40082 15.98169,10.75006c-2.27014,3.51291 -4.35046,6.73215 -6.88477,10.5426z" id="svg_3" stroke="#ff8300"/>
  <path fill="#000000" d="m1112.93042,870.03509c-13.98413,-6.04486 -27.74573,-11.69079 -41.10583,-18.1654c-14.95728,-7.2486 -28.48682,-16.73236 -41.18787,-27.55432c-12.39447,-10.56085 -22.46723,-22.77136 -29.19312,-37.51666c-9.36065,-20.52155 -10.77954,-41.30542 -0.38989,-62.04395c0.69476,-1.38678 1.66327,-2.63641 2.50079,-3.94421c7.09974,7.87115 13.71601,15.53527 20.68317,22.86596c17.72595,18.651 38.89575,31.94031 63.63269,39.06537c4.20728,1.21179 5.56519,3.67633 6.93482,6.78491c7.2174,16.38239 14.32776,32.81208 21.51306,49.20868c5.51037,12.57428 11.07653,25.12403 17.11047,38.80109c-7.30347,-2.71387 -13.70105,-5.09106 -20.49829,-7.50147z" id="svg_4"/>
  <path fill="#000000" d="m1318.00269,1150.85474c0.35644,-7.51844 0.73291,-14.60437 1.04004,-21.69361c0.09899,-2.2843 0.01562,-4.57666 0.01562,-7.39795c6.5907,3.10743 10.46069,8.16712 14.01269,13.62586c6.33716,9.73926 8.54639,20.84619 8.68189,31.98193c0.15466,12.7063 -2.55274,25.16113 -10.83533,35.53638c-0.76941,0.96374 -3.13171,1.73352 -4.14013,1.26672c-14.50476,-6.71533 -28.90394,-13.65808 -43.83594,-20.78845c17.59753,-4.73596 30.87414,-13.5459 35.06116,-32.53088z" id="svg_5"/>
  <path fill="#000000" d="m1485.00818,696.89624c2.60071,5.78516 5.06506,11.24432 7.80749,16.56c3.93531,7.62768 -0.08337,14.77112 -1.05249,22.10675c-0.88586,6.70618 -4.77356,9.94501 -11.28161,11.82739c-9.27234,2.68183 -18.14832,6.70984 -27.30689,9.8302c-1.90552,0.64923 -4.44092,0.26538 -6.44763,-0.38183c-3.34192,-1.0777 -6.49121,-2.753 -9.82031,-4.22022c-0.70838,1.15192 -1.44434,1.89526 -1.65833,2.76685c-2.16662,8.82159 -8.76037,12.3186 -16.7268,14.69909c-6.9314,2.07147 -13.64234,4.88117 -20.448,7.37207c-0.30493,0.11164 -0.5669,0.35645 -0.87573,0.43958c-5.60572,1.50854 -21.64515,-7.42249 -24.30945,-12.83667c-7.28089,-14.79559 -14.82569,-29.46436 -22.48548,-44.06824c-2.31555,-4.41492 1.03833,-23.34497 5.23768,-26.10229c9.33386,-6.12854 18.71362,-12.18982 28.17663,-18.11573c1.21277,-0.75958 3.06958,-0.88842 4.56262,-0.72204c3.34253,0.37274 6.64368,1.1159 10.46717,1.7984c0.68884,-2.59955 1.48974,-5.35419 2.1405,-8.1438c0.90417,-3.87506 2.63574,-6.71094 6.36401,-8.95191c9.29529,-5.5874 18.125,-11.94464 27.29517,-17.75012c1.49768,-0.94812 4.03467,-1.38379 5.65124,-0.81213c5.92188,2.09418 11.90992,4.26398 17.3617,7.31812c2.88782,1.61791 5.30029,4.80395 6.93164,7.82049c7.00305,12.94971 13.63647,26.0993 20.41687,39.56604m-18,20.52631c0.03284,-2.65314 0.94531,-5.70789 -0.05152,-7.89099c-4.69409,-10.2818 -9.84875,-20.35663 -14.97595,-30.43574c-1.86828,-3.67266 -7.97461,-6.28289 -10.80822,-4.68835c-5.49939,3.0946 -10.83216,6.48529 -16.33033,9.58228c-3.32727,1.8742 -3.74585,4.95141 -2.46228,7.66491c5.38977,11.39447 10.99903,22.69513 16.91993,33.82154c1.5509,2.91461 4.42883,4.59863 8.3562,2.65686c5.92834,-2.93103 12.0896,-5.38898 18.1112,-8.13678c0.5586,-0.25495 0.82605,-1.14813 1.24097,-2.57373m-80.01135,-11.91846c-2.82837,1.53687 -5.63172,3.12219 -8.49085,4.59937c-4.47436,2.31176 -5.68591,5.49224 -3.47681,9.97369c4.43128,8.98987 9.01905,17.90277 13.42493,26.90491c1.84436,3.76849 4.80493,4.94793 8.44116,3.53521c5.54346,-2.15393 10.94519,-4.68884 16.33765,-7.21063c4.34509,-2.03192 5.96423,-6.22461 3.97913,-10.58697c-3.27478,-7.19605 -6.60816,-14.37482 -10.23145,-21.39856c-1.63794,-3.17536 -3.47839,-6.68744 -6.20447,-8.76294c-4.78137,-3.64026 -9.05175,0.03137 -13.77929,2.94592z" id="svg_6"/>
  <path fill="#000000" d="m1518.68787,886.06506c-3.89539,0.70856 -7.36829,1.62513 -10.88758,1.86872c-7.74194,0.53595 -15.51001,0.68194 -23.26281,1.07605c-19.10462,0.97107 -38.29663,1.20654 -57.26685,3.3717c-7.83179,0.89398 -11.86084,-2.06317 -17.14563,-6.39184c-7.36365,-6.03144 -8.96069,-13.70374 -10.25427,-22.28675c-2.00354,-13.29352 -4.99927,-26.43487 -7.27588,-39.69201c-0.469,-2.7309 -0.17102,-5.87391 0.73169,-8.49714c1.51623,-4.40649 3.26697,-8.93206 5.94922,-12.66784c1.8175,-2.53156 5.16369,-4.54279 8.22888,-5.50818c21.10364,-6.64655 42.31506,-12.95117 63.48852,-19.37665c7.87891,-2.39099 15.7229,-4.90393 23.64637,-7.13586c1.48755,-0.41895 3.71691,-0.35901 4.85156,0.48797c5.61951,4.19507 11.4447,8.29096 16.25171,13.32489c2.4397,2.55493 3.43078,6.91132 4.13843,10.63178c3.54577,18.63946 6.78002,37.33819 10.12805,56.01538c0.31531,1.7586 0.61645,3.52136 0.99804,5.26605c1.83338,8.38269 -3.01855,14.74432 -6.58203,21.44281c-1.49438,2.80908 -3.54065,5.32465 -5.73742,8.07092m-38.69287,-26.55749c6.63427,-0.83588 13.25195,-1.86066 19.90832,-2.44434c4.82471,-0.42303 8.88062,-4.59137 8.04004,-9.44165c-2.18567,-12.61169 -4.56091,-25.1914 -6.97705,-37.76147c-0.72302,-3.76129 -5.52307,-7.43988 -8.45777,-6.74488c-23.74829,5.62458 -47.4956,11.25281 -71.23364,16.91986c-4.67663,1.11652 -6.21435,3.99238 -5.297,8.93171c1.74488,9.39514 3.33826,18.81842 5.0337,28.2229c1.40075,7.77026 3.73669,9.32251 8.10534,8.81335c6.00379,-0.69983 12.01514,-1.33594 18.01502,-2.06793c10.6886,-1.3042 21.37121,-2.65979 32.86304,-4.42755z" id="svg_7"/>
  <path fill="#000000" d="m1350.27258,569.22632c-1.16809,0.43591 -2.50549,1.11743 -2.93469,0.74701c-6.9928,-6.03577 -13.87073,-12.20465 -21.08826,-18.62268c4.97913,-5.74103 9.31617,-11.09406 14.09082,-16.02332c1.36133,-1.40545 4.02796,-2.2818 6.03589,-2.18243c5.19373,0.25677 10.45447,0.77954 15.4917,2.00476c3.30176,0.80298 6.99512,2.31927 9.25525,4.70691c15.90076,16.79773 31.60242,33.79071 47.01233,51.03882c2.25488,2.52374 3.21472,6.64947 3.7146,10.18371c0.62378,4.41168 -0.18579,9.01178 0.25598,13.4679c0.35376,3.56714 -1.30774,5.74035 -3.74231,7.53589c-10.45801,7.71282 -21.15552,15.11035 -31.43542,23.05059c-4.20069,3.24469 -8.0835,1.32178 -12.10547,0.77399c-11.87561,-1.61743 -19.25757,-9.3183 -26.26343,-18.37182c-6.4624,-8.35114 -14.35425,-15.61011 -21.76672,-23.20356c-2.36792,-2.42584 -8.72705,-1.94971 -11.22535,0.67047c-5.23962,5.49506 -10.35058,11.11286 -15.72192,16.90406c0.45361,0.59503 0.88257,1.26043 1.4104,1.83514c11.50073,12.51923 23.09241,24.95636 34.46814,37.58789c3.02857,3.36298 5.27161,7.42072 8.12158,10.96131c1.9524,2.42547 1.16333,3.37799 -1.17981,4.89599c-4.63183,3.00079 -8.94226,6.49774 -13.92761,10.1911c-4.5863,-5.85919 -8.78442,-12.04895 -13.80859,-17.47363c-11.40393,-12.31329 -23.16248,-24.30084 -34.89148,-36.3089c-3.44519,-3.52716 -7.50476,-6.47376 -10.77429,-10.13989c-0.86792,-0.97327 -0.568,-4.2154 0.41577,-5.41797c7.68774,-9.39801 15.66711,-18.55768 23.56982,-27.7793c2.34912,-2.74115 5.21265,-5.16901 7.00659,-8.22931c2.91639,-4.97552 6.60718,-7.14587 12.40723,-6.11309c2.74609,0.48901 5.65771,-0.03571 8.4834,0.11077c4.80578,0.24921 9.10889,1.41846 12.69433,5.19226c7.57373,7.97126 15.59473,15.51606 23.22217,23.43799c3.61389,3.7533 6.83887,7.89765 10.06775,12.00037c2.93897,3.73425 7.03919,4.58038 11.13391,1.53467c5.10779,-3.79926 10.07215,-7.81079 14.89527,-11.96643c3.01379,-2.59681 2.7041,-9.59693 -0.45838,-13.00788c-9.55554,-10.30615 -19.25879,-20.47571 -28.76611,-30.82556c-2.42432,-2.63922 -4.24866,-3.20367 -6.74732,-0.17078c-2.00378,2.43244 -4.42602,4.52033 -6.91577,7.00495z" id="svg_8"/>
  <path fill="#000000" d="m1281.27563,512.30658c2.30726,-3.51486 4.38758,-6.7341 6.65772,-10.24701c-4.97925,-3.34924 -9.93469,-6.68259 -15.98169,-10.75006c8.73694,-3.16064 16.29163,-6.01654 23.95703,-8.53531c1.16443,-0.38263 3.04761,0.49615 4.25086,1.30713c7.91992,5.33786 15.78393,10.76187 23.57189,16.29056c1.8534,1.31576 2.23304,2.83487 0.49512,5.13159c-9.3761,12.3916 -18.42566,25.02954 -27.73437,37.47296c-14.41504,19.26929 -28.95264,38.44672 -43.42371,57.67413c-1.33581,1.77497 -2.56592,3.62958 -4.30444,6.0998c-6.66882,-4.58405 -13.15894,-9.04529 -19.94678,-13.71106c17.60425,-27.11072 34.91773,-53.77393 52.45837,-80.73273z" id="svg_9"/>
  <path stroke-opacity="0" fill="#212121" d="m1467.00208,717.83691c-0.40882,1.01124 -0.67627,1.90442 -1.23487,2.15937c-6.0216,2.7478 -12.18286,5.20575 -18.1112,8.13678c-3.92737,1.94177 -6.8053,0.25775 -8.3562,-2.65686c-5.9209,-11.12641 -11.53016,-22.42707 -16.91993,-33.82154c-1.28357,-2.7135 -0.86499,-5.79071 2.46228,-7.66491c5.49817,-3.09699 10.83094,-6.48768 16.33033,-9.58228c2.83361,-1.59454 8.93994,1.01569 10.80822,4.68835c5.1272,10.07911 10.28186,20.15394 14.97595,30.43574c0.99683,2.1831 0.08436,5.23785 0.04542,8.30535z" id="svg_10" stroke="#ff8300"/>
  <path stroke-opacity="0" fill="#212121" d="m1387.30383,705.27893c4.42054,-2.68939 8.69092,-6.36102 13.47229,-2.72076c2.72608,2.0755 4.56653,5.58758 6.20447,8.76294c3.62329,7.02374 6.95667,14.20251 10.23145,21.39856c1.9851,4.36236 0.36596,8.55505 -3.97913,10.58697c-5.39246,2.52179 -10.79419,5.0567 -16.33765,7.21063c-3.63623,1.41272 -6.5968,0.23328 -8.44116,-3.53521c-4.40588,-9.00214 -8.99365,-17.91504 -13.42493,-26.90491c-2.2091,-4.48145 -0.99755,-7.66193 3.47681,-9.97369c2.85913,-1.47718 5.66248,-3.0625 8.79785,-4.82453z" id="svg_11" stroke="#ff8300"/>
  <path stroke-opacity="0" fill="#212121" d="m1479.59155,859.72443c-11.08838,1.5509 -21.77099,2.90649 -32.45959,4.21069c-5.99988,0.73199 -12.01123,1.3681 -18.01502,2.06793c-4.36865,0.50916 -6.70459,-1.04309 -8.10534,-8.81335c-1.69544,-9.40448 -3.28882,-18.82776 -5.0337,-28.2229c-0.91735,-4.93933 0.62037,-7.81519 5.297,-8.93171c23.73804,-5.66705 47.48535,-11.29528 71.23364,-16.91986c2.9347,-0.695 7.73475,2.98359 8.45777,6.74488c2.41614,12.57007 4.79138,25.14978 6.97705,37.76147c0.84058,4.85028 -3.21533,9.01862 -8.04004,9.44165c-6.65637,0.58368 -13.27405,1.60846 -20.31177,2.6612z" id="svg_12" stroke="#ff8300"/>
 </g>

</svg>