<svg version="1.1" id="Layer_1" xmlns="http://www.w3.org/2000/svg" xmlns:xlink="http://www.w3.org/1999/xlink" x="0px" y="0px"
	 width="100%" viewBox="0 0 2000 2000" enable-background="new 0 0 2000 2000" xml:space="preserve">
<path fill="#000000" opacity="1.000000" stroke="none" 
	d="
M1112.000000,2001.000000 
	C741.333313,2001.000000 371.166656,2001.000000 1.000000,2001.000000 
	C1.000000,1334.333374 1.000000,667.666687 1.000000,1.000000 
	C667.666687,1.000000 1334.333374,1.000000 2001.000000,1.000000 
	C2001.000000,667.666687 2001.000000,1334.333374 2001.000000,2001.000000 
	C1704.833374,2001.000000 1408.666626,2001.000000 1112.000000,2001.000000 
M538.290466,1280.845825 
	C540.639160,1282.579712 543.136719,1284.146606 545.306946,1286.080811 
	C550.526062,1290.732544 556.144897,1295.102295 560.538757,1300.458618 
	C563.855469,1304.501709 565.799500,1309.785278 567.793457,1314.742432 
	C568.578613,1316.694702 568.537109,1319.580078 567.662659,1321.485596 
	C565.100159,1327.070068 561.799438,1332.309692 559.023071,1337.803223 
	C551.697876,1352.297607 544.329590,1366.775635 537.372009,1381.446655 
	C535.771912,1384.820801 535.127686,1388.949097 535.157593,1392.721313 
	C535.197449,1397.734131 536.337769,1402.737183 536.990906,1407.746338 
	C540.035706,1431.094849 547.513367,1453.099731 557.708984,1474.179688 
	C569.379028,1498.307983 584.109741,1520.423828 601.918152,1540.546265 
	C616.745178,1557.299683 632.756348,1572.813232 650.301147,1586.581421 
	C669.708252,1601.811157 690.398315,1615.288696 712.158142,1626.974976 
	C738.989075,1641.384521 766.643372,1654.103394 795.494690,1663.869263 
	C817.967834,1671.476074 840.836060,1677.918945 863.556152,1684.788574 
	C866.076599,1685.550659 868.776428,1685.719971 872.713684,1686.388184 
	C871.096069,1684.685181 870.495605,1683.906982 869.755920,1683.297485 
	C864.341431,1678.834106 858.614258,1674.704590 853.538696,1669.887207 
	C847.427795,1664.086914 841.568542,1657.960449 836.124207,1651.531738 
	C824.928162,1638.311035 813.625305,1625.137573 803.222595,1611.301025 
	C793.597595,1598.498901 784.551941,1585.184814 776.210693,1571.510864 
	C762.393250,1548.859985 748.704529,1526.082764 736.178589,1502.706787 
	C726.260193,1484.196899 717.691650,1464.912720 709.402710,1445.595337 
	C701.903748,1428.118774 695.222351,1410.263428 688.878052,1392.328369 
	C683.776245,1377.905518 679.345154,1363.215820 675.302734,1348.456543 
	C671.415771,1334.265259 667.876465,1319.932617 665.161072,1305.478760 
	C662.187683,1289.651611 660.074036,1273.646729 658.069336,1257.658691 
	C656.357361,1244.005615 654.317261,1230.273315 654.226318,1216.564209 
	C654.071411,1193.218384 654.770935,1169.828979 656.200378,1146.524658 
	C657.116211,1131.592529 659.197327,1116.620361 662.170105,1101.952759 
	C666.342163,1081.368286 671.125854,1060.848389 676.921265,1040.666504 
	C685.159668,1011.977295 697.568787,984.883728 711.251587,958.391663 
	C711.584473,957.747131 712.153992,957.224854 712.553284,956.721191 
	C711.683716,965.112915 710.729492,973.363464 709.993225,981.633423 
	C708.596191,997.324036 706.381653,1013.016541 706.225647,1028.725220 
	C706.003906,1051.070557 707.117310,1073.440552 708.089539,1095.781372 
	C708.580872,1107.071411 709.448853,1118.407227 711.158875,1129.567261 
	C713.615112,1145.596558 716.789551,1161.526245 720.025757,1177.423340 
	C726.228455,1207.892822 735.482666,1237.471069 746.812988,1266.405640 
	C756.433472,1290.973877 767.074524,1315.088989 780.060547,1338.084473 
	C788.507996,1353.042847 796.786621,1368.153931 806.230103,1382.478516 
	C819.090393,1401.986328 832.689087,1421.030762 846.553955,1439.844238 
	C855.084167,1451.419067 864.529358,1462.340088 873.882019,1473.282593 
	C882.332642,1483.169678 890.856140,1493.042114 899.986511,1502.290283 
	C916.681274,1519.200439 933.595642,1535.913208 950.906799,1552.188721 
	C962.376282,1562.972046 974.634949,1572.923096 986.658203,1583.107544 
	C994.248901,1589.537476 1001.908386,1595.904663 1009.801636,1601.954712 
	C1022.446655,1611.647217 1035.263428,1621.118164 1048.100342,1630.556641 
	C1056.608521,1636.812378 1064.858765,1643.574341 1073.961792,1648.833618 
	C1093.946899,1660.380249 1116.415771,1662.867065 1138.873047,1663.781006 
	C1152.008545,1664.315796 1165.287231,1663.199951 1178.402100,1661.856323 
	C1192.151367,1660.447632 1205.980957,1658.740356 1219.421509,1655.632935 
	C1245.399048,1649.626953 1271.104980,1642.379761 1295.412354,1631.156006 
	C1319.503784,1620.031982 1343.376099,1608.431763 1367.294067,1596.935913 
	C1369.808228,1595.727661 1371.982788,1593.812866 1374.719116,1591.950684 
	C1371.990601,1589.989502 1369.874390,1588.503052 1367.794434,1586.967651 
	C1350.791504,1574.417969 1333.826294,1561.817017 1316.788452,1549.314819 
	C1300.944336,1537.688843 1285.006226,1526.191284 1269.144897,1514.588623 
	C1252.738892,1502.587646 1236.291016,1490.641479 1220.016724,1478.463867 
	C1201.753906,1464.798218 1183.633057,1450.941895 1165.510620,1437.089844 
	C1151.019897,1426.013794 1136.448242,1415.032837 1122.229370,1403.615112 
	C1109.330566,1393.257080 1096.708984,1382.538818 1084.238159,1371.666382 
	C1068.605835,1358.037476 1052.847290,1344.512085 1037.868408,1330.183960 
	C1012.645691,1306.056763 988.411194,1280.935547 966.905945,1253.356812 
	C955.403442,1238.605835 943.898132,1223.833252 933.032166,1208.614868 
	C911.530212,1178.500122 892.751526,1146.722046 878.395203,1112.569458 
	C872.094177,1097.579590 866.757751,1082.100464 862.199829,1066.488281 
	C858.532166,1053.925537 856.368713,1040.883545 854.181213,1027.945312 
	C853.061829,1021.324707 852.975586,1014.457520 853.119995,1007.716675 
	C853.249146,1001.690613 853.908936,995.598511 855.105042,989.691589 
	C856.724304,981.695496 859.079468,973.848450 861.118896,965.937500 
	C871.773315,977.247559 880.879944,988.521851 889.970764,999.808838 
	C900.504272,1012.886963 910.489319,1026.457642 921.709106,1038.917114 
	C931.714844,1050.028320 942.718811,1060.323975 953.939026,1070.236084 
	C966.666504,1081.479980 981.347290,1089.863647 997.344543,1095.661743 
	C1012.328064,1101.092529 1027.684692,1105.020386 1043.690674,1106.184814 
	C1045.219849,1106.296143 1047.163452,1108.713013 1047.900146,1110.481934 
	C1055.714111,1129.247681 1063.290771,1148.112061 1070.998535,1166.922363 
	C1076.627930,1180.660889 1082.553711,1194.281128 1087.980347,1208.098389 
	C1092.831055,1220.449219 1100.254150,1230.398315 1111.228638,1238.146729 
	C1126.011841,1248.584351 1142.635376,1252.750488 1160.159302,1253.882812 
	C1173.944458,1254.773438 1187.492554,1252.372803 1201.741455,1248.466797 
	C1183.378418,1194.328369 1165.110107,1140.469360 1146.841797,1086.610474 
	C1147.119995,1086.156616 1147.398071,1085.702881 1147.676147,1085.249146 
	C1151.589233,1086.812866 1156.389282,1087.434326 1159.244385,1090.121948 
	C1166.952637,1097.377930 1174.635986,1104.923462 1180.877930,1113.420166 
	C1194.740845,1132.290771 1205.303589,1153.168213 1214.827026,1174.507690 
	C1223.381592,1193.675537 1231.656738,1212.976685 1239.552490,1232.423096 
	C1241.075195,1236.173340 1243.051392,1238.487549 1246.458862,1239.784180 
	C1255.355225,1243.169312 1264.280518,1246.487427 1273.264893,1249.630127 
	C1280.713745,1252.235840 1288.107666,1255.469727 1295.805908,1256.780151 
	C1306.762207,1258.645142 1318.040771,1258.545166 1329.060547,1260.127686 
	C1341.486694,1261.911987 1353.563599,1260.563477 1365.622070,1257.923706 
	C1366.624390,1257.704224 1367.827393,1256.474854 1368.171509,1255.456177 
	C1380.053833,1220.282837 1391.885620,1185.091919 1403.532593,1149.840210 
	C1404.155640,1147.954834 1403.888306,1144.903076 1402.722900,1143.439087 
	C1394.573608,1133.201050 1386.010132,1123.294434 1377.709473,1113.174805 
	C1364.527710,1097.104492 1351.303589,1081.065674 1338.356201,1064.807251 
	C1315.008789,1035.488770 1297.865845,1002.673218 1285.096436,967.588379 
	C1277.037354,945.444946 1270.031006,922.920532 1262.240723,900.676208 
	C1256.802490,885.147888 1251.071289,869.712158 1245.049561,854.400818 
	C1236.814453,833.462158 1225.345093,814.698242 1207.215576,800.638550 
	C1206.075928,799.754639 1205.158691,797.886169 1205.089844,796.430725 
	C1204.589600,785.842529 1204.247803,775.244568 1204.019165,764.646240 
	C1203.618042,746.055298 1203.333618,727.461914 1203.001587,708.869507 
	C1202.992676,708.369629 1203.121460,707.830566 1202.976562,707.376709 
	C1202.492310,705.861023 1202.287109,704.049866 1201.311890,702.929138 
	C1191.181274,691.287292 1180.933472,679.747131 1170.691406,668.202637 
	C1165.012939,661.801941 1159.217651,655.503845 1153.591431,649.057861 
	C1142.791138,636.684021 1132.065796,624.244873 1121.325562,611.818848 
	C1115.414673,604.980103 1109.712158,597.951599 1103.597534,591.301147 
	C1096.663696,583.759827 1090.611084,575.360229 1080.242188,571.490479 
	C1071.022217,568.049377 1062.341309,563.180115 1053.363037,559.071228 
	C1041.458740,553.623291 1029.456055,548.387756 1017.617554,542.802551 
	C1016.332764,542.196472 1015.323364,539.960999 1015.088501,538.349854 
	C1013.839966,529.784729 1012.950623,521.168091 1011.801392,512.587463 
	C1010.265991,501.123840 1008.653015,489.670074 1006.980957,478.225555 
	C1006.090637,472.131134 1006.000122,465.671387 1003.784363,460.075043 
	C1000.091736,450.748199 995.078552,441.931213 990.366760,433.034454 
	C989.636169,431.654968 987.677551,430.459595 986.075562,430.086823 
	C978.188293,428.251587 970.179993,426.928253 962.311768,425.022186 
	C955.596069,423.395325 949.771851,423.458191 945.417175,429.940552 
	C944.200256,431.752014 941.758728,432.690643 940.226135,434.350250 
	C936.689453,438.179901 931.946716,441.663055 930.193726,446.243683 
	C921.147339,469.882477 912.889221,493.822906 904.339783,517.703674 
	C902.595398,517.998535 900.682373,518.419495 898.746460,518.632629 
	C889.276123,519.675354 879.875183,522.703735 870.271851,519.035645 
	C865.910583,517.369812 861.260254,516.474121 856.835266,514.954712 
	C855.408630,514.464905 853.740906,513.369507 853.102356,512.091858 
	C845.640442,497.161743 838.488708,482.075989 830.974060,467.173065 
	C825.939758,457.189331 821.309692,446.831085 814.917908,437.753632 
	C809.255493,429.712006 801.465332,423.152710 794.457031,416.095367 
	C793.601501,415.233826 791.719849,414.913757 790.398926,415.068878 
	C781.169189,416.152496 771.990784,417.887604 762.736572,418.467773 
	C757.216736,418.813812 754.197937,420.886963 752.473389,425.933502 
	C751.326843,429.288696 749.575378,432.440125 748.055176,435.664154 
	C744.056580,444.144165 741.647156,452.816132 741.863953,462.443207 
	C742.314148,482.431946 741.831116,502.440460 742.135315,522.434692 
	C742.200012,526.688660 740.897217,529.448181 737.710815,531.829834 
	C735.488586,533.490845 733.533997,535.514526 731.286743,537.136353 
	C729.181519,538.655701 726.971436,540.653564 724.588074,541.022278 
	C720.707886,541.622620 716.620300,540.736572 712.672302,541.078735 
	C706.974365,541.572632 702.861755,540.242798 698.721741,535.566650 
	C688.280151,523.772522 676.940491,512.773621 665.970520,501.446625 
	C665.285522,500.739410 664.726196,499.910126 664.037842,499.206696 
	C657.438782,492.463745 651.564026,484.706757 644.015076,479.281097 
	C635.815369,473.387756 626.120544,469.528381 616.914978,465.122009 
	C615.199585,464.300934 612.362976,464.386475 610.644531,465.249634 
	C601.958435,469.612518 593.395020,474.239777 584.985168,479.113586 
	C583.510132,479.968475 582.306763,482.375214 582.133118,484.176636 
	C581.719299,488.470032 582.633789,492.945801 581.872375,497.141083 
	C579.706177,509.076019 581.236206,520.470947 584.965149,531.876099 
	C590.785278,549.677002 596.288208,567.583740 601.720764,585.507629 
	C602.824707,589.149963 604.465637,593.568665 603.357727,596.761475 
	C600.344910,605.443359 595.243286,612.723816 584.349915,612.300354 
	C584.210327,612.294983 584.054321,612.546997 583.922485,612.532104 
	C581.738403,612.286621 579.124634,612.705261 577.442078,611.647217 
	C561.267639,601.476746 545.287598,590.997864 529.169556,580.736633 
	C522.772644,576.664185 516.528015,572.005554 509.564484,569.262878 
	C501.819794,566.212585 493.269470,565.271606 485.193726,562.976685 
	C479.310516,561.304749 475.077911,562.531860 470.990143,567.294312 
	C465.687134,573.472656 459.633942,579.019897 453.756287,584.685913 
	C451.388031,586.968933 450.458527,588.992065 451.626343,592.462646 
	C453.527008,598.111389 454.413574,604.092529 456.082275,609.830444 
	C458.059692,616.630066 459.286621,623.987305 462.809143,629.936035 
	C474.349792,649.425659 486.887909,668.321960 498.799347,687.596680 
	C501.625763,692.170349 503.937195,696.756958 504.401245,702.799316 
	C505.041809,711.139526 501.232361,714.995483 494.888702,717.970459 
	C491.600220,719.512695 487.768677,722.283386 484.770935,721.661621 
	C468.471130,718.281006 452.367676,713.962158 436.170929,710.073242 
	C423.761230,707.093567 411.401398,703.753418 398.394836,704.963257 
	C392.486969,705.512695 386.519989,706.135925 380.621246,705.854980 
	C375.689667,705.620178 373.550049,708.039368 372.010986,711.962402 
	C370.009857,717.063354 368.541809,722.475952 365.839264,727.176575 
	C360.995850,735.600952 359.210480,743.293640 367.756409,750.405640 
	C367.964386,750.578796 367.872253,751.077087 368.057739,751.317627 
	C375.117401,760.474976 381.551727,770.224121 389.442719,778.600708 
	C397.759064,787.428894 407.476105,794.936218 416.567078,803.036499 
	C422.710724,808.510559 428.634338,814.253784 435.022491,819.424316 
	C440.039154,823.484863 445.607971,826.821960 445.709229,834.330750 
	C445.767303,838.636963 447.273071,843.405579 445.882812,847.127869 
	C444.130554,851.819641 440.129059,855.687256 436.989349,859.828003 
	C436.519104,860.448181 435.480682,860.882568 434.664337,860.957397 
	C426.652466,861.691345 418.638000,862.418213 410.612366,862.975952 
	C399.766815,863.729675 388.909332,864.310120 378.059937,865.011108 
	C373.301239,865.318542 368.370789,865.055420 363.830261,866.243469 
	C352.135651,869.303467 340.668030,873.224670 328.993988,876.372742 
	C325.335938,877.359192 324.981415,879.219849 324.913635,882.379089 
	C324.783356,888.454041 324.537659,894.578308 323.615997,900.570862 
	C322.547913,907.515808 321.541077,913.916626 329.324371,917.986755 
	C332.015381,919.393921 334.035309,922.037964 336.489319,923.953674 
	C343.422394,929.365967 349.838654,935.797974 357.505402,939.844971 
	C379.449646,951.428589 401.929230,961.996155 424.136627,973.086731 
	C425.878876,973.956848 427.777161,975.509766 428.513794,977.215637 
	C430.942444,982.839966 433.200684,988.587891 434.851227,994.477051 
	C435.673706,997.411682 435.416016,1000.812317 434.969482,1003.904297 
	C434.112701,1009.836731 432.772766,1015.699341 431.578918,1021.871948 
	C431.092560,1021.922363 430.419128,1021.850708 429.860687,1022.070801 
	C413.642700,1028.463379 397.411346,1034.823486 381.239838,1041.332153 
	C374.661926,1043.979614 367.691284,1046.154297 361.838593,1049.980713 
	C353.409760,1055.491455 345.679352,1062.128418 338.019592,1068.713623 
	C336.256348,1070.229370 334.845428,1073.687622 335.234558,1075.907959 
	C336.880890,1085.301514 339.348907,1094.547974 341.341736,1103.885376 
	C342.088928,1107.386230 343.487579,1109.392334 347.384766,1110.286865 
	C352.051636,1111.358398 356.355927,1113.912109 360.950745,1115.416016 
	C369.205414,1118.117798 377.440979,1121.065430 385.904297,1122.891724 
	C395.119202,1124.880127 404.586609,1125.692749 413.939575,1127.048340 
	C425.222015,1128.683472 436.559021,1130.039185 447.748352,1132.167969 
	C451.788818,1132.936768 456.884674,1131.440308 459.750031,1136.270508 
	C461.233643,1138.771606 463.335815,1140.904419 464.833374,1143.398682 
	C468.659943,1149.772583 475.688019,1154.343994 475.582489,1162.978516 
	C475.549316,1165.693115 476.549744,1168.408447 476.947388,1171.142334 
	C477.950500,1178.039185 478.662903,1183.910645 471.552582,1189.483765 
	C460.643646,1198.034424 451.283752,1208.560303 441.247437,1218.228271 
	C440.552399,1218.897827 439.605499,1219.312012 438.935272,1220.000244 
	C433.764862,1225.310181 427.692871,1230.045532 423.720490,1236.144409 
	C418.345947,1244.396606 414.376160,1253.606934 410.307434,1262.633423 
	C409.384460,1264.680908 409.738312,1268.097412 410.860870,1270.136963 
	C415.840668,1279.184570 421.314240,1287.960571 426.707764,1297.000000 
	C436.562378,1297.000000 446.557831,1296.939697 456.551666,1297.041382 
	C459.130920,1297.067627 461.883728,1298.351440 464.253021,1297.785522 
	C482.334167,1293.466919 500.323334,1288.765259 518.378235,1284.333984 
	C524.786377,1282.761353 531.297668,1281.608765 538.290466,1280.845825 
M1426.495850,1559.002441 
	C1443.885132,1545.279297 1461.718872,1532.073853 1478.512939,1517.657104 
	C1490.392700,1507.459106 1500.841553,1495.597900 1511.986572,1484.537109 
	C1514.010864,1482.527832 1514.666504,1480.959229 1512.813965,1478.180908 
	C1501.308228,1460.925293 1490.012573,1443.529419 1478.674561,1426.162231 
	C1470.471313,1413.596680 1462.310059,1401.003540 1454.989990,1389.745239 
	C1464.837524,1374.639771 1474.462891,1360.424805 1483.468262,1345.827393 
	C1487.904297,1338.636719 1487.387451,1338.308472 1495.178711,1340.056641 
	C1526.295288,1347.038818 1557.412231,1354.019409 1588.525269,1361.017334 
	C1595.732300,1362.638428 1595.963867,1362.774658 1598.886353,1356.222900 
	C1607.502075,1336.908081 1616.727905,1317.809570 1624.190430,1298.050659 
	C1633.196899,1274.203491 1640.703735,1249.786377 1648.603271,1225.532593 
	C1649.094849,1224.023682 1647.916992,1221.055908 1646.558716,1220.012573 
	C1639.345459,1214.471313 1631.915405,1209.197388 1624.395874,1204.072144 
	C1604.187622,1190.298096 1583.861450,1176.696533 1563.711792,1162.838013 
	C1562.297729,1161.865601 1560.943848,1159.157227 1561.249268,1157.583618 
	C1565.076172,1137.864868 1569.214722,1118.206665 1573.346191,1098.180054 
	C1584.250488,1096.222168 1596.084229,1094.236572 1607.860352,1091.953125 
	C1629.664062,1087.725342 1651.442139,1083.361450 1673.195312,1078.882324 
	C1674.300049,1078.654785 1675.799683,1076.862061 1675.887207,1075.705322 
	C1677.052856,1060.272339 1678.762207,1044.826660 1678.843506,1029.376343 
	C1679.019409,995.950439 1678.320068,962.520081 1678.025879,929.091125 
	C1678.003662,926.576477 1677.454956,925.334106 1674.512695,924.889954 
	C1666.175415,923.631653 1657.913696,921.869141 1649.627441,920.278625 
	C1638.798096,918.199951 1627.986450,916.025513 1617.143677,914.020081 
	C1603.461792,911.489441 1589.755981,909.087769 1576.468872,906.703735 
	C1575.600220,900.895203 1574.794312,895.566528 1574.007812,890.235046 
	C1571.680176,874.456177 1569.267456,858.688599 1567.169434,842.879272 
	C1566.938599,841.140076 1567.976562,838.364685 1569.354858,837.408020 
	C1597.059692,818.177246 1624.838257,799.049988 1652.800293,780.196350 
	C1656.003662,778.036499 1656.643799,775.546082 1655.876587,772.766907 
	C1649.735107,750.521667 1643.670898,728.245972 1636.941162,706.175415 
	C1632.282837,690.897949 1626.668091,675.909180 1621.357788,660.834778 
	C1618.640381,653.120972 1615.653076,645.502136 1612.731934,637.691162 
	C1604.749268,639.537476 1597.376709,641.366150 1589.949951,642.938416 
	C1561.424927,648.976868 1532.885620,654.947510 1504.341553,660.895691 
	C1501.759399,661.433838 1499.993042,660.786926 1498.393921,658.041565 
	C1487.716431,639.712341 1476.805786,621.517212 1465.779663,603.394897 
	C1464.177856,600.762268 1464.220581,599.028442 1465.902100,596.513245 
	C1487.793823,563.765747 1509.584961,530.950928 1531.362793,498.127502 
	C1532.938232,495.753082 1533.824707,493.602570 1531.385254,490.677277 
	C1519.870972,476.870605 1509.363892,462.157410 1497.157837,449.011444 
	C1482.363403,433.077820 1466.268188,418.347290 1450.627808,403.207855 
	C1447.715820,400.389221 1444.155151,398.249420 1441.153442,395.511719 
	C1439.093994,393.633270 1437.912720,393.951630 1435.747559,395.590271 
	C1426.437500,402.636017 1416.864868,409.333984 1407.422363,416.205963 
	C1392.439331,427.109955 1377.497192,438.070374 1362.510864,448.969818 
	C1354.968750,454.455048 1347.367310,459.858551 1340.083862,465.089996 
	C1337.472290,463.054688 1335.428223,461.420868 1333.342285,459.842651 
	C1316.885620,447.391785 1300.510742,434.829132 1283.868286,422.631439 
	C1281.174316,420.657013 1280.719360,419.065430 1281.343384,416.182373 
	C1283.332153,406.993408 1285.134766,397.764099 1286.998413,388.548218 
	C1290.212891,372.653107 1293.469360,356.766235 1296.604980,340.855560 
	C1297.939819,334.082520 1299.014771,327.258240 1300.288086,320.000000 
	C1297.760010,320.000000 1295.953735,320.000000 1294.147461,320.000000 
	C1110.988037,320.000000 927.828674,320.002350 744.669250,319.994812 
	C731.960022,319.994293 720.982605,324.624481 712.160034,333.454987 
	C679.224915,366.419800 646.533386,399.628021 613.767822,432.762085 
	C613.022644,433.515656 612.483154,434.472626 611.610046,435.657288 
	C626.052368,443.250641 640.141602,450.556000 654.111755,458.082367 
	C657.227844,459.761108 660.304321,461.849487 662.751709,464.376221 
	C674.723450,476.735809 686.513428,489.272644 698.289246,501.820374 
	C703.559875,507.436462 708.646790,513.224915 713.756592,518.868347 
	C718.984741,517.965027 720.409119,514.867065 720.104980,509.771637 
	C719.434082,498.530609 719.210876,487.257416 719.035950,475.993805 
	C718.870422,465.330109 718.989258,454.661835 719.017639,443.995667 
	C719.020203,443.029846 719.049011,441.957336 719.447754,441.115234 
	C725.893738,427.499664 732.373657,413.899780 738.953918,400.348816 
	C739.432373,399.363403 740.663696,398.239288 741.675598,398.094910 
	C752.011230,396.620209 762.388489,395.437714 772.724304,393.964355 
	C780.767029,392.817871 788.737732,391.095367 796.805115,390.237823 
	C799.169434,389.986511 802.399475,391.146332 804.133362,392.807159 
	C814.240295,402.487793 824.090332,412.441528 833.859497,422.466339 
	C836.215820,424.884369 838.364807,427.704071 839.883728,430.706055 
	C849.707031,450.120850 859.642822,469.491089 868.837830,489.204224 
	C871.824707,495.607727 875.408081,497.970398 882.267761,497.178589 
	C885.459900,496.810120 886.981812,495.777924 887.957275,493.001434 
	C894.586243,474.133728 901.208130,455.263031 907.990295,436.450287 
	C908.893738,433.944336 910.260498,431.315887 912.142212,429.500122 
	C922.604492,419.404114 933.235901,409.480042 943.978577,399.682556 
	C945.215332,398.554565 947.637695,397.862762 949.279602,398.176453 
	C965.672913,401.308655 981.997253,404.801300 998.388428,407.944977 
	C1003.489868,408.923401 1006.879150,410.806946 1009.199768,416.053955 
	C1014.447937,427.920471 1020.708435,439.337250 1026.444824,450.992249 
	C1027.279785,452.688629 1027.715820,454.660522 1027.962402,456.553619 
	C1029.079956,465.133575 1029.959351,473.745148 1031.120728,482.318726 
	C1032.651367,493.618439 1034.575562,504.868317 1035.918335,516.188538 
	C1036.671143,522.534790 1037.950928,527.276611 1044.982666,530.228210 
	C1063.313599,537.922668 1081.274780,546.524048 1099.188232,555.168030 
	C1103.204956,557.106201 1106.709473,560.409851 1109.932251,563.606689 
	C1113.398438,567.044739 1116.180420,571.161865 1119.391846,574.869202 
	C1130.577393,587.781372 1141.821533,600.642517 1153.039307,613.526611 
	C1166.522461,629.012573 1179.960693,644.537842 1193.495605,659.978394 
	C1203.793457,671.726135 1214.239746,683.343689 1224.525024,695.102295 
	C1225.386841,696.087524 1225.884277,697.689941 1225.942627,699.032104 
	C1226.380981,709.120422 1226.755493,719.213440 1226.980225,729.308716 
	C1227.382690,747.400574 1227.566040,765.498108 1228.125244,783.584534 
	C1228.196655,785.892639 1229.522217,788.518433 1231.039917,790.359436 
	C1235.846069,796.189026 1241.483398,801.372375 1245.964111,807.423950 
	C1260.086304,826.497375 1268.862061,848.364136 1276.847534,870.417725 
	C1287.185059,898.966675 1296.401611,927.919678 1306.295898,956.631470 
	C1314.082764,979.228088 1324.527100,1000.601135 1337.900146,1020.398987 
	C1350.798340,1039.494141 1363.928101,1058.458740 1377.673096,1076.947510 
	C1387.691406,1090.423218 1398.794312,1103.099976 1409.568604,1116.003662 
	C1416.097656,1123.823242 1422.998291,1131.332642 1429.528320,1139.151245 
	C1430.452759,1140.258057 1430.830688,1142.509521 1430.415894,1143.924561 
	C1428.829590,1149.335449 1426.756714,1154.601196 1424.971558,1159.956543 
	C1412.615845,1197.025879 1400.306274,1234.110840 1387.885742,1271.158447 
	C1387.332153,1272.809448 1386.177490,1274.856567 1384.746094,1275.522705 
	C1371.143677,1281.850830 1356.594116,1284.770630 1341.759277,1284.794067 
	C1329.822021,1284.812988 1317.809082,1283.524048 1305.961548,1281.870361 
	C1291.829590,1279.897949 1277.817749,1277.026001 1263.792358,1274.341919 
	C1251.446289,1271.979004 1239.093262,1270.325195 1226.615234,1273.035889 
	C1214.164307,1275.740479 1204.676758,1287.304443 1204.842163,1300.054688 
	C1205.298584,1335.213989 1205.207275,1370.385132 1204.881592,1405.547363 
	C1204.775146,1417.023193 1208.980103,1426.684937 1215.818237,1435.063354 
	C1223.770874,1444.807373 1232.269653,1454.256836 1241.531616,1462.742188 
	C1252.481201,1472.773560 1264.233521,1481.992432 1276.117188,1490.926025 
	C1294.670532,1504.873657 1313.611572,1518.306030 1332.416504,1531.918091 
	C1352.282349,1546.298218 1372.235718,1560.558472 1392.004272,1575.070923 
	C1394.885742,1577.186157 1397.131958,1577.325806 1399.952881,1575.572754 
	C1408.607178,1570.193726 1417.295044,1564.868530 1426.495850,1559.002441 
z"/>
<path fill="#FFD200" opacity="1.000000" stroke="none" 
	d="
M538.026123,1280.555176 
	C531.297668,1281.608765 524.786377,1282.761353 518.378235,1284.333984 
	C500.323334,1288.765259 482.334167,1293.466919 464.253021,1297.785522 
	C461.883728,1298.351440 459.130920,1297.067627 456.551666,1297.041382 
	C446.557831,1296.939697 436.562378,1297.000000 426.707764,1297.000000 
	C421.314240,1287.960571 415.840668,1279.184570 410.860870,1270.136963 
	C409.738312,1268.097412 409.384460,1264.680908 410.307434,1262.633423 
	C414.376160,1253.606934 418.345947,1244.396606 423.720490,1236.144409 
	C427.692871,1230.045532 433.764862,1225.310181 438.935272,1220.000244 
	C439.605499,1219.312012 440.552399,1218.897827 441.247437,1218.228271 
	C451.283752,1208.560303 460.643646,1198.034424 471.552582,1189.483765 
	C478.662903,1183.910645 477.950500,1178.039185 476.947388,1171.142334 
	C476.549744,1168.408447 475.549316,1165.693115 475.582489,1162.978516 
	C475.688019,1154.343994 468.659943,1149.772583 464.833374,1143.398682 
	C463.335815,1140.904419 461.233643,1138.771606 459.750031,1136.270508 
	C456.884674,1131.440308 451.788818,1132.936768 447.748352,1132.167969 
	C436.559021,1130.039185 425.222015,1128.683472 413.939575,1127.048340 
	C404.586609,1125.692749 395.119202,1124.880127 385.904297,1122.891724 
	C377.440979,1121.065430 369.205414,1118.117798 360.950745,1115.416016 
	C356.355927,1113.912109 352.051636,1111.358398 347.384766,1110.286865 
	C343.487579,1109.392334 342.088928,1107.386230 341.341736,1103.885376 
	C339.348907,1094.547974 336.880890,1085.301514 335.234558,1075.907959 
	C334.845428,1073.687622 336.256348,1070.229370 338.019592,1068.713623 
	C345.679352,1062.128418 353.409760,1055.491455 361.838593,1049.980713 
	C367.691284,1046.154297 374.661926,1043.979614 381.239838,1041.332153 
	C397.411346,1034.823486 413.642700,1028.463379 429.860687,1022.070801 
	C430.419128,1021.850708 431.092560,1021.922363 431.578918,1021.871948 
	C432.772766,1015.699341 434.112701,1009.836731 434.969482,1003.904297 
	C435.416016,1000.812317 435.673706,997.411682 434.851227,994.477051 
	C433.200684,988.587891 430.942444,982.839966 428.513794,977.215637 
	C427.777161,975.509766 425.878876,973.956848 424.136627,973.086731 
	C401.929230,961.996155 379.449646,951.428589 357.505402,939.844971 
	C349.838654,935.797974 343.422394,929.365967 336.489319,923.953674 
	C334.035309,922.037964 332.015381,919.393921 329.324371,917.986755 
	C321.541077,913.916626 322.547913,907.515808 323.615997,900.570862 
	C324.537659,894.578308 324.783356,888.454041 324.913635,882.379089 
	C324.981415,879.219849 325.335938,877.359192 328.993988,876.372742 
	C340.668030,873.224670 352.135651,869.303467 363.830261,866.243469 
	C368.370789,865.055420 373.301239,865.318542 378.059937,865.011108 
	C388.909332,864.310120 399.766815,863.729675 410.612366,862.975952 
	C418.638000,862.418213 426.652466,861.691345 434.664337,860.957397 
	C435.480682,860.882568 436.519104,860.448181 436.989349,859.828003 
	C440.129059,855.687256 444.130554,851.819641 445.882812,847.127869 
	C447.273071,843.405579 445.767303,838.636963 445.709229,834.330750 
	C445.607971,826.821960 440.039154,823.484863 435.022491,819.424316 
	C428.634338,814.253784 422.710724,808.510559 416.567078,803.036499 
	C407.476105,794.936218 397.759064,787.428894 389.442719,778.600708 
	C381.551727,770.224121 375.117401,760.474976 368.057739,751.317627 
	C367.872253,751.077087 367.964386,750.578796 367.756409,750.405640 
	C359.210480,743.293640 360.995850,735.600952 365.839264,727.176575 
	C368.541809,722.475952 370.009857,717.063354 372.010986,711.962402 
	C373.550049,708.039368 375.689667,705.620178 380.621246,705.854980 
	C386.519989,706.135925 392.486969,705.512695 398.394836,704.963257 
	C411.401398,703.753418 423.761230,707.093567 436.170929,710.073242 
	C452.367676,713.962158 468.471130,718.281006 484.770935,721.661621 
	C487.768677,722.283386 491.600220,719.512695 494.888702,717.970459 
	C501.232361,714.995483 505.041809,711.139526 504.401245,702.799316 
	C503.937195,696.756958 501.625763,692.170349 498.799347,687.596680 
	C486.887909,668.321960 474.349792,649.425659 462.809143,629.936035 
	C459.286621,623.987305 458.059692,616.630066 456.082275,609.830444 
	C454.413574,604.092529 453.527008,598.111389 451.626343,592.462646 
	C450.458527,588.992065 451.388031,586.968933 453.756287,584.685913 
	C459.633942,579.019897 465.687134,573.472656 470.990143,567.294312 
	C475.077911,562.531860 479.310516,561.304749 485.193726,562.976685 
	C493.269470,565.271606 501.819794,566.212585 509.564484,569.262878 
	C516.528015,572.005554 522.772644,576.664185 529.169556,580.736633 
	C545.287598,590.997864 561.267639,601.476746 577.442078,611.647217 
	C579.124634,612.705261 581.738403,612.286621 583.922485,612.532104 
	C584.054321,612.546997 584.210327,612.294983 584.349915,612.300354 
	C595.243286,612.723816 600.344910,605.443359 603.357727,596.761475 
	C604.465637,593.568665 602.824707,589.149963 601.720764,585.507629 
	C596.288208,567.583740 590.785278,549.677002 584.965149,531.876099 
	C581.236206,520.470947 579.706177,509.076019 581.872375,497.141083 
	C582.633789,492.945801 581.719299,488.470032 582.133118,484.176636 
	C582.306763,482.375214 583.510132,479.968475 584.985168,479.113586 
	C593.395020,474.239777 601.958435,469.612518 610.644531,465.249634 
	C612.362976,464.386475 615.199585,464.300934 616.914978,465.122009 
	C626.120544,469.528381 635.815369,473.387756 644.015076,479.281097 
	C651.564026,484.706757 657.438782,492.463745 664.037842,499.206696 
	C664.726196,499.910126 665.285522,500.739410 665.970520,501.446625 
	C676.940491,512.773621 688.280151,523.772522 698.721741,535.566650 
	C702.861755,540.242798 706.974365,541.572632 712.672302,541.078735 
	C716.620300,540.736572 720.707886,541.622620 724.588074,541.022278 
	C726.971436,540.653564 729.181519,538.655701 731.286743,537.136353 
	C733.533997,535.514526 735.488586,533.490845 737.710815,531.829834 
	C740.897217,529.448181 742.200012,526.688660 742.135315,522.434692 
	C741.831116,502.440460 742.314148,482.431946 741.863953,462.443207 
	C741.647156,452.816132 744.056580,444.144165 748.055176,435.664154 
	C749.575378,432.440125 751.326843,429.288696 752.473389,425.933502 
	C754.197937,420.886963 757.216736,418.813812 762.736572,418.467773 
	C771.990784,417.887604 781.169189,416.152496 790.398926,415.068878 
	C791.719849,414.913757 793.601501,415.233826 794.457031,416.095367 
	C801.465332,423.152710 809.255493,429.712006 814.917908,437.753632 
	C821.309692,446.831085 825.939758,457.189331 830.974060,467.173065 
	C838.488708,482.075989 845.640442,497.161743 853.102356,512.091858 
	C853.740906,513.369507 855.408630,514.464905 856.835266,514.954712 
	C861.260254,516.474121 865.910583,517.369812 870.271851,519.035645 
	C879.875183,522.703735 889.276123,519.675354 898.746460,518.632629 
	C900.682373,518.419495 902.595398,517.998535 904.339783,517.703674 
	C912.889221,493.822906 921.147339,469.882477 930.193726,446.243683 
	C931.946716,441.663055 936.689453,438.179901 940.226135,434.350250 
	C941.758728,432.690643 944.200256,431.752014 945.417175,429.940552 
	C949.771851,423.458191 955.596069,423.395325 962.311768,425.022186 
	C970.179993,426.928253 978.188293,428.251587 986.075562,430.086823 
	C987.677551,430.459595 989.636169,431.654968 990.366760,433.034454 
	C995.078552,441.931213 1000.091736,450.748199 1003.784363,460.075043 
	C1006.000122,465.671387 1006.090637,472.131134 1006.980957,478.225555 
	C1008.653015,489.670074 1010.265991,501.123840 1011.801392,512.587463 
	C1012.950623,521.168091 1013.839966,529.784729 1015.088501,538.349854 
	C1015.323364,539.960999 1016.332764,542.196472 1017.617554,542.802551 
	C1029.456055,548.387756 1041.458740,553.623291 1053.363037,559.071228 
	C1062.341309,563.180115 1071.022217,568.049377 1080.242188,571.490479 
	C1090.611084,575.360229 1096.663696,583.759827 1103.597534,591.301147 
	C1109.712158,597.951599 1115.414673,604.980103 1121.325562,611.818848 
	C1132.065796,624.244873 1142.791138,636.684021 1153.591431,649.057861 
	C1159.217651,655.503845 1165.012939,661.801941 1170.691406,668.202637 
	C1180.933472,679.747131 1191.181274,691.287292 1201.311890,702.929138 
	C1202.287109,704.049866 1202.492310,705.861023 1202.976562,707.376709 
	C1203.121460,707.830566 1202.992676,708.369629 1203.001587,708.869507 
	C1203.333618,727.461914 1203.618042,746.055298 1204.019165,764.646240 
	C1204.247803,775.244568 1204.589600,785.842529 1205.089844,796.430725 
	C1205.158691,797.886169 1206.075928,799.754639 1207.215576,800.638550 
	C1225.345093,814.698242 1236.814453,833.462158 1245.049561,854.400818 
	C1251.071289,869.712158 1256.802490,885.147888 1262.240723,900.676208 
	C1270.031006,922.920532 1277.037354,945.444946 1285.096436,967.588379 
	C1297.865845,1002.673218 1315.008789,1035.488770 1338.356201,1064.807251 
	C1351.303589,1081.065674 1364.527710,1097.104492 1377.709473,1113.174805 
	C1386.010132,1123.294434 1394.573608,1133.201050 1402.722900,1143.439087 
	C1403.888306,1144.903076 1404.155640,1147.954834 1403.532593,1149.840210 
	C1391.885620,1185.091919 1380.053833,1220.282837 1368.171509,1255.456177 
	C1367.827393,1256.474854 1366.624390,1257.704224 1365.622070,1257.923706 
	C1353.563599,1260.563477 1341.486694,1261.911987 1329.060547,1260.127686 
	C1318.040771,1258.545166 1306.762207,1258.645142 1295.805908,1256.780151 
	C1288.107666,1255.469727 1280.713745,1252.235840 1273.264893,1249.630127 
	C1264.280518,1246.487427 1255.355225,1243.169312 1246.458862,1239.784180 
	C1243.051392,1238.487549 1241.075195,1236.173340 1239.552490,1232.423096 
	C1231.656738,1212.976685 1223.381592,1193.675537 1214.827026,1174.507690 
	C1205.303589,1153.168213 1194.740845,1132.290771 1180.877930,1113.420166 
	C1174.635986,1104.923462 1166.952637,1097.377930 1159.244385,1090.121948 
	C1156.389282,1087.434326 1151.589233,1086.812866 1147.676147,1085.249146 
	C1147.398071,1085.702881 1147.119995,1086.156616 1146.841797,1086.610474 
	C1165.110107,1140.469360 1183.378418,1194.328369 1201.741455,1248.466797 
	C1187.492554,1252.372803 1173.944458,1254.773438 1160.159302,1253.882812 
	C1142.635376,1252.750488 1126.011841,1248.584351 1111.228638,1238.146729 
	C1100.254150,1230.398315 1092.831055,1220.449219 1087.980347,1208.098389 
	C1082.553711,1194.281128 1076.627930,1180.660889 1070.998535,1166.922363 
	C1063.290771,1148.112061 1055.714111,1129.247681 1047.900146,1110.481934 
	C1047.163452,1108.713013 1045.219849,1106.296143 1043.690674,1106.184814 
	C1027.684692,1105.020386 1012.328064,1101.092529 997.344543,1095.661743 
	C981.347290,1089.863647 966.666504,1081.479980 953.939026,1070.236084 
	C942.718811,1060.323975 931.714844,1050.028320 921.709106,1038.917114 
	C910.489319,1026.457642 900.504272,1012.886963 889.970764,999.808838 
	C880.879944,988.521851 871.773315,977.247559 861.118896,965.937500 
	C859.079468,973.848450 856.724304,981.695496 855.105042,989.691589 
	C853.908936,995.598511 853.249146,1001.690613 853.119995,1007.716675 
	C852.975586,1014.457520 853.061829,1021.324707 854.181213,1027.945312 
	C856.368713,1040.883545 858.532166,1053.925537 862.199829,1066.488281 
	C866.757751,1082.100464 872.094177,1097.579590 878.395203,1112.569458 
	C892.751526,1146.722046 911.530212,1178.500122 933.032166,1208.614868 
	C943.898132,1223.833252 955.403442,1238.605835 966.905945,1253.356812 
	C988.411194,1280.935547 1012.645691,1306.056763 1037.868408,1330.183960 
	C1052.847290,1344.512085 1068.605835,1358.037476 1084.238159,1371.666382 
	C1096.708984,1382.538818 1109.330566,1393.257080 1122.229370,1403.615112 
	C1136.448242,1415.032837 1151.019897,1426.013794 1165.510620,1437.089844 
	C1183.633057,1450.941895 1201.753906,1464.798218 1220.016724,1478.463867 
	C1236.291016,1490.641479 1252.738892,1502.587646 1269.144897,1514.588623 
	C1285.006226,1526.191284 1300.944336,1537.688843 1316.788452,1549.314819 
	C1333.826294,1561.817017 1350.791504,1574.417969 1367.794434,1586.967651 
	C1369.874390,1588.503052 1371.990601,1589.989502 1374.719116,1591.950684 
	C1371.982788,1593.812866 1369.808228,1595.727661 1367.294067,1596.935913 
	C1343.376099,1608.431763 1319.503784,1620.031982 1295.412354,1631.156006 
	C1271.104980,1642.379761 1245.399048,1649.626953 1219.421509,1655.632935 
	C1205.980957,1658.740356 1192.151367,1660.447632 1178.402100,1661.856323 
	C1165.287231,1663.199951 1152.008545,1664.315796 1138.873047,1663.781006 
	C1116.415771,1662.867065 1093.946899,1660.380249 1073.961792,1648.833618 
	C1064.858765,1643.574341 1056.608521,1636.812378 1048.100342,1630.556641 
	C1035.263428,1621.118164 1022.446655,1611.647217 1009.801636,1601.954712 
	C1001.908386,1595.904663 994.248901,1589.537476 986.658203,1583.107544 
	C974.634949,1572.923096 962.376282,1562.972046 950.906799,1552.188721 
	C933.595642,1535.913208 916.681274,1519.200439 899.986511,1502.290283 
	C890.856140,1493.042114 882.332642,1483.169678 873.882019,1473.282593 
	C864.529358,1462.340088 855.084167,1451.419067 846.553955,1439.844238 
	C832.689087,1421.030762 819.090393,1401.986328 806.230103,1382.478516 
	C796.786621,1368.153931 788.507996,1353.042847 780.060547,1338.084473 
	C767.074524,1315.088989 756.433472,1290.973877 746.812988,1266.405640 
	C735.482666,1237.471069 726.228455,1207.892822 720.025757,1177.423340 
	C716.789551,1161.526245 713.615112,1145.596558 711.158875,1129.567261 
	C709.448853,1118.407227 708.580872,1107.071411 708.089539,1095.781372 
	C707.117310,1073.440552 706.003906,1051.070557 706.225647,1028.725220 
	C706.381653,1013.016541 708.596191,997.324036 709.993225,981.633423 
	C710.729492,973.363464 711.683716,965.112915 712.553284,956.721191 
	C712.153992,957.224854 711.584473,957.747131 711.251587,958.391663 
	C697.568787,984.883728 685.159668,1011.977295 676.921265,1040.666504 
	C671.125854,1060.848389 666.342163,1081.368286 662.170105,1101.952759 
	C659.197327,1116.620361 657.116211,1131.592529 656.200378,1146.524658 
	C654.770935,1169.828979 654.071411,1193.218384 654.226318,1216.564209 
	C654.317261,1230.273315 656.357361,1244.005615 658.069336,1257.658691 
	C660.074036,1273.646729 662.187683,1289.651611 665.161072,1305.478760 
	C667.876465,1319.932617 671.415771,1334.265259 675.302734,1348.456543 
	C679.345154,1363.215820 683.776245,1377.905518 688.878052,1392.328369 
	C695.222351,1410.263428 701.903748,1428.118774 709.402710,1445.595337 
	C717.691650,1464.912720 726.260193,1484.196899 736.178589,1502.706787 
	C748.704529,1526.082764 762.393250,1548.859985 776.210693,1571.510864 
	C784.551941,1585.184814 793.597595,1598.498901 803.222595,1611.301025 
	C813.625305,1625.137573 824.928162,1638.311035 836.124207,1651.531738 
	C841.568542,1657.960449 847.427795,1664.086914 853.538696,1669.887207 
	C858.614258,1674.704590 864.341431,1678.834106 869.755920,1683.297485 
	C870.495605,1683.906982 871.096069,1684.685181 872.713684,1686.388184 
	C868.776428,1685.719971 866.076599,1685.550659 863.556152,1684.788574 
	C840.836060,1677.918945 817.967834,1671.476074 795.494690,1663.869263 
	C766.643372,1654.103394 738.989075,1641.384521 712.158142,1626.974976 
	C690.398315,1615.288696 669.708252,1601.811157 650.301147,1586.581421 
	C632.756348,1572.813232 616.745178,1557.299683 601.918152,1540.546265 
	C584.109741,1520.423828 569.379028,1498.307983 557.708984,1474.179688 
	C547.513367,1453.099731 540.035706,1431.094849 536.990906,1407.746338 
	C536.337769,1402.737183 535.197449,1397.734131 535.157593,1392.721313 
	C535.127686,1388.949097 535.771912,1384.820801 537.372009,1381.446655 
	C544.329590,1366.775635 551.697876,1352.297607 559.023071,1337.803223 
	C561.799438,1332.309692 565.100159,1327.070068 567.662659,1321.485596 
	C568.537109,1319.580078 568.578613,1316.694702 567.793457,1314.742432 
	C565.799500,1309.785278 563.855469,1304.501709 560.538757,1300.458618 
	C556.144897,1295.102295 550.526062,1290.732544 545.306946,1286.080811 
	C543.136719,1284.146606 540.639160,1282.579712 538.026123,1280.555176 
M1113.330200,870.068298 
	C1119.727661,872.445496 1126.125244,874.822693 1133.428711,877.536560 
	C1127.394775,863.859497 1121.828613,851.309753 1116.318237,838.735474 
	C1109.132935,822.338867 1102.022583,805.909180 1094.805176,789.526794 
	C1093.435547,786.418213 1092.077637,783.953674 1087.870361,782.741882 
	C1063.133423,775.616821 1041.963623,762.327515 1024.237671,743.676514 
	C1017.270508,736.345825 1010.654236,728.681702 1003.554504,720.810547 
	C1002.716980,722.118347 1001.748474,723.367981 1001.053711,724.754761 
	C990.664062,745.493286 992.082947,766.277161 1001.443604,786.798706 
	C1008.169495,801.544006 1018.242249,813.754517 1030.636719,824.315369 
	C1043.337769,835.137329 1056.867310,844.621094 1071.824585,851.869690 
	C1085.184692,858.344299 1098.946289,863.990234 1113.330200,870.068298 
M1317.995972,1151.285767 
	C1313.815674,1169.839722 1300.539062,1178.649658 1282.941528,1183.385620 
	C1297.873535,1190.515991 1312.272705,1197.458740 1326.777466,1204.174072 
	C1327.785889,1204.640869 1330.148193,1203.871094 1330.917603,1202.907349 
	C1339.200195,1192.532104 1341.907593,1180.077271 1341.752930,1167.370972 
	C1341.617432,1156.235229 1339.408203,1145.128296 1333.071045,1135.389038 
	C1329.519043,1129.930298 1325.649048,1124.870605 1319.058350,1121.763184 
	C1319.058350,1124.584473 1319.141724,1126.876831 1319.042725,1129.161133 
	C1318.735596,1136.250366 1318.359131,1143.336304 1317.995972,1151.285767 
z"/>
<path fill="#FFD200" opacity="1.000000" stroke="none" 
	d="
M1426.232788,1559.262451 
	C1417.295044,1564.868530 1408.607178,1570.193726 1399.952881,1575.572754 
	C1397.131958,1577.325806 1394.885742,1577.186157 1392.004272,1575.070923 
	C1372.235718,1560.558472 1352.282349,1546.298218 1332.416504,1531.918091 
	C1313.611572,1518.306030 1294.670532,1504.873657 1276.117188,1490.926025 
	C1264.233521,1481.992432 1252.481201,1472.773560 1241.531616,1462.742188 
	C1232.269653,1454.256836 1223.770874,1444.807373 1215.818237,1435.063354 
	C1208.980103,1426.684937 1204.775146,1417.023193 1204.881592,1405.547363 
	C1205.207275,1370.385132 1205.298584,1335.213989 1204.842163,1300.054688 
	C1204.676758,1287.304443 1214.164307,1275.740479 1226.615234,1273.035889 
	C1239.093262,1270.325195 1251.446289,1271.979004 1263.792358,1274.341919 
	C1277.817749,1277.026001 1291.829590,1279.897949 1305.961548,1281.870361 
	C1317.809082,1283.524048 1329.822021,1284.812988 1341.759277,1284.794067 
	C1356.594116,1284.770630 1371.143677,1281.850830 1384.746094,1275.522705 
	C1386.177490,1274.856567 1387.332153,1272.809448 1387.885742,1271.158447 
	C1400.306274,1234.110840 1412.615845,1197.025879 1424.971558,1159.956543 
	C1426.756714,1154.601196 1428.829590,1149.335449 1430.415894,1143.924561 
	C1430.830688,1142.509521 1430.452759,1140.258057 1429.528320,1139.151245 
	C1422.998291,1131.332642 1416.097656,1123.823242 1409.568604,1116.003662 
	C1398.794312,1103.099976 1387.691406,1090.423218 1377.673096,1076.947510 
	C1363.928101,1058.458740 1350.798340,1039.494141 1337.900146,1020.398987 
	C1324.527100,1000.601135 1314.082764,979.228088 1306.295898,956.631470 
	C1296.401611,927.919678 1287.185059,898.966675 1276.847534,870.417725 
	C1268.862061,848.364136 1260.086304,826.497375 1245.964111,807.423950 
	C1241.483398,801.372375 1235.846069,796.189026 1231.039917,790.359436 
	C1229.522217,788.518433 1228.196655,785.892639 1228.125244,783.584534 
	C1227.566040,765.498108 1227.382690,747.400574 1226.980225,729.308716 
	C1226.755493,719.213440 1226.380981,709.120422 1225.942627,699.032104 
	C1225.884277,697.689941 1225.386841,696.087524 1224.525024,695.102295 
	C1214.239746,683.343689 1203.793457,671.726135 1193.495605,659.978394 
	C1179.960693,644.537842 1166.522461,629.012573 1153.039307,613.526611 
	C1141.821533,600.642517 1130.577393,587.781372 1119.391846,574.869202 
	C1116.180420,571.161865 1113.398438,567.044739 1109.932251,563.606689 
	C1106.709473,560.409851 1103.204956,557.106201 1099.188232,555.168030 
	C1081.274780,546.524048 1063.313599,537.922668 1044.982666,530.228210 
	C1037.950928,527.276611 1036.671143,522.534790 1035.918335,516.188538 
	C1034.575562,504.868317 1032.651367,493.618439 1031.120728,482.318726 
	C1029.959351,473.745148 1029.079956,465.133575 1027.962402,456.553619 
	C1027.715820,454.660522 1027.279785,452.688629 1026.444824,450.992249 
	C1020.708435,439.337250 1014.447937,427.920471 1009.199768,416.053955 
	C1006.879150,410.806946 1003.489868,408.923401 998.388428,407.944977 
	C981.997253,404.801300 965.672913,401.308655 949.279602,398.176453 
	C947.637695,397.862762 945.215332,398.554565 943.978577,399.682556 
	C933.235901,409.480042 922.604492,419.404114 912.142212,429.500122 
	C910.260498,431.315887 908.893738,433.944336 907.990295,436.450287 
	C901.208130,455.263031 894.586243,474.133728 887.957275,493.001434 
	C886.981812,495.777924 885.459900,496.810120 882.267761,497.178589 
	C875.408081,497.970398 871.824707,495.607727 868.837830,489.204224 
	C859.642822,469.491089 849.707031,450.120850 839.883728,430.706055 
	C838.364807,427.704071 836.215820,424.884369 833.859497,422.466339 
	C824.090332,412.441528 814.240295,402.487793 804.133362,392.807159 
	C802.399475,391.146332 799.169434,389.986511 796.805115,390.237823 
	C788.737732,391.095367 780.767029,392.817871 772.724304,393.964355 
	C762.388489,395.437714 752.011230,396.620209 741.675598,398.094910 
	C740.663696,398.239288 739.432373,399.363403 738.953918,400.348816 
	C732.373657,413.899780 725.893738,427.499664 719.447754,441.115234 
	C719.049011,441.957336 719.020203,443.029846 719.017639,443.995667 
	C718.989258,454.661835 718.870422,465.330109 719.035950,475.993805 
	C719.210876,487.257416 719.434082,498.530609 720.104980,509.771637 
	C720.409119,514.867065 718.984741,517.965027 713.756592,518.868347 
	C708.646790,513.224915 703.559875,507.436462 698.289246,501.820374 
	C686.513428,489.272644 674.723450,476.735809 662.751709,464.376221 
	C660.304321,461.849487 657.227844,459.761108 654.111755,458.082367 
	C640.141602,450.556000 626.052368,443.250641 611.610046,435.657288 
	C612.483154,434.472626 613.022644,433.515656 613.767822,432.762085 
	C646.533386,399.628021 679.224915,366.419800 712.160034,333.454987 
	C720.982605,324.624481 731.960022,319.994293 744.669250,319.994812 
	C927.828674,320.002350 1110.988037,320.000000 1294.147461,320.000000 
	C1295.953735,320.000000 1297.760010,320.000000 1300.288086,320.000000 
	C1299.014771,327.258240 1297.939819,334.082520 1296.604980,340.855560 
	C1293.469360,356.766235 1290.212891,372.653107 1286.998413,388.548218 
	C1285.134766,397.764099 1283.332153,406.993408 1281.343384,416.182373 
	C1280.719360,419.065430 1281.174316,420.657013 1283.868286,422.631439 
	C1300.510742,434.829132 1316.885620,447.391785 1333.342285,459.842651 
	C1335.428223,461.420868 1337.472290,463.054688 1340.083862,465.089996 
	C1347.367310,459.858551 1354.968750,454.455048 1362.510864,448.969818 
	C1377.497192,438.070374 1392.439331,427.109955 1407.422363,416.205963 
	C1416.864868,409.333984 1426.437500,402.636017 1435.747559,395.590271 
	C1437.912720,393.951630 1439.093994,393.633270 1441.153442,395.511719 
	C1444.155151,398.249420 1447.715820,400.389221 1450.627808,403.207855 
	C1466.268188,418.347290 1482.363403,433.077820 1497.157837,449.011444 
	C1509.363892,462.157410 1519.870972,476.870605 1531.385254,490.677277 
	C1533.824707,493.602570 1532.938232,495.753082 1531.362793,498.127502 
	C1509.584961,530.950928 1487.793823,563.765747 1465.902100,596.513245 
	C1464.220581,599.028442 1464.177856,600.762268 1465.779663,603.394897 
	C1476.805786,621.517212 1487.716431,639.712341 1498.393921,658.041565 
	C1499.993042,660.786926 1501.759399,661.433838 1504.341553,660.895691 
	C1532.885620,654.947510 1561.424927,648.976868 1589.949951,642.938416 
	C1597.376709,641.366150 1604.749268,639.537476 1612.731934,637.691162 
	C1615.653076,645.502136 1618.640381,653.120972 1621.357788,660.834778 
	C1626.668091,675.909180 1632.282837,690.897949 1636.941162,706.175415 
	C1643.670898,728.245972 1649.735107,750.521667 1655.876587,772.766907 
	C1656.643799,775.546082 1656.003662,778.036499 1652.800293,780.196350 
	C1624.838257,799.049988 1597.059692,818.177246 1569.354858,837.408020 
	C1567.976562,838.364685 1566.938599,841.140076 1567.169434,842.879272 
	C1569.267456,858.688599 1571.680176,874.456177 1574.007812,890.235046 
	C1574.794312,895.566528 1575.600220,900.895203 1576.468872,906.703735 
	C1589.755981,909.087769 1603.461792,911.489441 1617.143677,914.020081 
	C1627.986450,916.025513 1638.798096,918.199951 1649.627441,920.278625 
	C1657.913696,921.869141 1666.175415,923.631653 1674.512695,924.889954 
	C1677.454956,925.334106 1678.003662,926.576477 1678.025879,929.091125 
	C1678.320068,962.520081 1679.019409,995.950439 1678.843506,1029.376343 
	C1678.762207,1044.826660 1677.052856,1060.272339 1675.887207,1075.705322 
	C1675.799683,1076.862061 1674.300049,1078.654785 1673.195312,1078.882324 
	C1651.442139,1083.361450 1629.664062,1087.725342 1607.860352,1091.953125 
	C1596.084229,1094.236572 1584.250488,1096.222168 1573.346191,1098.180054 
	C1569.214722,1118.206665 1565.076172,1137.864868 1561.249268,1157.583618 
	C1560.943848,1159.157227 1562.297729,1161.865601 1563.711792,1162.838013 
	C1583.861450,1176.696533 1604.187622,1190.298096 1624.395874,1204.072144 
	C1631.915405,1209.197388 1639.345459,1214.471313 1646.558716,1220.012573 
	C1647.916992,1221.055908 1649.094849,1224.023682 1648.603271,1225.532593 
	C1640.703735,1249.786377 1633.196899,1274.203491 1624.190430,1298.050659 
	C1616.727905,1317.809570 1607.502075,1336.908081 1598.886353,1356.222900 
	C1595.963867,1362.774658 1595.732300,1362.638428 1588.525269,1361.017334 
	C1557.412231,1354.019409 1526.295288,1347.038818 1495.178711,1340.056641 
	C1487.387451,1338.308472 1487.904297,1338.636719 1483.468262,1345.827393 
	C1474.462891,1360.424805 1464.837524,1374.639771 1454.989990,1389.745239 
	C1462.310059,1401.003540 1470.471313,1413.596680 1478.674561,1426.162231 
	C1490.012573,1443.529419 1501.308228,1460.925293 1512.813965,1478.180908 
	C1514.666504,1480.959229 1514.010864,1482.527832 1511.986572,1484.537109 
	C1500.841553,1495.597900 1490.392700,1507.459106 1478.512939,1517.657104 
	C1461.718872,1532.073853 1443.885132,1545.279297 1426.232788,1559.262451 
M1484.996094,696.506165 
	C1478.227783,683.429504 1471.594360,670.279907 1464.591309,657.330200 
	C1462.959961,654.313660 1460.547485,651.127625 1457.659668,649.509705 
	C1452.207886,646.455566 1446.219849,644.285767 1440.297974,642.191589 
	C1438.681396,641.619934 1436.144409,642.055603 1434.646729,643.003723 
	C1425.476562,648.809204 1416.646851,655.166443 1407.351562,660.753845 
	C1403.623291,662.994812 1401.891724,665.830688 1400.987549,669.705750 
	C1400.336792,672.495361 1399.535889,675.250000 1398.847046,677.849548 
	C1395.023560,677.167053 1391.722412,676.423889 1388.379883,676.051147 
	C1386.886841,675.884766 1385.030029,676.013611 1383.817261,676.773193 
	C1374.354248,682.699097 1364.974487,688.760376 1355.640625,694.888916 
	C1351.441284,697.646240 1348.087402,716.576294 1350.402954,720.991211 
	C1358.062744,735.595093 1365.607544,750.263855 1372.888428,765.059448 
	C1375.552734,770.473633 1391.592163,779.404663 1397.197876,777.896118 
	C1397.506714,777.812988 1397.768677,777.568176 1398.073608,777.456543 
	C1404.879272,774.965637 1411.590210,772.155945 1418.521606,770.084473 
	C1426.488037,767.703979 1433.081787,764.206970 1435.248413,755.385376 
	C1435.462402,754.513794 1436.198364,753.770447 1436.906738,752.618530 
	C1440.235840,754.085754 1443.385132,755.761047 1446.727051,756.838745 
	C1448.733765,757.485962 1451.269165,757.869812 1453.174683,757.220581 
	C1462.333252,754.100220 1471.209229,750.072205 1480.481567,747.390381 
	C1486.989624,745.507996 1490.877319,742.269165 1491.763184,735.562988 
	C1492.732300,728.227356 1496.750977,721.083923 1492.815674,713.456238 
	C1490.073242,708.140564 1487.608887,702.681396 1484.996094,696.506165 
M1519.089355,885.967773 
	C1520.884644,883.318787 1522.930908,880.803223 1524.425293,877.994141 
	C1527.988770,871.295654 1532.840698,864.934021 1531.007324,856.551331 
	C1530.625732,854.806641 1530.324585,853.043884 1530.009277,851.285278 
	C1526.661255,832.608093 1523.427002,813.909363 1519.881226,795.269897 
	C1519.173584,791.549438 1518.182495,787.193054 1515.742798,784.638123 
	C1510.935791,779.604187 1505.110596,775.508301 1499.491089,771.313232 
	C1498.356445,770.466248 1496.127075,770.406311 1494.639526,770.825256 
	C1486.716064,773.057190 1478.872070,775.570129 1470.993164,777.961121 
	C1449.819702,784.386597 1428.608276,790.691223 1407.504639,797.337769 
	C1404.439453,798.303162 1401.093262,800.314392 1399.275757,802.845947 
	C1396.593506,806.581726 1394.842773,811.107300 1393.326538,815.513794 
	C1392.423828,818.137024 1392.125854,821.280029 1392.594849,824.010925 
	C1394.871460,837.268066 1397.867188,850.409424 1399.870728,863.702942 
	C1401.164307,872.285950 1402.761353,879.958252 1410.125000,885.989685 
	C1415.409790,890.318359 1419.438843,893.275513 1427.270630,892.381531 
	C1446.240845,890.216370 1465.432861,889.980896 1484.537476,889.009827 
	C1492.290283,888.615723 1500.058350,888.469727 1507.800293,887.933777 
	C1511.319580,887.690186 1514.792480,886.773621 1519.089355,885.967773 
M1350.525879,568.982483 
	C1352.762329,566.741699 1355.184570,564.653809 1357.188354,562.221375 
	C1359.687012,559.188477 1361.511353,559.752930 1363.935669,562.392151 
	C1373.442993,572.742004 1383.146240,582.911560 1392.701782,593.217712 
	C1395.864258,596.628662 1396.173950,603.628784 1393.160156,606.225586 
	C1388.337036,610.381226 1383.372681,614.392761 1378.264893,618.192017 
	C1374.170166,621.237732 1370.069946,620.391602 1367.130981,616.657349 
	C1363.902100,612.554626 1360.677124,608.410278 1357.063232,604.656982 
	C1349.435791,596.735046 1341.414795,589.190247 1333.841064,581.218994 
	C1330.255615,577.445190 1325.952515,576.275940 1321.146729,576.026733 
	C1318.321045,575.880249 1315.409424,576.404968 1312.663330,575.915955 
	C1306.863281,574.883179 1303.172485,577.053528 1300.256104,582.029053 
	C1298.462158,585.089355 1295.598633,587.517212 1293.249512,590.258362 
	C1285.346802,599.479980 1277.367432,608.639648 1269.679688,618.037659 
	C1268.695923,619.240234 1268.395996,622.482361 1269.263916,623.455627 
	C1272.533447,627.121765 1276.593018,630.068359 1280.038208,633.595520 
	C1291.767212,645.603577 1303.525757,657.591125 1314.929688,669.904419 
	C1319.953857,675.329102 1324.151978,681.518860 1328.738281,687.378052 
	C1333.723633,683.684692 1338.034058,680.187744 1342.665894,677.186951 
	C1345.009033,675.668945 1345.798096,674.716431 1343.845703,672.290955 
	C1340.995728,668.750366 1338.752686,664.692627 1335.724121,661.329651 
	C1324.348389,648.698120 1312.756714,636.260986 1301.255981,623.741760 
	C1300.728149,623.167053 1300.299194,622.501648 1299.845581,621.906616 
	C1305.216919,616.115417 1310.327881,610.497620 1315.567505,605.002563 
	C1318.065796,602.382385 1324.424927,601.906250 1326.792847,604.332092 
	C1334.205322,611.925537 1342.097168,619.184509 1348.559570,627.535645 
	C1355.565430,636.589172 1362.947388,644.290039 1374.822998,645.907471 
	C1378.844971,646.455261 1382.727783,648.378174 1386.928467,645.133484 
	C1397.208374,637.193237 1407.905884,629.795715 1418.363892,622.082886 
	C1420.798462,620.287354 1422.459961,618.114136 1422.106201,614.546997 
	C1421.664429,610.090881 1422.473999,605.490784 1421.850220,601.079102 
	C1421.350342,597.544861 1420.390503,593.419128 1418.135620,590.895386 
	C1402.725708,573.647278 1387.024048,556.654297 1371.123291,539.856567 
	C1368.863159,537.468933 1365.169800,535.952637 1361.868042,535.149658 
	C1356.830811,533.924438 1351.570068,533.401672 1346.376343,533.144897 
	C1344.368408,533.045532 1341.701782,533.921875 1340.340454,535.327332 
	C1335.565796,540.256592 1331.228760,545.609619 1326.249634,551.350647 
	C1333.467163,557.768677 1340.345093,563.937561 1347.337891,569.973328 
	C1347.767090,570.343750 1349.104492,569.662231 1350.525879,568.982483 
M1281.048584,512.602173 
	C1263.734985,539.265381 1246.421509,565.928589 1228.817261,593.039307 
	C1235.605103,597.705078 1242.095215,602.166321 1248.764038,606.750366 
	C1250.502563,604.280151 1251.732666,602.425537 1253.068481,600.650574 
	C1267.539551,581.423157 1282.077148,562.245728 1296.492188,542.976440 
	C1305.800903,530.533020 1314.850464,517.895081 1324.226562,505.503479 
	C1325.964478,503.206757 1325.584839,501.687653 1323.731445,500.371887 
	C1315.943481,494.843201 1308.079468,489.419189 1300.159546,484.081329 
	C1298.956299,483.270355 1297.073120,482.391571 1295.908691,482.774200 
	C1288.243286,485.292969 1280.688599,488.148865 1271.951660,491.309509 
	C1277.998657,495.376984 1282.954102,498.710327 1287.933350,502.059570 
	C1285.663208,505.572479 1283.582886,508.791718 1281.048584,512.602173 
z"/>
<path fill="#000000" opacity="1.000000" stroke="none" 
	d="
M1112.930420,870.035095 
	C1098.946289,863.990234 1085.184692,858.344299 1071.824585,851.869690 
	C1056.867310,844.621094 1043.337769,835.137329 1030.636719,824.315369 
	C1018.242249,813.754517 1008.169495,801.544006 1001.443604,786.798706 
	C992.082947,766.277161 990.664062,745.493286 1001.053711,724.754761 
	C1001.748474,723.367981 1002.716980,722.118347 1003.554504,720.810547 
	C1010.654236,728.681702 1017.270508,736.345825 1024.237671,743.676514 
	C1041.963623,762.327515 1063.133423,775.616821 1087.870361,782.741882 
	C1092.077637,783.953674 1093.435547,786.418213 1094.805176,789.526794 
	C1102.022583,805.909180 1109.132935,822.338867 1116.318237,838.735474 
	C1121.828613,851.309753 1127.394775,863.859497 1133.428711,877.536560 
	C1126.125244,874.822693 1119.727661,872.445496 1112.930420,870.035095 
z"/>
<path fill="#000000" opacity="1.000000" stroke="none" 
	d="
M1318.002686,1150.854736 
	C1318.359131,1143.336304 1318.735596,1136.250366 1319.042725,1129.161133 
	C1319.141724,1126.876831 1319.058350,1124.584473 1319.058350,1121.763184 
	C1325.649048,1124.870605 1329.519043,1129.930298 1333.071045,1135.389038 
	C1339.408203,1145.128296 1341.617432,1156.235229 1341.752930,1167.370972 
	C1341.907593,1180.077271 1339.200195,1192.532104 1330.917603,1202.907349 
	C1330.148193,1203.871094 1327.785889,1204.640869 1326.777466,1204.174072 
	C1312.272705,1197.458740 1297.873535,1190.515991 1282.941528,1183.385620 
	C1300.539062,1178.649658 1313.815674,1169.839722 1318.002686,1150.854736 
z"/>
<path fill="#000000" opacity="1.000000" stroke="none" 
	d="
M1485.008179,696.896240 
	C1487.608887,702.681396 1490.073242,708.140564 1492.815674,713.456238 
	C1496.750977,721.083923 1492.732300,728.227356 1491.763184,735.562988 
	C1490.877319,742.269165 1486.989624,745.507996 1480.481567,747.390381 
	C1471.209229,750.072205 1462.333252,754.100220 1453.174683,757.220581 
	C1451.269165,757.869812 1448.733765,757.485962 1446.727051,756.838745 
	C1443.385132,755.761047 1440.235840,754.085754 1436.906738,752.618530 
	C1436.198364,753.770447 1435.462402,754.513794 1435.248413,755.385376 
	C1433.081787,764.206970 1426.488037,767.703979 1418.521606,770.084473 
	C1411.590210,772.155945 1404.879272,774.965637 1398.073608,777.456543 
	C1397.768677,777.568176 1397.506714,777.812988 1397.197876,777.896118 
	C1391.592163,779.404663 1375.552734,770.473633 1372.888428,765.059448 
	C1365.607544,750.263855 1358.062744,735.595093 1350.402954,720.991211 
	C1348.087402,716.576294 1351.441284,697.646240 1355.640625,694.888916 
	C1364.974487,688.760376 1374.354248,682.699097 1383.817261,676.773193 
	C1385.030029,676.013611 1386.886841,675.884766 1388.379883,676.051147 
	C1391.722412,676.423889 1395.023560,677.167053 1398.847046,677.849548 
	C1399.535889,675.250000 1400.336792,672.495361 1400.987549,669.705750 
	C1401.891724,665.830688 1403.623291,662.994812 1407.351562,660.753845 
	C1416.646851,655.166443 1425.476562,648.809204 1434.646729,643.003723 
	C1436.144409,642.055603 1438.681396,641.619934 1440.297974,642.191589 
	C1446.219849,644.285767 1452.207886,646.455566 1457.659668,649.509705 
	C1460.547485,651.127625 1462.959961,654.313660 1464.591309,657.330200 
	C1471.594360,670.279907 1478.227783,683.429504 1485.008179,696.896240 
M1467.008179,717.422546 
	C1467.041016,714.769409 1467.953491,711.714661 1466.956665,709.531555 
	C1462.262573,699.249756 1457.107910,689.174927 1451.980713,679.095825 
	C1450.112427,675.423157 1444.006104,672.812927 1441.172485,674.407471 
	C1435.673096,677.502075 1430.340332,680.892761 1424.842163,683.989746 
	C1421.514893,685.863953 1421.096313,688.941162 1422.379883,691.654663 
	C1427.769653,703.049133 1433.378906,714.349792 1439.299805,725.476196 
	C1440.850708,728.390808 1443.728638,730.074829 1447.656006,728.133057 
	C1453.584351,725.202026 1459.745605,722.744080 1465.767212,719.996277 
	C1466.325806,719.741333 1466.593262,718.848145 1467.008179,717.422546 
M1386.996826,705.504089 
	C1384.168457,707.040955 1381.365112,708.626282 1378.505981,710.103455 
	C1374.031616,712.415222 1372.820068,715.595703 1375.029175,720.077148 
	C1379.460449,729.067017 1384.048218,737.979919 1388.454102,746.982056 
	C1390.298462,750.750549 1393.259033,751.929993 1396.895264,750.517273 
	C1402.438721,748.363342 1407.840454,745.828430 1413.232910,743.306641 
	C1417.578003,741.274719 1419.197144,737.082031 1417.212036,732.719666 
	C1413.937256,725.523621 1410.603882,718.344849 1406.980591,711.321106 
	C1405.342651,708.145752 1403.502197,704.633667 1400.776123,702.558167 
	C1395.994751,698.917908 1391.724365,702.589539 1386.996826,705.504089 
z"/>
<path fill="#000000" opacity="1.000000" stroke="none" 
	d="
M1518.687866,886.065063 
	C1514.792480,886.773621 1511.319580,887.690186 1507.800293,887.933777 
	C1500.058350,888.469727 1492.290283,888.615723 1484.537476,889.009827 
	C1465.432861,889.980896 1446.240845,890.216370 1427.270630,892.381531 
	C1419.438843,893.275513 1415.409790,890.318359 1410.125000,885.989685 
	C1402.761353,879.958252 1401.164307,872.285950 1399.870728,863.702942 
	C1397.867188,850.409424 1394.871460,837.268066 1392.594849,824.010925 
	C1392.125854,821.280029 1392.423828,818.137024 1393.326538,815.513794 
	C1394.842773,811.107300 1396.593506,806.581726 1399.275757,802.845947 
	C1401.093262,800.314392 1404.439453,798.303162 1407.504639,797.337769 
	C1428.608276,790.691223 1449.819702,784.386597 1470.993164,777.961121 
	C1478.872070,775.570129 1486.716064,773.057190 1494.639526,770.825256 
	C1496.127075,770.406311 1498.356445,770.466248 1499.491089,771.313232 
	C1505.110596,775.508301 1510.935791,779.604187 1515.742798,784.638123 
	C1518.182495,787.193054 1519.173584,791.549438 1519.881226,795.269897 
	C1523.427002,813.909363 1526.661255,832.608093 1530.009277,851.285278 
	C1530.324585,853.043884 1530.625732,854.806641 1531.007324,856.551331 
	C1532.840698,864.934021 1527.988770,871.295654 1524.425293,877.994141 
	C1522.930908,880.803223 1520.884644,883.318787 1518.687866,886.065063 
M1479.994995,859.507568 
	C1486.629272,858.671692 1493.246948,857.646912 1499.903320,857.063232 
	C1504.728027,856.640198 1508.783936,852.471863 1507.943359,847.621582 
	C1505.757690,835.009888 1503.382446,822.430176 1500.966309,809.860107 
	C1500.243286,806.098816 1495.443237,802.420227 1492.508545,803.115234 
	C1468.760254,808.739807 1445.012939,814.368042 1421.274902,820.035095 
	C1416.598267,821.151611 1415.060547,824.027466 1415.977905,828.966797 
	C1417.722778,838.361938 1419.316162,847.785217 1421.011597,857.189697 
	C1422.412354,864.959961 1424.748291,866.512207 1429.116943,866.003052 
	C1435.120728,865.303223 1441.132080,864.667114 1447.131958,863.935120 
	C1457.820557,862.630920 1468.503174,861.275330 1479.994995,859.507568 
z"/>
<path fill="#000000" opacity="1.000000" stroke="none" 
	d="
M1350.272583,569.226318 
	C1349.104492,569.662231 1347.767090,570.343750 1347.337891,569.973328 
	C1340.345093,563.937561 1333.467163,557.768677 1326.249634,551.350647 
	C1331.228760,545.609619 1335.565796,540.256592 1340.340454,535.327332 
	C1341.701782,533.921875 1344.368408,533.045532 1346.376343,533.144897 
	C1351.570068,533.401672 1356.830811,533.924438 1361.868042,535.149658 
	C1365.169800,535.952637 1368.863159,537.468933 1371.123291,539.856567 
	C1387.024048,556.654297 1402.725708,573.647278 1418.135620,590.895386 
	C1420.390503,593.419128 1421.350342,597.544861 1421.850220,601.079102 
	C1422.473999,605.490784 1421.664429,610.090881 1422.106201,614.546997 
	C1422.459961,618.114136 1420.798462,620.287354 1418.363892,622.082886 
	C1407.905884,629.795715 1397.208374,637.193237 1386.928467,645.133484 
	C1382.727783,648.378174 1378.844971,646.455261 1374.822998,645.907471 
	C1362.947388,644.290039 1355.565430,636.589172 1348.559570,627.535645 
	C1342.097168,619.184509 1334.205322,611.925537 1326.792847,604.332092 
	C1324.424927,601.906250 1318.065796,602.382385 1315.567505,605.002563 
	C1310.327881,610.497620 1305.216919,616.115417 1299.845581,621.906616 
	C1300.299194,622.501648 1300.728149,623.167053 1301.255981,623.741760 
	C1312.756714,636.260986 1324.348389,648.698120 1335.724121,661.329651 
	C1338.752686,664.692627 1340.995728,668.750366 1343.845703,672.290955 
	C1345.798096,674.716431 1345.009033,675.668945 1342.665894,677.186951 
	C1338.034058,680.187744 1333.723633,683.684692 1328.738281,687.378052 
	C1324.151978,681.518860 1319.953857,675.329102 1314.929688,669.904419 
	C1303.525757,657.591125 1291.767212,645.603577 1280.038208,633.595520 
	C1276.593018,630.068359 1272.533447,627.121765 1269.263916,623.455627 
	C1268.395996,622.482361 1268.695923,619.240234 1269.679688,618.037659 
	C1277.367432,608.639648 1285.346802,599.479980 1293.249512,590.258362 
	C1295.598633,587.517212 1298.462158,585.089355 1300.256104,582.029053 
	C1303.172485,577.053528 1306.863281,574.883179 1312.663330,575.915955 
	C1315.409424,576.404968 1318.321045,575.880249 1321.146729,576.026733 
	C1325.952515,576.275940 1330.255615,577.445190 1333.841064,581.218994 
	C1341.414795,589.190247 1349.435791,596.735046 1357.063232,604.656982 
	C1360.677124,608.410278 1363.902100,612.554626 1367.130981,616.657349 
	C1370.069946,620.391602 1374.170166,621.237732 1378.264893,618.192017 
	C1383.372681,614.392761 1388.337036,610.381226 1393.160156,606.225586 
	C1396.173950,603.628784 1395.864258,596.628662 1392.701782,593.217712 
	C1383.146240,582.911560 1373.442993,572.742004 1363.935669,562.392151 
	C1361.511353,559.752930 1359.687012,559.188477 1357.188354,562.221375 
	C1355.184570,564.653809 1352.762329,566.741699 1350.272583,569.226318 
z"/>
<path fill="#000000" opacity="1.000000" stroke="none" 
	d="
M1281.275635,512.306580 
	C1283.582886,508.791718 1285.663208,505.572479 1287.933350,502.059570 
	C1282.954102,498.710327 1277.998657,495.376984 1271.951660,491.309509 
	C1280.688599,488.148865 1288.243286,485.292969 1295.908691,482.774200 
	C1297.073120,482.391571 1298.956299,483.270355 1300.159546,484.081329 
	C1308.079468,489.419189 1315.943481,494.843201 1323.731445,500.371887 
	C1325.584839,501.687653 1325.964478,503.206757 1324.226562,505.503479 
	C1314.850464,517.895081 1305.800903,530.533020 1296.492188,542.976440 
	C1282.077148,562.245728 1267.539551,581.423157 1253.068481,600.650574 
	C1251.732666,602.425537 1250.502563,604.280151 1248.764038,606.750366 
	C1242.095215,602.166321 1235.605103,597.705078 1228.817261,593.039307 
	C1246.421509,565.928589 1263.734985,539.265381 1281.275635,512.306580 
z"/>
<path fill="#FFD200" opacity="1.000000" stroke="none" 
	d="
M1467.002075,717.836914 
	C1466.593262,718.848145 1466.325806,719.741333 1465.767212,719.996277 
	C1459.745605,722.744080 1453.584351,725.202026 1447.656006,728.133057 
	C1443.728638,730.074829 1440.850708,728.390808 1439.299805,725.476196 
	C1433.378906,714.349792 1427.769653,703.049133 1422.379883,691.654663 
	C1421.096313,688.941162 1421.514893,685.863953 1424.842163,683.989746 
	C1430.340332,680.892761 1435.673096,677.502075 1441.172485,674.407471 
	C1444.006104,672.812927 1450.112427,675.423157 1451.980713,679.095825 
	C1457.107910,689.174927 1462.262573,699.249756 1466.956665,709.531555 
	C1467.953491,711.714661 1467.041016,714.769409 1467.002075,717.836914 
z"/>
<path fill="#FFD200" opacity="1.000000" stroke="none" 
	d="
M1387.303833,705.278931 
	C1391.724365,702.589539 1395.994751,698.917908 1400.776123,702.558167 
	C1403.502197,704.633667 1405.342651,708.145752 1406.980591,711.321106 
	C1410.603882,718.344849 1413.937256,725.523621 1417.212036,732.719666 
	C1419.197144,737.082031 1417.578003,741.274719 1413.232910,743.306641 
	C1407.840454,745.828430 1402.438721,748.363342 1396.895264,750.517273 
	C1393.259033,751.929993 1390.298462,750.750549 1388.454102,746.982056 
	C1384.048218,737.979919 1379.460449,729.067017 1375.029175,720.077148 
	C1372.820068,715.595703 1374.031616,712.415222 1378.505981,710.103455 
	C1381.365112,708.626282 1384.168457,707.040955 1387.303833,705.278931 
z"/>
<path fill="#FFD200" opacity="1.000000" stroke="none" 
	d="
M1479.591553,859.724426 
	C1468.503174,861.275330 1457.820557,862.630920 1447.131958,863.935120 
	C1441.132080,864.667114 1435.120728,865.303223 1429.116943,866.003052 
	C1424.748291,866.512207 1422.412354,864.959961 1421.011597,857.189697 
	C1419.316162,847.785217 1417.722778,838.361938 1415.977905,828.966797 
	C1415.060547,824.027466 1416.598267,821.151611 1421.274902,820.035095 
	C1445.012939,814.368042 1468.760254,808.739807 1492.508545,803.115234 
	C1495.443237,802.420227 1500.243286,806.098816 1500.966309,809.860107 
	C1503.382446,822.430176 1505.757690,835.009888 1507.943359,847.621582 
	C1508.783936,852.471863 1504.728027,856.640198 1499.903320,857.063232 
	C1493.246948,857.646912 1486.629272,858.671692 1479.591553,859.724426 
z"/>
</svg>